    <?xml version="1.0" encoding="utf-8"?>
    <!-- Generator: Adobe Illustrator 16.0.0, SVG Export Plug-In . SVG Version: 6.00 Build 0)  -->
    <!DOCTYPE svg PUBLIC "-//W3C//DTD SVG 1.1//EN" "http://www.w3.org/Graphics/SVG/1.1/DTD/svg11.dtd">
    <svg
      version="1.1"
      xmlns="http://www.w3.org/2000/svg"
      xmlns:xlink="http://www.w3.org/1999/xlink"
      width="640px"
      height="480px"
      viewBox="0 0 640 480"
    >
      <style>
        svg {
          background-color: beige;
        }
        #trolley_1_ {
          animation: mirror 3s infinite ease-in-out;
          transform-origin: 50% 50%;
        }
        #leaf {
          animation: mirror 3s infinite ease-in-out;
          transform-origin: 50% 50%;
        }
        @keyframes mirror {
          0% {
            transform: scale(1, 1);
            opacity: 1;
          }
          12.5% {
            transform: scale(0.9, 0.9);
            opacity: 0.8;
          }
          25% {
            transform: scale(-1.05, 1.05);
            opacity: 1;
          }
          50% {
            transform: scale(-1, 1);
            opacity: 1;
          }
          62.5% {
            transform: scale(-0.9, 0.9);
            opacity: 0.8;
          }
          75% {
            transform: scale(1.05, 1.05);
            opacity: 1;
          }
          100% {
            transform: scale(1, 1);
            opacity: 1;
          }
        }
      </style>
      <g id="trolley_1_">
        <g opacity="0.6">
          <g>
            <path
              fill="#E2685B"
              d="M298.215,263.905c-5.027,0-9.096-4.068-9.096-9.098c0-5.028,4.068-9.096,9.096-9.096
                        c5.029,0,9.099,4.068,9.099,9.096C307.313,259.837,303.244,263.905,298.215,263.905z M298.215,250.005
                        c-2.654,0-4.802,2.147-4.802,4.803s2.147,4.804,4.802,4.804c2.656,0,4.803-2.148,4.803-4.804S300.871,250.005,298.215,250.005z"
            />
          </g>
          <g>
            <path
              fill="#E2685B"
              d="M343.079,263.905c-5.028,0-9.097-4.068-9.097-9.098c0-5.028,4.068-9.096,9.097-9.096
                        s9.097,4.068,9.097,9.096C352.176,259.837,348.107,263.905,343.079,263.905z M343.079,250.005c-2.655,0-4.804,2.147-4.804,4.803
                        s2.148,4.804,4.804,4.804s4.803-2.148,4.803-4.804S345.734,250.005,343.079,250.005z"
            />
          </g>
          <g>
            <path
              fill="#E2685B"
              d="M350.028,243.846h-59.61c-0.903,0-1.694-0.565-2.035-1.356l-20.34-53.112h-12.769
                        c-1.187,0-2.147-0.96-2.147-2.148c0-1.185,0.96-2.147,2.147-2.147h14.296c0.904,0,1.694,0.566,2.034,1.356L292,239.553h58.143
                        c1.187,0,2.146,0.96,2.146,2.146C352.176,242.886,351.215,243.846,350.028,243.846z"
            />
          </g>
          <g>
            <path
              fill="#E2685B"
              d="M339.78,233.264c-0.789-0.311-1.394-1.094-1.376-2.06l0.382-33.116c0.045-1.197,0.972-2.168,2.169-2.122
                        c1.196,0.045,2.168,0.973,2.123,2.169l-0.383,33.116c-0.047,1.197-0.973,2.167-2.17,2.123
                        C340.273,233.396,340.043,233.366,339.78,233.264z"
            />
          </g>
          <g>
            <path
              fill="#E2685B"
              d="M350.649,234.638h-63.622c-1.186,0-2.145-0.962-2.145-2.148c0-1.187,0.959-2.147,2.145-2.147h62.098
                        l11.074-31.642h-86.675c-1.187,0-2.147-0.961-2.147-2.147c0-1.187,0.961-2.148,2.147-2.148h89.726
                        c0.678,0,1.354,0.34,1.751,0.905c0.397,0.565,0.511,1.3,0.283,1.978l-12.601,35.935
                        C352.402,234.072,351.555,234.638,350.649,234.638z"
            />
          </g>
          <g>
            <path
              fill="#E2685B"
              d="M297.255,233.264c-0.79-0.311-1.394-1.094-1.376-2.06l0.382-33.116c0.046-1.197,0.973-2.168,2.169-2.122
                        c1.195,0.045,2.169,0.973,2.123,2.169l-0.383,33.116c-0.047,1.197-0.973,2.167-2.17,2.123
                        C297.748,233.396,297.517,233.366,297.255,233.264z"
            />
          </g>
        </g>
      </g>
      <!-- <g id="slogan">
        <g>
          <rect
            x="202.45"
            y="323.089"
            fill="none"
            width="237.258"
            height="47.164"
          />

          <text
            transform="matrix(1 0 0 1 205.5303 335.6387)"
            opacity="0.6"
            fill="#E2685B"
            font-family="'Nunito-Regular'"
            font-size="17.6751"
          >
            our actions make a difference
          </text>
        </g>
      </g>
      <g id="karma">
        <rect
          x="247.415"
          y="279.806"
          fill="none"
          width="202.583"
          height="54.384"
        />
        <text
          transform="matrix(1 0 0 1 247.415 308.7646)"
          fill="#E2685B"
          font-family="'Nunito-Bold'"
          font-size="40.7886"
        >
          KARMA
        </text>
      </g> -->
      <g id="leaf">
        <path
          fill="#E2685B"
          d="M337.93,118.952c-7.959-11.944-15.821-19.828-16.153-20.156c-0.485-0.486-1.149-0.757-1.839-0.753
                c-0.69,0.003-1.354,0.283-1.846,0.775c-0.332,0.336-8.249,8.321-16.284,20.372c-2.864,4.29-5.375,8.56-7.519,12.761
                c-0.016,0.026-0.029,0.055-0.043,0.083c-1.387,2.722-2.619,5.417-3.688,8.069c-1.305,3.245-2.365,6.434-3.187,9.557
                c-0.027,0.092-0.048,0.185-0.067,0.279c-1.299,5.026-1.964,9.883-1.977,14.507c-0.03,9.188,3.518,17.801,9.992,24.252
                c5.858,5.839,13.477,9.278,21.682,9.837l0.211,33.368c-0.005,1.437,0.509,0.268,1.95,0.259c0.72-0.007,1.671,0.342,2.145-0.134
                c0.474-0.474,1.167,0.599,1.169-0.122l-0.266-33.407c8.204-0.662,15.848-4.2,21.744-10.12c6.52-6.538,10.126-15.197,10.156-24.383
                c0.014-4.628-0.619-9.474-1.881-14.484c-0.018-0.093-0.042-0.186-0.07-0.277c-0.797-3.114-1.839-6.289-3.121-9.518
                c-1.052-2.642-2.268-5.322-3.638-8.027c-0.013-0.023-0.022-0.046-0.033-0.07C343.249,127.447,340.764,123.208,337.93,118.952z
                 M306.076,122.135c5.498-8.258,11.05-14.647,13.84-17.696c2.772,3.013,8.281,9.333,13.726,17.514
                c2.042,3.076,4.2,6.607,6.23,10.458l-17.501,17.556l0.07-21.431c0.006-1.439-1.157-2.598-2.596-2.59
                c-1.439,0.012-2.609,1.185-2.613,2.624l-0.071,21.43l-17.386-17.327C301.828,128.797,304.011,125.237,306.076,122.135z
                 M346.75,149.27l-24.457,24.538l0.056-16.47l19.949-20.017C344.045,141.112,345.594,145.134,346.75,149.27z M297.316,137.615
                l19.819,19.755l-0.055,16.473l-24.296-24.217C293.971,145.47,295.546,141.43,297.316,137.615z M299.015,184.994
                c-5.49-5.478-8.503-12.785-8.477-20.58c0.01-2.938,0.312-5.88,0.839-8.796l25.681,25.593l-0.04,12.095
                C310.206,192.75,303.893,189.852,299.015,184.994z M348.902,164.03c-0.028,7.796-3.088,15.143-8.618,20.69
                c-4.907,4.926-11.243,7.906-18.056,8.551l0.041-12.093l25.848-25.935C348.629,158.151,348.909,161.092,348.902,164.03z"
        />
      </g>
    </svg>