<?xml version="1.0" encoding="utf-8"?>
<!-- Generator: Adobe Illustrator 16.0.0, SVG Export Plug-In . SVG Version: 6.00 Build 0)  -->
<!DOCTYPE svg PUBLIC "-//W3C//DTD SVG 1.1//EN" "http://www.w3.org/Graphics/SVG/1.1/DTD/svg11.dtd">
<svg version="1.1" xmlns="http://www.w3.org/2000/svg" xmlns:xlink="http://www.w3.org/1999/xlink" x="0px" y="0px" width="838px"
	 height="275.091px" viewBox="0 0 838 275.091" enable-background="new 0 0 838 275.091" xml:space="preserve">
<g id="Calque_1">
</g>
<g id="Calque_2">
</g>
<g id="icons">
</g>
<g id="svg">
</g>
<g id="bg">
</g>
<g id="ui">
	<g>
		<g>
			<path fill="#E2685B" d="M147.841,92.121c-0.022-0.14-0.057-0.274-0.099-0.401c-1.117-4.395-2.592-8.861-4.4-13.421
				c-1.48-3.721-3.199-7.5-5.133-11.323c-0.011-0.031-0.027-0.065-0.042-0.097c-2.988-5.88-6.493-11.86-10.489-17.862
				c-11.221-16.843-22.309-27.955-22.778-28.418c-0.687-0.689-1.621-1.075-2.592-1.063c-0.974,0-1.905,0.398-2.605,1.101
				C99.238,21.1,88.073,32.356,76.74,49.355c-4.035,6.049-7.574,12.079-10.599,17.997c-0.022,0.031-0.04,0.068-0.062,0.112
				c-1.952,3.842-3.691,7.64-5.196,11.375c-1.84,4.582-3.337,9.076-4.493,13.48c-0.043,0.131-0.07,0.258-0.096,0.395
				c-1.832,7.086-2.771,13.93-2.791,20.452c-0.037,12.958,4.963,25.107,14.09,34.202c8.264,8.23,19.009,13.085,30.576,13.875
				l0.281,44.987c0.073,0,0.141-0.025,0.211-0.025c0.453,0.013,0.9,0.038,1.339,0.082c1.95-0.181,3.926-0.109,5.869-0.084
				l-0.356-45.016c11.569-0.933,22.346-5.924,30.662-14.272c9.187-9.212,14.279-21.421,14.316-34.389
				C150.514,106.007,149.621,99.182,147.841,92.121z M140.114,91.764l-34.486,34.603l0.081-23.221l28.128-28.226
				C136.302,80.263,138.488,85.938,140.114,91.764z M98.194,153.867c-9.611-0.787-18.511-4.871-25.388-11.727
				c-7.746-7.721-11.988-18.021-11.952-29.011c0.012-4.146,0.437-8.293,1.182-12.402l36.209,36.085L98.194,153.867z M98.278,126.413
				L64.015,92.275c1.68-5.865,3.899-11.562,6.393-16.939l27.947,27.85L98.278,126.413z M102.178,58.882
				c-2.031,0.015-3.68,1.668-3.686,3.708l-0.102,30.211L73.876,68.368c2.896-5.464,5.974-10.484,8.883-14.86
				c7.757-11.644,15.584-20.651,19.521-24.953c3.911,4.252,11.677,13.16,19.353,24.698c2.875,4.333,5.923,9.312,8.787,14.745
				l-24.682,24.753l0.102-30.214C105.845,60.508,104.207,58.87,102.178,58.882z M130.995,141.761
				c-6.919,6.943-15.852,11.146-25.457,12.054l0.059-17.055l36.445-36.567c0.723,4.093,1.116,8.246,1.108,12.389
				C143.11,123.579,138.798,133.934,130.995,141.761z"/>
			<g opacity="0.6">
				<g>
					<path fill="#E2685B" d="M71.679,253.412c-7.091,0-12.824-5.738-12.824-12.821c0-7.1,5.733-12.831,12.824-12.831
						c7.087,0,12.827,5.731,12.827,12.831C84.506,247.674,78.766,253.412,71.679,253.412z M71.679,233.812
						c-3.748,0-6.775,3.033-6.775,6.779c0,3.736,3.027,6.766,6.775,6.766c3.745,0,6.772-3.03,6.772-6.766
						C78.451,236.845,75.424,233.812,71.679,233.812z"/>
				</g>
				<g>
					<path fill="#E2685B" d="M134.942,253.412c-7.096,0-12.83-5.738-12.83-12.821c0-7.1,5.734-12.831,12.83-12.831
						c7.088,0,12.825,5.731,12.825,12.831C147.768,247.674,142.03,253.412,134.942,253.412z M134.942,233.812
						c-3.747,0-6.78,3.033-6.78,6.779c0,3.736,3.033,6.766,6.78,6.766c3.737,0,6.768-3.03,6.768-6.766
						C141.71,236.845,138.68,233.812,134.942,233.812z"/>
				</g>
				<g>
					<path fill="#E2685B" d="M144.737,225.128H60.683c-1.277,0-2.389-0.79-2.867-1.915l-28.685-74.881H11.127
						c-1.672,0-3.028-1.358-3.028-3.033c0-1.673,1.356-3.031,3.028-3.031h20.159c1.274,0,2.389,0.799,2.867,1.915l28.755,74.897
						H144.9c1.671,0,3.021,1.352,3.021,3.027C147.768,223.772,146.408,225.128,144.737,225.128z"/>
				</g>
				<g>
					<path fill="#E2685B" d="M130.286,210.208c-1.111-0.432-1.967-1.542-1.941-2.903l0.537-46.697
						c0.065-1.691,1.368-3.061,3.059-2.993c1.688,0.065,3.062,1.371,2.997,3.052l-0.541,46.709
						c-0.064,1.676-1.373,3.049-3.061,2.987C130.981,210.392,130.655,210.355,130.286,210.208z"/>
				</g>
				<g>
					<path fill="#E2685B" d="M145.612,212.142H55.899c-1.668,0-3.024-1.349-3.024-3.033c0-1.669,1.356-3.021,3.024-3.021h87.563
						l15.612-44.611H36.862c-1.671,0-3.027-1.358-3.027-3.031c0-1.672,1.356-3.027,3.027-3.027H163.38
						c0.954,0,1.905,0.479,2.465,1.274c0.568,0.796,0.724,1.828,0.402,2.786l-17.766,50.675
						C148.085,211.346,146.89,212.142,145.612,212.142z"/>
				</g>
				<g>
					<path fill="#E2685B" d="M70.325,210.208c-1.117-0.432-1.967-1.542-1.938-2.903l0.534-46.697
						c0.067-1.691,1.373-3.061,3.059-2.993c1.688,0.065,3.059,1.371,2.991,3.052l-0.54,46.709c-0.065,1.676-1.371,3.049-3.056,2.987
						C71.018,210.392,70.691,210.355,70.325,210.208z"/>
				</g>
			</g>
		</g>
		<g>
			<path opacity="0.6" fill="#E2685B" d="M208.041,224.046c-1.584-0.895-2.803-2.169-3.661-3.848
				c-0.853-1.663-1.28-3.608-1.28-5.812c0-2.232,0.428-4.181,1.28-5.859c0.858-1.657,2.077-2.941,3.661-3.842
				c1.572-0.898,3.412-1.352,5.5-1.352c2.091,0,3.925,0.454,5.507,1.352c1.581,0.901,2.799,2.185,3.654,3.842
				c0.848,1.678,1.283,3.627,1.283,5.859c0,2.204-0.436,4.149-1.283,5.812c-0.855,1.678-2.073,2.953-3.654,3.848
				c-1.582,0.907-3.416,1.355-5.507,1.355C211.453,225.401,209.613,224.953,208.041,224.046z M218.004,219.999
				c1.026-1.262,1.542-3.146,1.542-5.613c0-2.431-0.523-4.29-1.564-5.589c-1.044-1.281-2.524-1.933-4.44-1.933
				c-1.913,0-3.393,0.652-4.437,1.933c-1.044,1.299-1.567,3.158-1.567,5.589c0,2.467,0.518,4.351,1.542,5.613
				c1.029,1.287,2.521,1.909,4.462,1.909C215.485,221.908,216.974,221.286,218.004,219.999z"/>
			<path opacity="0.6" fill="#E2685B" d="M246.896,203.986c0.389,0.379,0.583,0.91,0.583,1.563v17.71c0,0.619-0.2,1.106-0.605,1.489
				c-0.408,0.375-0.939,0.562-1.609,0.562c-0.61,0-1.1-0.177-1.477-0.54c-0.383-0.364-0.568-0.846-0.568-1.458v-1.66
				c-0.667,1.225-1.584,2.157-2.764,2.779c-1.176,0.655-2.487,0.97-3.938,0.97c-5.163,0-7.746-2.848-7.746-8.523v-11.329
				c0-0.653,0.197-1.184,0.588-1.563c0.394-0.367,0.938-0.565,1.629-0.565c0.676,0,1.199,0.198,1.587,0.565
				c0.399,0.379,0.591,0.91,0.591,1.563v11.28c0,1.718,0.347,2.971,1.041,3.786c0.698,0.814,1.772,1.218,3.225,1.218
				c1.711,0,3.084-0.547,4.11-1.654c1.03-1.106,1.548-2.567,1.548-4.389v-10.241c0-0.631,0.203-1.147,0.607-1.532
				c0.405-0.398,0.943-0.596,1.609-0.596C245.974,203.421,246.506,203.619,246.896,203.986z"/>
			<path opacity="0.6" fill="#E2685B" d="M266.846,205.211c0,0.64-0.163,1.122-0.484,1.436c-0.312,0.317-0.866,0.506-1.646,0.56
				l-1.306,0.126c-1.829,0.184-3.183,0.814-4.066,1.918c-0.889,1.116-1.336,2.443-1.336,4.01v9.952c0,0.712-0.197,1.219-0.603,1.579
				c-0.407,0.354-0.934,0.519-1.566,0.519c-0.642,0-1.165-0.165-1.593-0.519c-0.417-0.36-0.628-0.867-0.628-1.579v-17.692
				c0-0.671,0.211-1.188,0.628-1.547c0.428-0.36,0.951-0.553,1.593-0.553c0.576,0,1.066,0.192,1.46,0.553
				c0.386,0.36,0.579,0.858,0.579,1.492v2.095c0.589-1.268,1.43-2.256,2.53-2.916c1.105-0.671,2.349-1.063,3.741-1.181l0.611-0.042
				C266.15,203.333,266.846,203.93,266.846,205.211z"/>
			<path opacity="0.6" fill="#E2685B" d="M298.519,210.824c0,0.55-0.012,0.966-0.037,1.255l-0.869,11.233
				c-0.031,0.637-0.242,1.119-0.636,1.479c-0.392,0.354-0.906,0.519-1.539,0.519c-0.642,0-1.151-0.198-1.525-0.594
				c-0.38-0.385-0.54-0.888-0.479-1.504l0.085-1.467c-0.605,1.197-1.452,2.089-2.521,2.717c-1.068,0.625-2.323,0.939-3.742,0.939
				c-2.121,0-3.865-0.572-5.247-1.726c-1.376-1.141-2.062-2.614-2.062-4.41c0-1.632,0.42-2.916,1.261-3.86
				c0.841-0.938,2.184-1.629,4.023-2.055c1.837-0.441,4.316-0.659,7.423-0.659h1.563l0.085-1.087c0.115-1.65-0.175-2.863-0.867-3.63
				c-0.697-0.767-1.825-1.159-3.396-1.159c-1.913,0-4.032,0.646-6.356,1.921c-0.256,0.149-0.548,0.218-0.863,0.218
				c-0.437,0-0.802-0.168-1.095-0.485c-0.287-0.321-0.434-0.696-0.434-1.135c0-0.687,0.36-1.265,1.092-1.737
				c1.044-0.696,2.282-1.246,3.717-1.647c1.436-0.404,2.896-0.615,4.376-0.615C295.84,203.333,298.519,205.838,298.519,210.824z
				 M292.129,220.521c1.038-1.056,1.637-2.449,1.783-4.13l0.085-1.225h-1.219c-2.149,0-3.829,0.115-5.045,0.364
				c-1.218,0.217-2.09,0.603-2.61,1.125c-0.521,0.523-0.785,1.237-0.785,2.177c0,1.013,0.354,1.817,1.066,2.411
				c0.714,0.594,1.677,0.883,2.892,0.883C289.808,222.125,291.085,221.597,292.129,220.521z"/>
			<path opacity="0.6" fill="#E2685B" d="M307.924,224.136c-1.541-0.835-2.729-2.036-3.573-3.59c-0.841-1.554-1.26-3.362-1.26-5.408
				c0-2.388,0.452-4.463,1.348-6.235c0.897-1.771,2.194-3.133,3.874-4.109c1.683-0.97,3.657-1.46,5.92-1.46
				c1.39,0,2.704,0.193,3.939,0.575c1.234,0.374,2.239,0.87,3.021,1.47c0.552,0.382,0.83,0.917,0.83,1.62
				c0,0.481-0.155,0.923-0.456,1.309c-0.312,0.366-0.675,0.556-1.114,0.556c-0.259,0-0.54-0.086-0.824-0.264
				c-1.708-1.159-3.478-1.734-5.27-1.734c-2.142,0-3.796,0.724-4.961,2.169c-1.156,1.455-1.738,3.48-1.738,6.104
				c0,2.114,0.522,3.773,1.569,4.955c1.041,1.193,2.538,1.784,4.479,1.784c0.959,0,1.837-0.136,2.634-0.411
				c0.796-0.279,1.59-0.708,2.377-1.287c0.341-0.18,0.65-0.261,0.909-0.261c0.405,0,0.74,0.162,0.999,0.482
				c0.265,0.311,0.388,0.69,0.388,1.128c0,0.699-0.259,1.212-0.779,1.563c-0.815,0.737-1.834,1.296-3.063,1.7
				c-1.238,0.404-2.516,0.61-3.857,0.61C311.256,225.401,309.46,224.979,307.924,224.136z"/>
			<path opacity="0.6" fill="#E2685B" d="M330.939,217.214c-0.028,0.18-0.045,0.441-0.045,0.783c0,1.318,0.304,2.3,0.895,2.981
				c0.591,0.687,1.43,1.032,2.502,1.032c0.349,0,0.7-0.022,1.041-0.072c0.352-0.037,0.627-0.062,0.832-0.062
				c0.347,0,0.625,0.146,0.825,0.404c0.205,0.28,0.304,0.672,0.304,1.163c0,0.721-0.284,1.225-0.847,1.514
				c-0.566,0.294-1.562,0.444-2.982,0.444c-2.203,0-3.917-0.61-5.138-1.828c-1.219-1.224-1.826-2.94-1.826-5.141
				c0-0.457,0.017-0.821,0.045-1.075l0.782-10.102h-2.569c-0.576,0-1.032-0.149-1.345-0.441c-0.32-0.276-0.481-0.681-0.481-1.219
				c0-0.547,0.172-0.976,0.521-1.283c0.354-0.295,0.861-0.46,1.522-0.46h2.611l0.354-4.523c0.054-0.609,0.307-1.103,0.74-1.479
				c0.433-0.379,0.971-0.566,1.604-0.566c0.672,0,1.195,0.187,1.567,0.566c0.38,0.376,0.537,0.889,0.48,1.529l-0.343,4.473h4.308
				c0.549,0,0.979,0.165,1.297,0.447c0.323,0.289,0.481,0.671,0.481,1.166c0,1.194-0.664,1.791-2.004,1.791h-4.344L330.939,217.214z
				"/>
			<path opacity="0.6" fill="#E2685B" d="M340.582,224.792c-0.394-0.36-0.562-0.867-0.504-1.579l1.438-17.748
				c0.025-0.671,0.276-1.166,0.74-1.517c0.456-0.348,0.999-0.528,1.604-0.528c0.647,0,1.148,0.18,1.531,0.528
				c0.371,0.351,0.549,0.845,0.515,1.517l-1.435,17.748c-0.06,0.737-0.305,1.262-0.737,1.604c-0.431,0.329-0.974,0.494-1.609,0.494
				C341.482,225.311,340.973,225.146,340.582,224.792z M342.428,198.459c-0.492-0.454-0.743-1.065-0.743-1.821
				c0-0.753,0.251-1.35,0.743-1.797c0.495-0.473,1.162-0.687,1.998-0.687c0.812,0,1.479,0.214,1.983,0.687
				c0.503,0.447,0.765,1.044,0.765,1.797c0,0.755-0.247,1.367-0.745,1.821c-0.489,0.473-1.162,0.703-2.003,0.703
				C343.59,199.162,342.923,198.932,342.428,198.459z"/>
			<path opacity="0.6" fill="#E2685B" d="M354.917,224.136c-1.539-0.835-2.727-2.038-3.573-3.615
				c-0.838-1.566-1.26-3.381-1.26-5.442c0-2.362,0.441-4.441,1.33-6.217c0.89-1.762,2.13-3.136,3.742-4.084
				c1.609-0.967,3.475-1.445,5.591-1.445c2.088,0,3.902,0.435,5.436,1.287c1.537,0.858,2.729,2.063,3.568,3.617
				c0.847,1.552,1.266,3.367,1.266,5.446c0,2.381-0.444,4.46-1.333,6.21c-0.884,1.753-2.125,3.114-3.737,4.065
				c-1.611,0.955-3.488,1.443-5.63,1.443C358.251,225.401,356.448,224.979,354.917,224.136z M364.968,219.654
				c1.071-1.51,1.612-3.53,1.612-6.088c0-2.182-0.501-3.83-1.503-4.989c-1.004-1.141-2.434-1.712-4.282-1.712
				c-2.04,0-3.587,0.752-4.662,2.257c-1.069,1.517-1.612,3.543-1.612,6.091c0,2.21,0.504,3.886,1.5,5.017
				c1.007,1.125,2.447,1.678,4.333,1.678C362.359,221.908,363.896,221.167,364.968,219.654z"/>
			<path opacity="0.6" fill="#E2685B" d="M393.278,205.211c1.227,1.243,1.843,3.096,1.843,5.526c0,0.584-0.014,1.007-0.051,1.299
				l-0.855,11.177c-0.064,0.684-0.307,1.194-0.726,1.558c-0.416,0.363-0.959,0.54-1.632,0.54c-0.67,0-1.19-0.177-1.567-0.54
				c-0.371-0.364-0.534-0.874-0.479-1.558l0.87-10.953c0.03-0.202,0.048-0.516,0.048-0.92c0-2.946-1.421-4.433-4.266-4.433
				c-1.807,0-3.222,0.532-4.288,1.604c-1.058,1.082-1.657,2.58-1.804,4.482l-0.83,10.22c-0.056,0.684-0.295,1.194-0.715,1.558
				c-0.422,0.363-0.965,0.54-1.635,0.54c-0.666,0-1.182-0.177-1.541-0.54c-0.366-0.364-0.535-0.874-0.504-1.558l1.435-17.785
				c0.034-0.609,0.276-1.095,0.749-1.455c0.452-0.36,1.01-0.553,1.646-0.553c0.61,0,1.092,0.18,1.44,0.528
				c0.344,0.351,0.507,0.83,0.476,1.43l-0.132,1.529c0.729-1.131,1.708-2.007,2.938-2.625c1.237-0.625,2.619-0.948,4.155-0.948
				C390.233,203.333,392.04,203.961,393.278,205.211z"/>
			<path opacity="0.6" fill="#E2685B" d="M403.562,224.86c-1.336-0.361-2.479-0.858-3.438-1.461
				c-0.752-0.457-1.131-1.075-1.131-1.827c0-0.46,0.148-0.877,0.455-1.212c0.307-0.361,0.676-0.535,1.111-0.535
				c0.318,0,0.642,0.106,0.957,0.311c1.975,1.268,4.122,1.915,6.44,1.915c3.047,0,4.569-0.907,4.569-2.698
				c0-0.845-0.396-1.492-1.176-1.934c-0.782-0.454-2.001-0.904-3.655-1.379c-1.503-0.435-2.732-0.849-3.655-1.256
				c-0.928-0.416-1.728-1.007-2.392-1.796c-0.672-0.802-1.001-1.846-1.001-3.117c0-1.979,0.802-3.552,2.417-4.75
				c1.611-1.19,3.762-1.787,6.46-1.787c1.246,0,2.498,0.211,3.744,0.583c1.247,0.396,2.246,0.915,3,1.548
				c0.61,0.441,0.914,0.976,0.914,1.617c0,0.435-0.135,0.813-0.413,1.155c-0.276,0.33-0.625,0.498-1.066,0.498
				c-0.377,0-0.74-0.115-1.089-0.342c-1.708-1.138-3.48-1.697-5.307-1.697c-1.452,0-2.569,0.239-3.354,0.73
				c-0.781,0.494-1.173,1.222-1.173,2.179c0,0.845,0.386,1.486,1.156,1.909c0.766,0.441,1.979,0.895,3.63,1.349
				c1.511,0.438,2.727,0.864,3.654,1.271c0.935,0.395,1.728,1.006,2.397,1.803c0.661,0.798,0.999,1.843,0.999,3.161
				c0,1.964-0.796,3.506-2.395,4.63c-1.598,1.113-3.784,1.673-6.569,1.673C406.261,225.401,404.898,225.208,403.562,224.86z"/>
			<path opacity="0.6" fill="#E2685B" d="M464.874,211.905v11.308c0,0.684-0.203,1.194-0.608,1.558
				c-0.408,0.363-0.945,0.54-1.612,0.54c-0.642,0-1.162-0.177-1.564-0.54c-0.404-0.364-0.61-0.874-0.61-1.558v-11.258
				c0-1.772-0.323-3.052-0.956-3.845c-0.645-0.805-1.644-1.203-3.005-1.203c-1.596,0-2.859,0.535-3.79,1.62
				c-0.926,1.094-1.388,2.582-1.388,4.466v10.22c0,0.684-0.196,1.194-0.604,1.558c-0.408,0.363-0.942,0.54-1.621,0.54
				c-0.63,0-1.156-0.177-1.562-0.54c-0.405-0.364-0.607-0.874-0.607-1.558v-11.258c0-1.772-0.315-3.052-0.954-3.845
				c-0.645-0.805-1.643-1.203-3.005-1.203c-1.598,0-2.867,0.535-3.807,1.62c-0.942,1.094-1.418,2.582-1.418,4.466v10.22
				c0,0.684-0.2,1.194-0.603,1.558c-0.405,0.363-0.934,0.54-1.569,0.54c-0.642,0-1.174-0.177-1.587-0.54
				c-0.42-0.364-0.631-0.874-0.631-1.558v-17.692c0-0.637,0.217-1.156,0.65-1.535c0.436-0.367,0.956-0.565,1.567-0.565
				c0.604,0,1.105,0.192,1.499,0.553c0.389,0.36,0.588,0.858,0.588,1.492v1.617c0.639-1.216,1.52-2.145,2.653-2.782
				c1.134-0.631,2.439-0.966,3.911-0.966c1.629,0,2.972,0.338,4.035,1.013c1.049,0.653,1.846,1.685,2.369,3.081
				c0.633-1.25,1.575-2.235,2.827-2.98c1.247-0.749,2.668-1.113,4.263-1.113C462.499,203.333,464.874,206.199,464.874,211.905z"/>
			<path opacity="0.6" fill="#E2685B" d="M486.086,205.465c1.378,1.424,2.064,3.587,2.064,6.49v11.258
				c0,0.684-0.186,1.194-0.568,1.558c-0.374,0.363-0.895,0.54-1.562,0.54c-0.639,0-1.147-0.187-1.524-0.562
				c-0.377-0.382-0.565-0.889-0.565-1.536v-1.588c-0.552,1.206-1.371,2.147-2.46,2.794c-1.086,0.652-2.354,0.982-3.804,0.982
				c-1.393,0-2.67-0.289-3.832-0.858c-1.156-0.565-2.065-1.349-2.721-2.368c-0.652-1.007-0.979-2.151-0.979-3.388
				c0-1.535,0.402-2.754,1.199-3.634c0.802-0.885,2.118-1.511,3.958-1.893c1.841-0.373,4.376-0.569,7.595-0.569h1.001v-1.265
				c0-1.613-0.334-2.791-1.001-3.531c-0.667-0.712-1.739-1.081-3.219-1.081c-1.019,0-1.97,0.134-2.879,0.392
				c-0.895,0.26-1.876,0.646-2.954,1.131c-0.779,0.438-1.334,0.659-1.651,0.659c-0.439,0-0.791-0.162-1.069-0.485
				c-0.272-0.317-0.411-0.728-0.411-1.218c0-0.429,0.121-0.808,0.372-1.153c0.241-0.327,0.644-0.656,1.192-0.979
				c1.016-0.553,2.206-0.988,3.565-1.331c1.373-0.33,2.687-0.497,3.967-0.497C482.607,203.333,484.704,204.051,486.086,205.465z
				 M482.366,220.503c1.013-1.091,1.521-2.487,1.521-4.199v-1.138h-0.782c-2.262,0-4.003,0.115-5.222,0.314
				c-1.219,0.199-2.094,0.541-2.608,1.013c-0.531,0.498-0.788,1.175-0.788,2.077c0,1.038,0.38,1.896,1.135,2.561
				c0.751,0.668,1.693,0.995,2.824,0.995C480.042,222.125,481.351,221.597,482.366,220.503z"/>
			<path opacity="0.6" fill="#E2685B" d="M512.778,223.26c0,0.569-0.183,1.044-0.56,1.439c-0.383,0.414-0.836,0.612-1.356,0.612
				c-0.552,0-1.041-0.198-1.478-0.612l-10.835-9.561v8.049c0,0.691-0.202,1.219-0.607,1.583c-0.408,0.363-0.932,0.54-1.564,0.54
				c-0.642,0-1.171-0.177-1.593-0.54c-0.419-0.364-0.63-0.892-0.63-1.583V196.34c0-0.697,0.211-1.229,0.63-1.607
				c0.422-0.364,0.951-0.531,1.593-0.531c0.633,0,1.156,0.167,1.564,0.531c0.405,0.379,0.607,0.911,0.607,1.607v17.051l9.921-9.266
				c0.495-0.441,0.974-0.662,1.44-0.662c0.543,0,1.024,0.208,1.43,0.622c0.41,0.398,0.616,0.885,0.616,1.436
				c0,0.547-0.251,1.044-0.746,1.511l-7.743,7.103l8.525,7.519C512.52,222.098,512.778,222.622,512.778,223.26z"/>
			<path opacity="0.6" fill="#E2685B" d="M533.929,220.229c0.264,0.311,0.396,0.714,0.396,1.205c0,0.846-0.526,1.561-1.57,2.139
				c-1.019,0.572-2.124,1.02-3.331,1.34c-1.207,0.338-2.355,0.488-3.464,0.488c-3.359,0-6.019-0.982-7.957-2.941
				c-1.944-1.958-2.917-4.634-2.917-8.032c0-2.169,0.43-4.102,1.282-5.78c0.858-1.685,2.065-2.99,3.613-3.917
				c1.553-0.933,3.309-1.398,5.289-1.398c2.842,0,5.085,0.914,6.742,2.748c1.654,1.814,2.481,4.295,2.481,7.4
				c0,1.159-0.526,1.731-1.567,1.731h-13.443c0.29,4.507,2.447,6.751,6.477,6.751c1.083,0,2.009-0.149,2.788-0.436
				c0.788-0.289,1.607-0.672,2.482-1.128c0.09-0.065,0.332-0.184,0.717-0.382c0.395-0.177,0.715-0.28,0.979-0.28
				C533.332,219.738,533.667,219.9,533.929,220.229z M521.312,208.163c-1.021,1.079-1.627,2.586-1.829,4.528h11.227
				c-0.091-1.961-0.591-3.49-1.5-4.547c-0.917-1.056-2.2-1.594-3.854-1.594C523.67,206.55,522.325,207.1,521.312,208.163z"/>
			<path opacity="0.6" fill="#E2685B" d="M562.582,222.46c0.278,0.273,0.417,0.668,0.417,1.151c0,0.577-0.229,1.031-0.684,1.336
				c-0.442,0.304-1.104,0.417-1.979,0.363l-1.17-0.09c-2.35-0.171-4.103-0.889-5.265-2.147c-1.162-1.266-1.739-3.137-1.739-5.598
				v-10.22h-2.616c-1.274,0-1.913-0.56-1.913-1.707c0-0.525,0.166-0.929,0.501-1.237c0.329-0.295,0.805-0.46,1.412-0.46h2.616
				v-4.473c0-0.665,0.191-1.193,0.586-1.582c0.388-0.357,0.92-0.55,1.589-0.55c0.667,0,1.202,0.193,1.609,0.55
				c0.405,0.388,0.611,0.917,0.611,1.582v4.473h4.302c0.61,0,1.086,0.165,1.415,0.46c0.332,0.308,0.501,0.712,0.501,1.237
				c0,0.56-0.169,0.989-0.501,1.265c-0.329,0.292-0.805,0.441-1.415,0.441h-4.302v10.524c0,1.361,0.275,2.362,0.844,3.012
				c0.565,0.637,1.43,0.998,2.586,1.084l1.224,0.087C561.848,222.023,562.31,222.188,562.582,222.46z"/>
			<path opacity="0.6" fill="#E2685B" d="M585.227,211.905v11.308c0,0.646-0.197,1.153-0.603,1.536
				c-0.411,0.375-0.945,0.562-1.615,0.562c-0.666,0-1.198-0.187-1.587-0.562c-0.394-0.382-0.591-0.889-0.591-1.536v-11.258
				c0-1.747-0.354-3.015-1.063-3.823c-0.717-0.817-1.814-1.225-3.322-1.225c-1.772,0-3.196,0.554-4.271,1.647
				c-1.072,1.113-1.604,2.586-1.604,4.438v10.22c0,0.646-0.2,1.153-0.591,1.536c-0.395,0.375-0.923,0.562-1.587,0.562
				c-0.67,0-1.204-0.187-1.612-0.562c-0.402-0.382-0.607-0.889-0.607-1.536V196.29c0-0.634,0.208-1.15,0.63-1.522
				c0.419-0.386,0.957-0.566,1.629-0.566c0.636,0,1.153,0.167,1.548,0.531c0.391,0.379,0.591,0.854,0.591,1.477v10.873
				c0.723-1.216,1.69-2.145,2.909-2.782c1.218-0.631,2.613-0.966,4.176-0.966C582.702,203.333,585.227,206.199,585.227,211.905z"/>
			<path opacity="0.6" fill="#E2685B" d="M608.857,220.229c0.26,0.311,0.386,0.714,0.386,1.205c0,0.846-0.518,1.561-1.559,2.139
				c-1.016,0.572-2.13,1.02-3.328,1.34c-1.207,0.338-2.361,0.488-3.455,0.488c-3.374,0-6.03-0.982-7.966-2.941
				c-1.944-1.958-2.915-4.634-2.915-8.032c0-2.169,0.428-4.102,1.277-5.78c0.855-1.685,2.057-2.99,3.607-3.917
				c1.562-0.933,3.317-1.398,5.298-1.398c2.836,0,5.084,0.914,6.738,2.748c1.657,1.814,2.479,4.295,2.479,7.4
				c0,1.159-0.516,1.731-1.559,1.731h-13.446c0.281,4.507,2.444,6.751,6.485,6.751c1.066,0,1.991-0.149,2.776-0.436
				c0.782-0.289,1.609-0.672,2.479-1.128c0.087-0.065,0.326-0.184,0.723-0.382c0.391-0.177,0.715-0.28,0.982-0.28
				C608.265,219.738,608.599,219.9,608.857,220.229z M596.239,208.163c-1.019,1.079-1.624,2.586-1.823,4.528h11.221
				c-0.088-1.961-0.591-3.49-1.503-4.547c-0.914-1.056-2.197-1.594-3.849-1.594C598.605,206.55,597.257,207.1,596.239,208.163z"/>
			<path opacity="0.6" fill="#E2685B" d="M646.234,194.73c0.377,0.375,0.548,0.857,0.523,1.479l-2.133,27.003
				c-0.028,0.684-0.262,1.194-0.698,1.558c-0.434,0.363-0.968,0.54-1.609,0.54c-0.636,0-1.14-0.177-1.525-0.54
				c-0.374-0.364-0.534-0.874-0.475-1.558l0.087-1.336c-0.667,1.106-1.606,1.958-2.831,2.586c-1.218,0.625-2.549,0.939-4.001,0.939
				c-1.772,0-3.345-0.423-4.724-1.237c-1.373-0.83-2.439-2.014-3.196-3.549c-0.751-1.542-1.131-3.332-1.131-5.402
				c0-2.349,0.422-4.417,1.263-6.216c0.845-1.8,2.026-3.202,3.546-4.178c1.52-0.988,3.27-1.485,5.25-1.485
				c1.559,0,2.94,0.335,4.128,0.979c1.187,0.658,2.112,1.594,2.779,2.812l0.875-11.009c0.022-0.619,0.265-1.082,0.695-1.436
				c0.436-0.354,0.977-0.525,1.609-0.525C645.339,194.155,645.857,194.341,646.234,194.73z M639.405,219.719
				c1.098-1.461,1.651-3.462,1.651-5.977c0-2.241-0.506-3.944-1.519-5.122c-1.021-1.178-2.474-1.756-4.354-1.756
				c-1.946,0-3.472,0.724-4.572,2.169c-1.103,1.455-1.648,3.444-1.648,5.968c0,2.191,0.515,3.91,1.542,5.11
				c1.03,1.2,2.471,1.796,4.327,1.796C636.777,221.908,638.3,221.187,639.405,219.719z"/>
			<path opacity="0.6" fill="#E2685B" d="M651.259,224.792c-0.391-0.36-0.562-0.867-0.495-1.579l1.433-17.748
				c0.03-0.671,0.278-1.166,0.74-1.517c0.455-0.348,1.004-0.528,1.609-0.528c0.633,0,1.145,0.18,1.524,0.528
				c0.377,0.351,0.546,0.845,0.521,1.517l-1.435,17.748c-0.065,0.737-0.307,1.262-0.74,1.604c-0.437,0.329-0.977,0.494-1.615,0.494
				C652.165,225.311,651.647,225.146,651.259,224.792z M653.11,198.459c-0.495-0.454-0.745-1.065-0.745-1.821
				c0-0.753,0.25-1.35,0.745-1.797c0.489-0.473,1.162-0.687,2.001-0.687c0.81,0,1.474,0.214,1.98,0.687
				c0.512,0.447,0.76,1.044,0.76,1.797c0,0.755-0.245,1.367-0.74,1.821c-0.495,0.473-1.162,0.703-2,0.703
				C654.272,199.162,653.6,198.932,653.11,198.459z"/>
			<path opacity="0.6" fill="#E2685B" d="M669.973,199.162c-0.737,0.809-1.185,2.018-1.328,3.618l-0.09,1.073h4.311
				c0.582,0,1.021,0.165,1.328,0.447c0.298,0.289,0.455,0.671,0.455,1.166c0,1.194-0.666,1.791-2,1.791h-4.353l-1.261,15.957
				c-0.031,0.712-0.273,1.219-0.723,1.579c-0.448,0.354-0.977,0.519-1.585,0.519c-0.613,0-1.119-0.165-1.521-0.519
				c-0.405-0.36-0.594-0.867-0.565-1.579l1.26-15.957h-2.565c-0.58,0-1.033-0.149-1.351-0.441c-0.324-0.276-0.484-0.674-0.484-1.175
				c0-0.578,0.181-1.019,0.529-1.327c0.354-0.295,0.853-0.46,1.522-0.46h2.61l0.043-0.56c0.467-5.572,3.463-8.525,9.009-8.867
				l0.911-0.056c1.537-0.081,2.308,0.429,2.308,1.526c0,0.557-0.16,0.973-0.479,1.258c-0.323,0.293-0.785,0.473-1.39,0.523
				l-1.185,0.093C671.847,197.888,670.71,198.348,669.973,199.162z"/>
			<path opacity="0.6" fill="#E2685B" d="M684.677,199.162c-0.74,0.809-1.182,2.018-1.325,3.618l-0.088,1.073h4.308
				c0.577,0,1.024,0.165,1.325,0.447c0.302,0.289,0.459,0.671,0.459,1.166c0,1.194-0.67,1.791-2,1.791h-4.354l-1.263,15.957
				c-0.028,0.712-0.273,1.219-0.718,1.579c-0.456,0.354-0.979,0.519-1.587,0.519c-0.607,0-1.114-0.165-1.522-0.519
				c-0.407-0.36-0.599-0.867-0.565-1.579l1.261-15.957h-2.565c-0.583,0-1.033-0.149-1.349-0.441
				c-0.32-0.276-0.486-0.674-0.486-1.175c0-0.578,0.183-1.019,0.526-1.327c0.349-0.295,0.855-0.46,1.52-0.46h2.616l0.045-0.56
				c0.459-5.572,3.461-8.525,9.004-8.867l0.92-0.056c1.533-0.081,2.302,0.429,2.302,1.526c0,0.557-0.16,0.973-0.479,1.258
				c-0.318,0.293-0.785,0.473-1.393,0.523l-1.174,0.093C686.553,197.888,685.419,198.348,684.677,199.162z"/>
			<path opacity="0.6" fill="#E2685B" d="M709.262,214.759c-0.304,0.311-0.715,0.454-1.24,0.454h-13.534
				c0.031,2.158,0.583,3.817,1.654,4.986c1.072,1.175,2.623,1.766,4.657,1.766c2.028,0,3.922-0.584,5.655-1.734
				c0.32-0.211,0.642-0.311,0.956-0.311c0.414,0,0.737,0.162,0.999,0.482c0.265,0.311,0.402,0.69,0.402,1.128
				c0,0.671-0.295,1.237-0.875,1.685c-0.782,0.646-1.868,1.175-3.244,1.579c-1.376,0.404-2.76,0.61-4.155,0.61
				c-2.085,0-3.914-0.423-5.481-1.266c-1.572-0.835-2.776-2.038-3.635-3.615c-0.855-1.566-1.283-3.381-1.283-5.442
				c0-2.278,0.444-4.33,1.328-6.108c0.881-1.788,2.124-3.177,3.717-4.152c1.598-0.988,3.438-1.485,5.531-1.485
				c2.901,0,5.13,0.87,6.683,2.604c1.548,1.716,2.321,4.221,2.321,7.491C709.718,214.019,709.568,214.454,709.262,214.759z
				 M696.665,208.132c-1.049,1.041-1.71,2.559-2,4.56h11.218c0.067-2.001-0.346-3.519-1.229-4.56
				c-0.89-1.05-2.145-1.582-3.768-1.582C699.119,206.55,697.709,207.082,696.665,208.132z"/>
			<path opacity="0.6" fill="#E2685B" d="M727.888,203.768c0.327,0.292,0.496,0.715,0.496,1.256c0,1.336-0.727,2.076-2.178,2.182
				l-1.168,0.126c-2.004,0.212-3.495,0.799-4.463,1.745c-0.971,0.96-1.527,2.371-1.674,4.223l-0.827,9.912
				c-0.06,0.737-0.307,1.262-0.737,1.604c-0.438,0.329-0.977,0.494-1.615,0.494c-0.636,0-1.15-0.165-1.544-0.519
				c-0.389-0.36-0.555-0.867-0.504-1.579l1.438-17.785c0.031-0.646,0.278-1.128,0.746-1.479c0.467-0.348,0.998-0.528,1.609-0.528
				c0.579,0,1.044,0.167,1.387,0.496c0.349,0.339,0.51,0.834,0.484,1.461l-0.136,1.784c1.449-2.226,3.745-3.465,6.88-3.699
				l0.479-0.042C727.108,203.358,727.554,203.482,727.888,203.768z"/>
			<path opacity="0.6" fill="#E2685B" d="M747.772,214.759c-0.302,0.311-0.724,0.454-1.244,0.454h-13.53
				c0.027,2.158,0.579,3.817,1.651,4.986c1.077,1.175,2.625,1.766,4.659,1.766c2.028,0,3.919-0.584,5.652-1.734
				c0.324-0.211,0.639-0.311,0.957-0.311c0.41,0,0.745,0.162,1.007,0.482c0.256,0.311,0.389,0.69,0.389,1.128
				c0,0.671-0.287,1.237-0.875,1.685c-0.779,0.646-1.862,1.175-3.238,1.579c-1.37,0.404-2.761,0.61-4.15,0.61
				c-2.091,0-3.919-0.423-5.486-1.266c-1.564-0.835-2.774-2.038-3.636-3.615c-0.855-1.566-1.283-3.381-1.283-5.442
				c0-2.278,0.445-4.33,1.328-6.108c0.887-1.788,2.128-3.177,3.723-4.152c1.596-0.988,3.441-1.485,5.526-1.485
				c2.897,0,5.129,0.87,6.68,2.604c1.55,1.716,2.323,4.221,2.323,7.491C748.225,214.019,748.076,214.454,747.772,214.759z
				 M735.167,208.132c-1.041,1.041-1.702,2.559-1.992,4.56h11.227c0.054-2.001-0.357-3.519-1.238-4.56
				c-0.889-1.05-2.144-1.582-3.768-1.582C737.626,206.55,736.22,207.082,735.167,208.132z"/>
			<path opacity="0.6" fill="#E2685B" d="M770.312,205.211c1.229,1.243,1.846,3.096,1.846,5.526c0,0.584-0.011,1.007-0.039,1.299
				l-0.875,11.177c-0.057,0.684-0.295,1.194-0.718,1.558c-0.419,0.363-0.959,0.54-1.632,0.54c-0.664,0-1.189-0.177-1.559-0.54
				c-0.386-0.364-0.546-0.874-0.483-1.558l0.869-10.953c0.031-0.202,0.045-0.516,0.045-0.92c0-2.946-1.421-4.433-4.269-4.433
				c-1.795,0-3.222,0.532-4.282,1.604c-1.063,1.082-1.657,2.58-1.804,4.482l-0.835,10.22c-0.051,0.684-0.293,1.194-0.712,1.558
				c-0.425,0.363-0.963,0.54-1.635,0.54c-0.664,0-1.174-0.177-1.539-0.54c-0.363-0.364-0.529-0.874-0.498-1.558l1.432-17.785
				c0.028-0.609,0.279-1.095,0.74-1.455c0.462-0.36,1.016-0.553,1.651-0.553c0.613,0,1.086,0.18,1.436,0.528
				c0.346,0.351,0.512,0.83,0.483,1.43l-0.138,1.529c0.729-1.131,1.705-2.007,2.94-2.625c1.235-0.625,2.619-0.948,4.155-0.948
				C767.273,203.333,769.077,203.961,770.312,205.211z"/>
			<path opacity="0.6" fill="#E2685B" d="M781.555,224.136c-1.536-0.835-2.726-2.036-3.567-3.59
				c-0.838-1.554-1.261-3.362-1.261-5.408c0-2.388,0.448-4.463,1.348-6.235c0.9-1.771,2.195-3.133,3.878-4.109
				c1.683-0.97,3.654-1.46,5.917-1.46c1.396,0,2.701,0.193,3.936,0.575c1.232,0.374,2.243,0.87,3.028,1.47
				c0.548,0.382,0.821,0.917,0.821,1.62c0,0.481-0.149,0.923-0.453,1.309c-0.304,0.366-0.678,0.556-1.111,0.556
				c-0.262,0-0.532-0.086-0.821-0.264c-1.72-1.159-3.47-1.734-5.268-1.734c-2.152,0-3.801,0.724-4.96,2.169
				c-1.165,1.455-1.742,3.48-1.742,6.104c0,2.114,0.518,3.773,1.564,4.955c1.047,1.193,2.538,1.784,4.485,1.784
				c0.953,0,1.831-0.136,2.628-0.411c0.799-0.279,1.59-0.708,2.372-1.287c0.349-0.18,0.655-0.261,0.92-0.261
				c0.405,0,0.734,0.162,0.996,0.482c0.259,0.311,0.391,0.69,0.391,1.128c0,0.699-0.262,1.212-0.785,1.563
				c-0.811,0.737-1.831,1.296-3.066,1.7c-1.227,0.404-2.516,0.61-3.853,0.61C784.895,225.401,783.1,224.979,781.555,224.136z"/>
			<path opacity="0.6" fill="#E2685B" d="M816.869,214.759c-0.302,0.311-0.718,0.454-1.235,0.454h-13.539
				c0.028,2.158,0.579,3.817,1.657,4.986c1.072,1.175,2.619,1.766,4.653,1.766c2.026,0,3.917-0.584,5.652-1.734
				c0.324-0.211,0.645-0.311,0.963-0.311c0.405,0,0.74,0.162,0.996,0.482c0.265,0.311,0.396,0.69,0.396,1.128
				c0,0.671-0.293,1.237-0.872,1.685c-0.785,0.646-1.865,1.175-3.244,1.579c-1.373,0.404-2.761,0.61-4.153,0.61
				c-2.085,0-3.916-0.423-5.489-1.266c-1.553-0.835-2.771-2.038-3.63-3.615c-0.852-1.566-1.285-3.381-1.285-5.442
				c0-2.278,0.45-4.33,1.328-6.108c0.889-1.788,2.127-3.177,3.728-4.152c1.596-0.988,3.438-1.485,5.523-1.485
				c2.9,0,5.121,0.87,6.68,2.604c1.55,1.716,2.326,4.221,2.326,7.491C817.324,214.019,817.176,214.454,816.869,214.759z
				 M804.272,208.132c-1.047,1.041-1.714,2.559-2.004,4.56h11.229c0.054-2.001-0.354-3.519-1.238-4.56
				c-0.886-1.05-2.141-1.582-3.767-1.582C806.726,206.55,805.322,207.082,804.272,208.132z"/>
		</g>
		<g>
			<path fill="#E2685B" d="M282.171,162.868c0,1.305-0.498,2.455-1.494,3.454c-0.996,0.991-2.175,1.485-3.542,1.485
				c-1.424,0-2.734-0.591-3.928-1.784l-28.429-26.641v23.048c0,1.656-0.495,2.989-1.494,4.009c-0.993,1.031-2.347,1.535-4.052,1.535
				c-1.654,0-2.977-0.503-3.97-1.535c-0.999-1.02-1.494-2.354-1.494-4.009v-50.107c0-1.654,0.495-2.975,1.494-3.966
				c0.993-0.995,2.315-1.501,3.97-1.501c1.705,0,3.059,0.506,4.052,1.501c0.999,0.991,1.494,2.312,1.494,3.966v21.943l27.491-25.782
				c1.027-1.032,2.187-1.547,3.498-1.547c1.306,0,2.462,0.516,3.461,1.495c0.993,0.998,1.488,2.154,1.488,3.463
				c0,1.308-0.563,2.501-1.708,3.589l-22.959,20.993l24.41,22.711C281.603,160.267,282.171,161.491,282.171,162.868z"/>
			<path fill="#E2685B" d="M348.59,163.123c0,1.302-0.532,2.412-1.584,3.317c-1.053,0.91-2.263,1.367-3.627,1.367
				c-0.909,0-1.768-0.236-2.561-0.722c-0.799-0.478-1.424-1.236-1.88-2.262l-5.12-11.438h-30.047l-5.127,11.438
				c-0.455,1.026-1.08,1.784-1.871,2.262c-0.796,0.485-1.683,0.722-2.653,0.722c-1.305,0-2.501-0.457-3.581-1.367
				c-1.083-0.905-1.621-2.015-1.621-3.317c0-0.743,0.166-1.482,0.513-2.226l23.558-50.632c0.513-1.128,1.295-1.998,2.35-2.595
				c1.053-0.597,2.178-0.892,3.368-0.892c1.198,0,2.315,0.295,3.376,0.892c1.047,0.597,1.835,1.467,2.347,2.595l23.643,50.632
				C348.418,161.641,348.59,162.38,348.59,163.123z M307.524,144.856h22.534l-11.266-25.363L307.524,144.856z"/>
			<path fill="#E2685B" d="M410.562,163.542c0,1.312-0.526,2.394-1.579,3.242c-1.058,0.861-2.296,1.284-3.711,1.284
				c-0.914,0-1.781-0.215-2.608-0.644c-0.824-0.426-1.521-1.069-2.087-1.918l-11.359-17.244c-1.137-1.821-2.344-3.099-3.624-3.848
				c-1.282-0.733-2.945-1.103-4.996-1.103h-8.365v19.119c0,1.709-0.484,3.064-1.455,4.059c-0.962,0.994-2.275,1.485-3.928,1.485
				c-1.646,0-2.965-0.491-3.967-1.485c-0.993-0.995-1.491-2.35-1.491-4.059v-49.937c0-1.647,0.473-2.934,1.404-3.848
				c0.939-0.901,2.239-1.362,3.888-1.362h21.342c6.828,0,12.025,1.526,15.582,4.569c3.551,3.043,5.331,7.438,5.331,13.185
				c0,4.675-1.322,8.495-3.973,11.485c-2.642,2.981-6.387,4.908-11.227,5.766c1.655,0.392,3.104,1.113,4.358,2.126
				c1.25,1.026,2.479,2.455,3.675,4.271l7.76,11.873C410.222,161.572,410.562,162.573,410.562,163.542z M395.622,132.518
				c1.933-1.573,2.9-3.97,2.9-7.218c0-3.3-0.968-5.694-2.9-7.21c-1.938-1.511-4.978-2.27-9.133-2.27h-14.344v19.034h14.344
				C390.645,134.854,393.684,134.078,395.622,132.518z"/>
			<path fill="#E2685B" d="M482.532,108.357c0.959,0.991,1.443,2.312,1.443,3.966v50.545c0,1.588-0.456,2.838-1.368,3.749
				c-0.908,0.91-2.104,1.357-3.578,1.357c-1.483,0-2.648-0.447-3.501-1.357c-0.857-0.911-1.279-2.161-1.279-3.749v-35.181
				l-14.516,27.488c-0.684,1.256-1.424,2.179-2.22,2.776c-0.8,0.594-1.736,0.898-2.817,0.898c-1.08,0-2.022-0.283-2.818-0.861
				c-0.794-0.562-1.534-1.495-2.215-2.813l-14.603-27.059v34.752c0,1.52-0.439,2.77-1.316,3.702
				c-0.89,0.945-2.071,1.405-3.546,1.405c-1.485,0-2.647-0.447-3.5-1.357c-0.858-0.911-1.286-2.161-1.286-3.749v-50.545
				c0-1.654,0.474-2.975,1.416-3.966c0.934-0.995,2.203-1.501,3.792-1.501c2.224,0,3.962,1.23,5.206,3.667l18.958,36.117
				l18.865-36.117c1.252-2.437,2.926-3.667,5.036-3.667C480.278,106.856,481.559,107.363,482.532,108.357z"/>
			<path fill="#E2685B" d="M556.62,163.123c0,1.302-0.521,2.412-1.575,3.317c-1.056,0.91-2.26,1.367-3.627,1.367
				c-0.912,0-1.768-0.236-2.563-0.722c-0.802-0.478-1.418-1.236-1.882-2.262l-5.115-11.438h-30.05l-5.124,11.438
				c-0.455,1.026-1.08,1.784-1.879,2.262c-0.794,0.485-1.677,0.722-2.645,0.722c-1.303,0-2.505-0.457-3.588-1.367
				c-1.077-0.905-1.615-2.015-1.615-3.317c0-0.743,0.166-1.482,0.507-2.226l23.559-50.632c0.512-1.128,1.3-1.998,2.352-2.595
				c1.053-0.597,2.178-0.892,3.371-0.892s2.318,0.295,3.374,0.892c1.052,0.597,1.834,1.467,2.344,2.595l23.65,50.632
				C556.448,161.641,556.62,162.38,556.62,163.123z M515.561,144.856h22.535l-11.264-25.363L515.561,144.856z"/>
		</g>
	</g>
</g>
</svg>
