<?xml version="1.0" encoding="utf-8"?>
<!-- Generator: Adobe Illustrator 16.0.0, SVG Export Plug-In . SVG Version: 6.00 Build 0)  -->
<!DOCTYPE svg PUBLIC "-//W3C//DTD SVG 1.1//EN" "http://www.w3.org/Graphics/SVG/1.1/DTD/svg11.dtd">
<svg version="1.1" xmlns="http://www.w3.org/2000/svg" xmlns:xlink="http://www.w3.org/1999/xlink" x="0px" y="0px" width="300px"
	 height="300px" viewBox="0 0 300 300" enable-background="new 0 0 300 300" xml:space="preserve">
<g id="Calque_1">
</g>
<g id="Calque_2">
</g>
<g id="icons">
</g>
<g id="svg">
</g>
<g id="bg">
</g>
<g id="ui">
	<path fill="#F9ECD7" d="M170.309,27.324c-10.117-15.186-20.113-25.207-20.535-25.626c-0.617-0.616-1.461-0.961-2.338-0.957
		c-0.877,0.005-1.721,0.361-2.348,0.987c-0.42,0.426-10.484,10.578-20.701,25.897c-3.641,5.453-6.832,10.882-9.559,16.222
		c-0.02,0.035-0.037,0.07-0.055,0.107c-1.764,3.462-3.33,6.885-4.688,10.258c-1.658,4.127-3.008,8.182-4.053,12.151
		c-0.033,0.117-0.059,0.233-0.084,0.354c-1.652,6.39-2.496,12.562-2.512,18.443c-0.039,11.68,4.471,22.631,12.701,30.832
		c7.449,7.424,17.135,11.796,27.566,12.505l0.266,42.423c-0.006,1.827,0.648,0.34,2.48,0.328c0.916-0.007,2.125,0.437,2.727-0.17
		c0.604-0.602,1.484,0.762,1.486-0.154l-0.338-42.473c10.432-0.842,20.146-5.34,27.645-12.864
		c8.287-8.312,12.873-19.321,12.91-30.999c0.02-5.885-0.785-12.044-2.391-18.414c-0.021-0.117-0.053-0.236-0.088-0.354
		c-1.014-3.957-2.34-7.994-3.969-12.1c-1.338-3.357-2.883-6.766-4.625-10.203c-0.016-0.031-0.029-0.061-0.043-0.089
		C177.072,38.124,173.914,32.735,170.309,27.324z M129.814,31.371c6.988-10.496,14.049-18.621,17.594-22.497
		c3.525,3.829,10.529,11.866,17.451,22.267c2.596,3.909,5.34,8.398,7.922,13.295l-22.252,22.32l0.09-27.245
		c0.008-1.831-1.471-3.302-3.301-3.292c-1.83,0.012-3.316,1.506-3.322,3.334l-0.09,27.244l-22.102-22.028
		C124.414,39.841,127.188,35.314,129.814,31.371z M181.523,65.866L150.43,97.064l0.072-20.941l25.361-25.447
		C178.086,55.498,180.055,60.608,181.523,65.866z M118.678,51.051l25.195,25.115l-0.068,20.941L112.916,66.32
		C114.424,61.038,116.428,55.902,118.678,51.051z M120.836,111.283c-6.98-6.963-10.811-16.252-10.775-26.162
		c0.012-3.734,0.395-7.477,1.066-11.183l32.648,32.536l-0.053,15.377C135.066,121.145,127.039,117.461,120.836,111.283z
		 M184.258,84.633c-0.033,9.91-3.924,19.25-10.955,26.305c-6.24,6.262-14.293,10.051-22.953,10.871l0.051-15.375l32.861-32.973
		C183.91,77.161,184.27,80.899,184.258,84.633z"/>
	<g opacity="0.6">
		<g>
			<path fill="#F9ECD7" d="M119.82,211.605c-6.393,0-11.564-5.172-11.564-11.564c0-6.394,5.172-11.564,11.564-11.564
				s11.566,5.171,11.566,11.564C131.387,206.434,126.213,211.605,119.82,211.605z M119.82,193.934c-3.375,0-6.105,2.73-6.105,6.107
				c0,3.376,2.73,6.106,6.105,6.106s6.105-2.73,6.105-6.106C125.926,196.664,123.195,193.934,119.82,193.934z"/>
		</g>
		<g>
			<path fill="#F9ECD7" d="M176.855,211.605c-6.391,0-11.562-5.172-11.562-11.564c0-6.394,5.172-11.564,11.562-11.564
				c6.393,0,11.566,5.171,11.566,11.564C188.422,206.434,183.248,211.605,176.855,211.605z M176.855,193.934
				c-3.375,0-6.105,2.73-6.105,6.107c0,3.376,2.73,6.106,6.105,6.106s6.107-2.73,6.107-6.106
				C182.963,196.664,180.23,193.934,176.855,193.934z"/>
		</g>
		<g>
			<path fill="#F9ECD7" d="M185.691,186.105h-75.785c-1.146,0-2.154-0.721-2.584-1.725l-25.861-67.522H65.227
				c-1.508,0-2.729-1.221-2.729-2.729c0-1.508,1.221-2.73,2.729-2.73h18.176c1.15,0,2.154,0.719,2.586,1.726l25.93,67.522h73.918
				c1.51,0,2.73,1.221,2.73,2.729C188.422,184.884,187.201,186.105,185.691,186.105z"/>
		</g>
		<g>
			<path fill="#F9ECD7" d="M172.664,172.65c-1.006-0.395-1.773-1.39-1.75-2.617l0.484-42.102c0.059-1.521,1.234-2.756,2.756-2.699
				c1.521,0.059,2.76,1.236,2.701,2.758l-0.486,42.104c-0.061,1.52-1.238,2.753-2.76,2.697
				C173.289,172.818,172.996,172.78,172.664,172.65z"/>
		</g>
		<g>
			<path fill="#F9ECD7" d="M186.48,174.398h-80.883c-1.508,0-2.729-1.224-2.729-2.732c0-1.508,1.221-2.729,2.729-2.729h78.945
				l14.078-40.225H88.43c-1.51,0-2.729-1.223-2.729-2.732c0-1.508,1.219-2.729,2.729-2.729H202.5c0.861,0,1.721,0.432,2.227,1.149
				c0.504,0.718,0.648,1.652,0.359,2.515l-16.02,45.684C188.709,173.678,187.631,174.398,186.48,174.398z"/>
		</g>
		<g>
			<path fill="#F9ECD7" d="M118.6,172.65c-1.004-0.395-1.771-1.39-1.75-2.617l0.486-42.102c0.057-1.521,1.236-2.756,2.756-2.699
				c1.52,0.059,2.758,1.236,2.699,2.758l-0.488,42.104c-0.057,1.52-1.234,2.753-2.756,2.697
				C119.227,172.818,118.932,172.78,118.6,172.65z"/>
		</g>
	</g>
	<g>
		<path fill="#F9ECD7" d="M82.49,261.208c0,0.747-0.284,1.404-0.852,1.972c-0.568,0.567-1.239,0.852-2.021,0.852
			c-0.81,0-1.555-0.341-2.236-1.022l-16.194-15.176v13.134c0,0.939-0.287,1.701-0.854,2.285c-0.567,0.584-1.337,0.876-2.311,0.876
			c-0.939,0-1.693-0.292-2.261-0.876s-0.852-1.346-0.852-2.285v-28.553c0-0.939,0.284-1.693,0.852-2.261
			c0.567-0.568,1.321-0.852,2.261-0.852c0.974,0,1.743,0.283,2.311,0.852c0.566,0.567,0.854,1.321,0.854,2.261v12.501l15.66-14.688
			c0.582-0.584,1.249-0.875,1.994-0.875c0.746,0,1.401,0.283,1.97,0.851c0.567,0.567,0.852,1.224,0.852,1.97
			s-0.324,1.428-0.973,2.043l-13.084,11.964l13.911,12.938C82.164,259.733,82.49,260.431,82.49,261.208z"/>
		<path fill="#F9ECD7" d="M120.866,261.356c0,0.744-0.3,1.377-0.9,1.896c-0.6,0.52-1.288,0.779-2.066,0.779
			c-0.521,0-1.006-0.14-1.461-0.415c-0.452-0.275-0.81-0.704-1.069-1.288l-2.919-6.52H95.33l-2.917,6.52
			c-0.26,0.584-0.617,1.013-1.072,1.288c-0.452,0.275-0.955,0.415-1.507,0.415c-0.745,0-1.427-0.26-2.042-0.779
			c-0.618-0.519-0.925-1.151-0.925-1.896c0-0.423,0.098-0.844,0.291-1.267l13.426-28.842c0.291-0.649,0.737-1.144,1.337-1.484
			c0.601-0.341,1.24-0.511,1.922-0.511s1.321,0.17,1.921,0.511c0.601,0.341,1.046,0.835,1.337,1.484l13.475,28.842
			C120.77,260.513,120.866,260.934,120.866,261.356z M97.472,250.947h12.841l-6.422-14.447L97.472,250.947z"/>
		<path fill="#F9ECD7" d="M156.712,261.598c0,0.748-0.301,1.361-0.9,1.849c-0.6,0.485-1.306,0.73-2.115,0.73
			c-0.519,0-1.013-0.122-1.482-0.366c-0.47-0.242-0.869-0.606-1.193-1.094l-6.469-9.826c-0.648-1.037-1.337-1.765-2.066-2.188
			c-0.73-0.42-1.679-0.631-2.846-0.631h-4.768v10.896c0,0.973-0.275,1.743-0.827,2.309c-0.549,0.568-1.297,0.853-2.237,0.853
			c-0.939,0-1.693-0.284-2.261-0.853c-0.567-0.565-0.852-1.336-0.852-2.309v-28.454c0-0.94,0.267-1.671,0.803-2.189
			s1.273-0.778,2.213-0.778h12.159c3.892,0,6.85,0.867,8.88,2.603c2.024,1.733,3.039,4.24,3.039,7.514
			c0,2.66-0.756,4.84-2.263,6.543c-1.509,1.703-3.64,2.798-6.396,3.284c0.939,0.226,1.765,0.632,2.479,1.214
			c0.713,0.585,1.41,1.396,2.092,2.434l4.425,6.761C156.518,260.479,156.712,261.049,156.712,261.598z M148.201,243.916
			c1.101-0.891,1.654-2.26,1.654-4.109c0-1.879-0.554-3.249-1.654-4.108c-1.104-0.858-2.84-1.29-5.204-1.29h-8.171v10.848h8.171
			C145.361,245.256,147.098,244.811,148.201,243.916z"/>
		<path fill="#F9ECD7" d="M198.251,230.153c0.549,0.567,0.825,1.321,0.825,2.261v28.794c0,0.91-0.261,1.623-0.777,2.142
			c-0.521,0.517-1.199,0.778-2.045,0.778c-0.843,0-1.507-0.262-1.991-0.778c-0.488-0.519-0.732-1.231-0.732-2.142V241.17
			l-8.269,15.663c-0.389,0.712-0.81,1.239-1.264,1.579c-0.452,0.341-0.988,0.512-1.604,0.512c-0.617,0-1.151-0.163-1.605-0.487
			s-0.876-0.859-1.265-1.604l-8.318-15.42v19.795c0,0.877-0.252,1.583-0.752,2.117c-0.506,0.536-1.176,0.803-2.021,0.803
			c-0.842,0-1.506-0.262-1.991-0.778c-0.488-0.519-0.73-1.231-0.73-2.142v-28.794c0-0.939,0.267-1.693,0.803-2.261
			c0.534-0.568,1.256-0.852,2.164-0.852c1.265,0,2.255,0.698,2.968,2.091l10.798,20.574l10.75-20.574
			c0.713-1.393,1.668-2.091,2.87-2.091C196.969,229.302,197.697,229.585,198.251,230.153z"/>
		<path fill="#F9ECD7" d="M241.003,261.356c0,0.744-0.3,1.377-0.902,1.896c-0.598,0.52-1.288,0.779-2.066,0.779
			c-0.519,0-1.007-0.14-1.459-0.415c-0.454-0.275-0.812-0.704-1.069-1.288l-2.919-6.52h-17.12l-2.919,6.52
			c-0.261,0.584-0.618,1.013-1.07,1.288c-0.454,0.275-0.957,0.415-1.507,0.415c-0.747,0-1.429-0.26-2.042-0.779
			c-0.618-0.519-0.927-1.151-0.927-1.896c0-0.423,0.1-0.844,0.291-1.267l13.428-28.842c0.291-0.649,0.737-1.144,1.335-1.484
			c0.6-0.341,1.24-0.511,1.922-0.511s1.323,0.17,1.921,0.511c0.6,0.341,1.048,0.835,1.339,1.484l13.473,28.842
			C240.903,260.513,241.003,260.934,241.003,261.356z M217.606,250.947h12.841l-6.42-14.447L217.606,250.947z"/>
	</g>
	<rect x="-12.841" y="279.143" fill="none" width="320" height="101.334"/>
	<text transform="matrix(1 0 0 1 13.3574 291.9404)"><tspan x="0" y="0" fill="#F9ECD7" font-family="'Nunito-Regular'" font-size="18" letter-spacing="1">our </tspan><tspan x="35.693" y="0" fill="#F9ECD7" font-family="'Nunito-Italic'" font-size="18" letter-spacing="1">actions </tspan><tspan x="106.864" y="0" fill="#F9ECD7" font-family="'Nunito-Regular'" font-size="18" letter-spacing="1">make a </tspan><tspan x="177.118" y="0" fill="#F9ECD7" font-family="'Nunito-Italic'" font-size="18" letter-spacing="1">difference</tspan></text>
</g>
</svg>
