<?xml version="1.0" encoding="utf-8"?>
<!-- Generator: Adobe Illustrator 16.0.0, SVG Export Plug-In . SVG Version: 6.00 Build 0)  -->
<!DOCTYPE svg PUBLIC "-//W3C//DTD SVG 1.1//EN" "http://www.w3.org/Graphics/SVG/1.1/DTD/svg11.dtd">
<svg version="1.1" xmlns="http://www.w3.org/2000/svg" xmlns:xlink="http://www.w3.org/1999/xlink" x="0px" y="0px" width="100px"
	 height="100px" viewBox="0 0 100 100" enable-background="new 0 0 100 100" xml:space="preserve">
<g id="Calque_1" display="none">
</g>
<g id="Calque_2">
</g>
<g id="icons">
</g>
<g id="svg">
</g>
<g id="bg">
</g>
<g id="ui">
	<g>
		<g id="contact_16_">
			<g>
				<g>
					<g>
						<path fill="#d0ad8e" d="M70.678,2.042c-0.427,0-0.749,0-1.072,0c-3.682,0-7.34,0.088-10.995-0.029
							c-3.332-0.087-6.573,0.272-9.771,1.116c-3.745,1.001-6.641,3.087-8.457,6.573c-1.694,3.213-2.34,6.66-2.427,10.242
							c-0.063,3.365,0,6.738,0,10.098c0,0.533,0.018,1.097,0,1.631c-0.069,1.611-0.098,1.641-1.699,1.641c-3.102,0-6.185,0-9.272,0
							c-0.892,0-1.331,0.533-1.205,1.418c0.064,0.519,0.165,1.058,0.165,1.588c0.011,4.236,0,8.47,0,12.722c0,0.321,0,0.646,0,1.024
							c4.011,0,7.879,0,11.836,0c0,15.965,0,31.85,0,47.742c6.112,0,12.127,0,18.223,0c0-15.951,0-31.85,0-47.791
							c4.407,0,8.7,0,13.049,0c0.593-5.591,1.154-11.131,1.747-16.732c-4.976,0-9.869,0-14.737,0
							c-0.059-0.126-0.087-0.185-0.087-0.185c0.059-3.703,0.087-7.369,0.179-11.009c0.034-1.33,1.258-2.758,2.588-2.941
							c1.977-0.263,3.98-0.438,5.967-0.544c1.733-0.088,3.455-0.029,5.188-0.016c0.506,0,0.808-0.102,0.808-0.694
							C70.678,12.653,70.678,7.421,70.678,2.042z"/>
						<path fill="#d0ad8e" d="M70.678,2.042c0,5.379,0,10.611,0.025,15.854c0,0.593-0.302,0.694-0.808,0.694
							c-1.732-0.014-3.454-0.072-5.188,0.016c-1.995,0.106-3.99,0.281-5.967,0.544c-1.33,0.184-2.554,1.611-2.588,2.941
							c-0.092,3.649-0.131,7.306-0.179,10.955c0,0.063,0.028,0.112,0.087,0.238c4.868,0,9.762,0,14.737,0
							c-0.593,5.611-1.174,11.142-1.747,16.732c-4.349,0-8.642,0-13.049,0c0,15.941,0,31.84,0,47.791c-6.096,0-12.11,0-18.223,0
							c0-15.893,0-31.777,0-47.742c-3.957,0-7.825,0-11.836,0c0-0.369,0-0.703,0-1.024c0-4.252,0.006-8.485,0-12.722
							c0-0.53-0.101-1.069-0.165-1.588c-0.134-0.885,0.313-1.418,1.196-1.418c3.097,0,6.18,0,9.281,0
							c1.602,0,1.63-0.029,1.699-1.641c0-0.534,0-1.098,0-1.631c0-3.359-0.063-6.732,0-10.098c0.081-3.577,0.732-7.02,2.427-10.242
							c1.816-3.486,4.703-5.572,8.457-6.573c3.197-0.844,6.438-1.203,9.771-1.116c3.655,0.117,7.313,0.029,10.995,0.029
							C69.929,2.042,70.251,2.042,70.678,2.042z"/>
					</g>
				</g>
			</g>
		</g>
	</g>
</g>
</svg>
