<?xml version="1.0" encoding="utf-8"?>
<!-- Generator: Adobe Illustrator 16.0.0, SVG Export Plug-In . SVG Version: 6.00 Build 0)  -->
<!DOCTYPE svg PUBLIC "-//W3C//DTD SVG 1.1//EN" "http://www.w3.org/Graphics/SVG/1.1/DTD/svg11.dtd">
<svg version="1.1" xmlns="http://www.w3.org/2000/svg" xmlns:xlink="http://www.w3.org/1999/xlink" x="0px" y="0px" width="100px"
	 height="100px" viewBox="0 0 100 100" enable-background="new 0 0 100 100" xml:space="preserve">
<g id="Calque_1" display="none">
</g>
<g id="Calque_2">
</g>
<g id="icons">
</g>
<g id="svg">
</g>
<g id="bg">
</g>
<g id="ui">
	<g>
		<g id="contact_16_">
			<g>
				<g>
					<g>
						<path fill="#E2685B" d="M71.691,3.217c-0.41,0-0.719,0-1.039,0c-3.555,0-7.109,0.084-10.652-0.021
							c-3.215-0.091-6.363,0.26-9.461,1.075c-3.617,0.969-6.43,2.992-8.184,6.371c-1.645,3.112-2.262,6.449-2.348,9.913
							c-0.07,3.259,0,6.525,0,9.778c0,0.527,0.016,1.068,0,1.588c-0.07,1.56-0.098,1.588-1.656,1.588c-2.996,0-5.988,0-8.98,0
							c-0.855,0-1.277,0.513-1.164,1.362c0.07,0.506,0.16,1.025,0.16,1.546c0.02,4.103,0,8.205,0,12.321c0,0.316,0,0.626,0,0.991
							c3.887,0,7.637,0,11.473,0c0,15.462,0,30.847,0,46.231c5.906,0,11.73,0,17.645,0c0-15.434,0-30.84,0-46.281
							c4.273,0,8.418,0,12.633,0c0.574-5.416,1.117-10.776,1.699-16.199c-4.82,0-9.566,0-14.273,0
							c-0.059-0.127-0.086-0.176-0.086-0.176c0.059-3.59,0.086-7.145,0.168-10.671c0.031-1.293,1.223-2.67,2.504-2.846
							c1.922-0.26,3.863-0.428,5.785-0.526c1.676-0.084,3.348-0.028,5.02-0.014c0.488,0,0.785-0.099,0.785-0.675
							C71.691,13.494,71.691,8.429,71.691,3.217z"/>
						<path fill="#E2685B" d="M71.691,3.217c0,5.212,0,10.284,0.027,15.356c0,0.576-0.297,0.675-0.785,0.675
							c-1.672-0.015-3.344-0.07-5.02,0.014c-1.938,0.099-3.863,0.267-5.785,0.526c-1.281,0.176-2.473,1.553-2.504,2.846
							c-0.082,3.54-0.125,7.081-0.168,10.614c0,0.063,0.027,0.105,0.086,0.232c4.707,0,9.453,0,14.273,0
							c-0.582,5.431-1.137,10.783-1.699,16.199c-4.215,0-8.359,0-12.633,0c0,15.441,0,30.848,0,46.281c-5.914,0-11.738,0-17.645,0
							c0-15.385,0-30.77,0-46.231c-3.836,0-7.586,0-11.473,0c0-0.358,0-0.675,0-0.991c0-4.116,0.008-8.219,0-12.321
							c0-0.521-0.09-1.04-0.16-1.546c-0.129-0.85,0.309-1.362,1.164-1.362c2.992,0,5.984,0,8.98,0c1.559,0,1.586-0.028,1.656-1.588
							c0-0.52,0-1.061,0-1.588c0-3.253-0.07-6.52,0-9.778c0.07-3.457,0.703-6.794,2.348-9.913c1.754-3.379,4.551-5.402,8.184-6.371
							C53.637,3.455,56.785,3.104,60,3.195c3.543,0.105,7.098,0.021,10.652,0.021C70.973,3.217,71.281,3.217,71.691,3.217z"/>
					</g>
				</g>
			</g>
		</g>
	</g>
</g>
</svg>
