<?xml version="1.0" encoding="utf-8"?>
<!-- Generator: Adobe Illustrator 16.0.0, SVG Export Plug-In . SVG Version: 6.00 Build 0)  -->
<!DOCTYPE svg PUBLIC "-//W3C//DTD SVG 1.1//EN" "http://www.w3.org/Graphics/SVG/1.1/DTD/svg11.dtd">
<svg version="1.1" xmlns="http://www.w3.org/2000/svg" xmlns:xlink="http://www.w3.org/1999/xlink" x="0px" y="0px" width="100px"
	 height="100px" viewBox="0 0 100 100" enable-background="new 0 0 100 100" xml:space="preserve">
<g id="Calque_1" display="none">
</g>
<g id="Calque_2">
</g>
<g id="icons">
</g>
<g id="svg">
</g>
<g id="bg">
</g>
<g id="ui">
	<g>
		<g>
			<g>
				<g>
					<path fill="#F7F2EB" d="M86.436,71.681L74.648,59.894c-2.344-2.33-6.231-2.263-8.66,0.168l-5.934,5.93
						c-0.37-0.2-0.761-0.415-1.171-0.646c-3.75-2.071-8.88-4.925-14.278-10.328c-5.412-5.415-8.266-10.551-10.346-14.303
						c-0.219-0.391-0.434-0.782-0.643-1.155l3.986-3.973l1.957-1.967c2.432-2.422,2.496-6.306,0.164-8.66L27.936,13.186
						c-2.338-2.346-6.229-2.27-8.66,0.17l-3.322,3.335l0.089,0.08C14.928,18.191,14,19.835,13.307,21.6
						c-0.631,1.684-1.03,3.292-1.214,4.892c-1.56,12.905,4.333,24.694,20.333,40.681C54.537,89.28,72.354,87.624,73.125,87.541
						c1.672-0.204,3.279-0.599,4.907-1.237c1.755-0.687,3.387-1.612,4.81-2.723l0.067,0.057l3.37-3.288
						C88.705,77.916,88.777,74.028,86.436,71.681z"/>
				</g>
			</g>
		</g>
	</g>
</g>
</svg>
