<?xml version="1.0" encoding="utf-8"?>
<!-- Generator: Adobe Illustrator 16.0.0, SVG Export Plug-In . SVG Version: 6.00 Build 0)  -->
<!DOCTYPE svg PUBLIC "-//W3C//DTD SVG 1.1//EN" "http://www.w3.org/Graphics/SVG/1.1/DTD/svg11.dtd">
<svg version="1.1" xmlns="http://www.w3.org/2000/svg" xmlns:xlink="http://www.w3.org/1999/xlink" x="0px" y="0px" width="100px"
	 height="100px" viewBox="0 0 100 100" enable-background="new 0 0 100 100" xml:space="preserve">
<g id="Calque_1" display="none">
</g>
<g id="Calque_2">
</g>
<g id="icons">
</g>
<g id="svg">
</g>
<g id="bg">
</g>
<g id="ui">
	<g>
		<g>
			<g>
				<g>
					<path fill="#E2685B" d="M92.871,75.357L79.613,62.102c-2.641-2.63-7.008-2.549-9.738,0.188l-6.684,6.675
						c-0.414-0.229-0.859-0.477-1.316-0.731c-4.219-2.335-9.988-5.541-16.066-11.619c-6.09-6.091-9.297-11.874-11.637-16.087
						c-0.25-0.442-0.484-0.886-0.719-1.302l4.48-4.468l2.199-2.214c2.738-2.729,2.812-7.091,0.184-9.74L27.059,9.555
						c-2.637-2.637-7.008-2.557-9.746,0.188l-3.738,3.75l0.109,0.094c-1.254,1.604-2.301,3.448-3.078,5.435
						c-0.719,1.892-1.168,3.703-1.371,5.501c-1.75,14.517,4.879,27.779,22.875,45.771c24.875,24.868,44.922,23.003,45.789,22.909
						c1.875-0.228,3.688-0.678,5.52-1.389c1.973-0.771,3.809-1.817,5.406-3.065l0.082,0.067l3.789-3.703
						C95.426,82.375,95.5,78.001,92.871,75.357z"/>
				</g>
			</g>
		</g>
	</g>
</g>
</svg>
