<?xml version="1.0" encoding="utf-8"?>
<!-- Generator: Adobe Illustrator 16.0.0, SVG Export Plug-In . SVG Version: 6.00 Build 0)  -->
<!DOCTYPE svg PUBLIC "-//W3C//DTD SVG 1.1//EN" "http://www.w3.org/Graphics/SVG/1.1/DTD/svg11.dtd">
<svg version="1.1" xmlns="http://www.w3.org/2000/svg" xmlns:xlink="http://www.w3.org/1999/xlink" x="0px" y="0px" width="100px"
	 height="100px" viewBox="0 0 100 100" enable-background="new 0 0 100 100" xml:space="preserve">
<g id="Calque_1" display="none">
</g>
<g id="Calque_2">
</g>
<g id="icons">
</g>
<g id="svg">
</g>
<g id="bg">
</g>
<g id="ui">
	<g>
		<g>
			<g>
				<path fill="#f7f2eb" d="M50.77,2.066c-26.047,0-47.234,21.187-47.234,47.235c0,26.042,21.188,47.235,47.234,47.235
					C76.812,96.537,98,75.344,98,49.302C98,23.253,76.812,2.066,50.77,2.066z M35.41,11.198c-2.852,3.893-4.965,8.479-6.473,12.991
					c-2.754-0.99-5.309-2.169-7.582-3.522C25.301,16.606,30.082,13.367,35.41,11.198z M17.352,25.441
					c2.945,1.839,6.277,3.401,9.895,4.667c-1.191,5.044-1.906,10.485-2.094,16.116H9.812C10.383,38.514,13.09,31.388,17.352,25.441z
					 M17.352,73.155c-4.262-5.953-6.977-13.064-7.539-20.782h15.34c0.188,5.637,0.902,11.064,2.094,16.115
					C23.629,69.747,20.297,71.316,17.352,73.155z M21.355,77.93c2.273-1.354,4.828-2.539,7.582-3.521
					c1.508,4.512,3.621,9.104,6.473,12.983C30.082,85.23,25.301,81.997,21.355,77.93z M47.684,89.803
					c-6.355-2.33-10.645-10.701-12.84-17.133c4.027-0.97,8.355-1.556,12.84-1.737V89.803z M47.684,64.757
					c-5.051,0.202-9.953,0.876-14.52,1.987c-1.035-4.492-1.668-9.334-1.855-14.371h16.375V64.757L47.684,64.757z M47.684,46.225
					H31.309c0.188-5.038,0.82-9.88,1.855-14.365c4.566,1.111,9.469,1.778,14.52,1.98V46.225z M47.684,27.671
					c-4.484-0.188-8.812-0.781-12.84-1.737c2.188-6.438,6.484-14.803,12.84-17.146V27.671z M84.188,25.441
					c4.254,5.946,6.961,13.072,7.535,20.783H76.387c-0.195-5.631-0.914-11.072-2.102-16.109
					C77.902,28.843,81.234,27.28,84.188,25.441z M80.18,20.667c-2.285,1.354-4.828,2.532-7.578,3.522
					c-1.52-4.513-3.629-9.099-6.477-12.978C71.457,13.367,76.234,16.606,80.18,20.667z M53.848,8.787
					c6.363,2.344,10.648,10.708,12.844,17.146c-4.027,0.956-8.352,1.549-12.844,1.737V8.787L53.848,8.787z M53.848,33.84
					c5.059-0.202,9.945-0.869,14.527-1.98c1.027,4.485,1.66,9.327,1.844,14.365H53.848V33.84z M53.848,52.359h16.371
					c-0.184,5.023-0.816,9.893-1.844,14.385c-4.582-1.111-9.469-1.785-14.527-1.987V52.359z M53.848,89.803v-18.87
					c4.492,0.182,8.816,0.768,12.844,1.737C64.496,79.102,60.211,87.473,53.848,89.803z M66.125,87.392
					c2.848-3.879,4.957-8.472,6.477-12.983c2.75,0.982,5.293,2.168,7.578,3.521C76.234,81.997,71.457,85.23,66.125,87.392z
					 M84.188,73.155c-2.953-1.839-6.285-3.408-9.902-4.667c1.188-5.051,1.906-10.513,2.102-16.129h15.336
					C91.148,60.063,88.441,67.202,84.188,73.155z"/>
			</g>
		</g>
	</g>
</g>
</svg>
