<?xml version="1.0" encoding="utf-8"?>
<!-- Generator: Adobe Illustrator 16.0.0, SVG Export Plug-In . SVG Version: 6.00 Build 0)  -->
<!DOCTYPE svg PUBLIC "-//W3C//DTD SVG 1.1//EN" "http://www.w3.org/Graphics/SVG/1.1/DTD/svg11.dtd">
<svg version="1.1" xmlns="http://www.w3.org/2000/svg" xmlns:xlink="http://www.w3.org/1999/xlink" x="0px" y="0px"
	 width="731.088px" height="647px" viewBox="0 0 731.088 647" enable-background="new 0 0 731.088 647" xml:space="preserve">

<style>

path:first-of-type{
animation: swell 7s ease -1.25s infinite;
}

path:nth-of-type(2){
animation: swell 9s ease -1.25s infinite;
}

path:nth-of-type(3){
animation: swell 11s ease -1.25s infinite;
}

path:nth-of-type(4){
animation: swell 13s ease -1.25s infinite;
}

g{
animation: wave 37s cubic-bezier( 0.36, 0.45, 0.63, 0.53) -1.25s infinite;
}


@keyframes swell {
  0%,
  100% {
    transform: translate3d(0, -15px, 0);
  }
  50% {
    transform: translate3d(0, 5px, 0);
  }
}


@keyframes wave {
  0% {
    transform: translate(-180px);
  }
  50% {
    transform: translate(180px);
  }
  100%{
 transform: translate(-180px);
  }
}
</style>
<g id="ui">
	<path opacity="0.2" fill="#4F6D59" enable-background="new    " d="M731.088,22.755c-70-6.167-127.126,24.552-127.126,24.552
		C488.37,124.424,239.333,69.62,239.333,69.62C141.352,57.688,60.034,88.404,0.088,125.928v638.421
		c9.203-3.29,14.915-6.12,14.915-6.12c171.216-97.459,358.465-25.393,358.465-25.393c167.949,55.504,299.62,6.672,357.62-23.917
		V22.755z"/>
	<path opacity="0.3" fill="#4F6D59" enable-background="new    " d="M731.088,706.629V10c-69,2.287-121.697,37.092-121.697,37.092
		c-106.116,86.162-359.801,60.464-359.801,60.464c-110.025-1.009-193.497,46.452-249.501,94.183V723h275.445
		c68.218-12,127.671-5,159.017,0h245.698C698.67,718,715.088,712.627,731.088,706.629z"/>
	<path opacity="0.4" fill="#4F6D59" enable-background="new    " d="M731.088,62.273c-70-6.429-127.126,25.594-127.126,25.594
		c-115.592,80.387-364.629,23.26-364.629,23.26C141.352,98.686,60.034,130.709,0.088,169.822V725h731V62.273z"/>
	<path opacity="0.6" fill="#4F6D59" enable-background="new    " d="M731.088,102.529c-66-15.743-126.157,30.697-126.157,30.697
		c-102.617,69.285-255.209,0-255.209,0C212.022,97.614,74.946,177.469,0.088,233.422V725h731V102.529z"/>
</g>
</svg>
