<?xml version="1.0" encoding="utf-8"?>
<!-- Generator: Adobe Illustrator 16.0.0, SVG Export Plug-In . SVG Version: 6.00 Build 0)  -->
<!DOCTYPE svg PUBLIC "-//W3C//DTD SVG 1.1//EN" "http://www.w3.org/Graphics/SVG/1.1/DTD/svg11.dtd">
<svg version="1.1" xmlns="http://www.w3.org/2000/svg" xmlns:xlink="http://www.w3.org/1999/xlink" x="0px" y="0px"
	 width="731.088px" height="647px" viewBox="0 0 731.088 647" enable-background="new 0 0 731.088 647" xml:space="preserve">

<style>

path:first-of-type{
animation: swell 7s ease -1.25s infinite;
}

path:nth-of-type(2){
animation: swell 9s ease -1.25s infinite;
}

path:nth-of-type(3){
animation: swell 11s ease -1.25s infinite;
}

path:nth-of-type(4){
animation: swell 13s ease -1.25s infinite;
}

g{
animation: wave 37s cubic-bezier( 0.36, 0.45, 0.63, 0.53) -1.25s infinite;
}


@keyframes swell {
  0%,
  100% {
    transform: translate3d(0, -15px, 0);
  }
  50% {
    transform: translate3d(0, 5px, 0);
  }
}


@keyframes wave {
  0% {
    transform: translate(10%);
  }
  50% {
    transform: translate(-10%);
  }
  100%{
 transform: translate(10%);
  }
}
</style>
<g id="ui">
<path opacity="0.2" fill="#4F6D59" enable-background="new    " d="M797.525,7.337c-75.121-13.321-139.82,14.474-139.82,14.474
		C525.364,94.229,261.237,11.295,261.237,11.295C156.404-10.92,65.54,14.572-2.857,49.456L-63.521,739.91
		c10.265-2.684,16.712-5.201,16.712-5.201c194.431-89.133,390.094,6.6,390.094,6.6c176.363,75.986,323.406,35.687,389.04,8.115
		L797.525,7.337z"/>
	<path opacity="0.3" fill="#4F6D59" enable-background="new    " d="M732.541,756.947L798.736,3.542
		c-74.841-4.083-135.14,28.552-135.14,28.552c-122.952,83.101-394.872,31.203-394.872,31.203
		C149.828,51.75,55.044,95.147-10.061,141.445l-49.532,563.746l297.895,26.175c74.918-6.497,138.552,6.724,171.977,15.11
		l265.723,23.346C696.4,766.165,714.668,761.914,732.541,756.947z"/>
	<path opacity="0.4" fill="#4F6D59" enable-background="new    " d="M793.77,30.075c-75.094-13.604-139.919,15.601-139.919,15.601
		c-132.651,75.955-396.557-9.491-396.557-9.491C152.509,13.417,61.52,40.324-7.028,76.929l-52.754,600.426l790.578,69.462
		L793.77,30.075z"/>
	<path opacity="0.6" fill="#4F6D59" enable-background="new    " d="M789.944,103.612c-69.884-23.298-139.356,21.212-139.356,21.212
		c-117.564,65.182-276.009-24.25-276.009-24.25c-145.539-51.6-301.375,21.738-387.65,75.138l-46.711,531.643l790.578,69.462
		L789.944,103.612z"/>
</g>
</svg>
