<?xml version="1.0" encoding="utf-8"?>
<!-- Generator: Adobe Illustrator 16.0.0, SVG Export Plug-In . SVG Version: 6.00 Build 0)  -->
<!DOCTYPE svg PUBLIC "-//W3C//DTD SVG 1.1//EN" "http://www.w3.org/Graphics/SVG/1.1/DTD/svg11.dtd">
<svg version="1.1" xmlns="http://www.w3.org/2000/svg" xmlns:xlink="http://www.w3.org/1999/xlink" x="0px" y="0px"
	 width="135.001px" height="100px" viewBox="0 0 135.001 100" enable-background="new 0 0 135.001 100" xml:space="preserve">
<g id="Calque_1" display="none">
</g>
<g id="Calque_2">
</g>
<g id="icons">
</g>
<g id="svg">
</g>
<g id="bg">
</g>
<g id="ui">
	<path fill="#CCB7A8" d="M116.152,45H53.691c0.932,2,1.469,3.397,1.469,5.396c0,1.683-0.387,3.604-1.062,4.604h62.055
		c2.813,0,5.088-2.351,5.088-5C121.24,47.35,118.966,45,116.152,45z"/>
	<path fill="#CCB7A8" d="M32.159,45H19.181c-4.052,0-7.335,2.35-7.335,5c0,2.649,3.283,5,7.335,5h12.394
		c-0.973-1-1.53-2.922-1.53-4.604C30.044,48.397,30.815,47,32.159,45z"/>
	<circle fill="none" stroke="#CCB7A8" stroke-width="8" stroke-miterlimit="10" cx="43.483" cy="50.446" r="11.286"/>
	<path fill="#CCB7A8" d="M24.592,24h59.33c-0.887-2-1.395-3.398-1.395-5.396c0-1.684,0.367-3.604,1.01-4.604H24.592
		c-2.672,0-4.832,2.35-4.832,5C19.76,21.648,21.92,24,24.592,24z"/>
	<circle fill="none" stroke="#CCB7A8" stroke-width="8" stroke-miterlimit="10" cx="95.649" cy="18.736" r="11.287"/>
	<path fill="#CCB7A8" d="M23.193,87h49.651c-0.741-2-1.167-3.398-1.167-5.396c0-1.683,0.307-3.604,0.846-4.604h-49.33
		c-2.234,0-4.044,2.35-4.044,4.999C19.149,84.649,20.959,87,23.193,87z"/>
	<path fill="#CCB7A8" d="M94.213,87h13.57c4.234,0,7.67-2.351,7.67-5.001c0-2.649-3.436-4.999-7.67-4.999H94.824
		c1.016,1,1.6,2.921,1.6,4.604C96.424,83.602,95.615,85,94.213,87z"/>
	<circle fill="none" stroke="#CCB7A8" stroke-width="8" stroke-miterlimit="10" cx="82.795" cy="81.156" r="11.287"/>
</g>
</svg>
