<?xml version="1.0" encoding="utf-8"?>
<!-- Generator: Adobe Illustrator 16.0.0, SVG Export Plug-In . SVG Version: 6.00 Build 0)  -->
<!DOCTYPE svg PUBLIC "-//W3C//DTD SVG 1.1//EN" "http://www.w3.org/Graphics/SVG/1.1/DTD/svg11.dtd">
<svg version="1.1" xmlns="http://www.w3.org/2000/svg" xmlns:xlink="http://www.w3.org/1999/xlink" x="0px" y="0px" width="100px"
	 height="100px" viewBox="0 0 100 100" enable-background="new 0 0 100 100" xml:space="preserve">
<g id="Calque_1" display="none">
</g>
<g id="Calque_2">
</g>
<g id="icons">
</g>
<g id="svg">
</g>
<g id="bg">
</g>
<g id="ui">
	<g>
		<g>
			
				<path fill="#CCB7A8" stroke="#CCB7A8" stroke-width="3.5" stroke-linecap="round" stroke-linejoin="round" stroke-miterlimit="10" d="
				M50,3.517c-20.334,0-36.659,15.959-36.659,35.479C13.341,58.52,50,96.484,50,96.484s36.662-37.804,36.662-57.488
				C86.662,19.318,70.334,3.517,50,3.517z M50,91.839c-3.36-3.567-9.604-10.54-15.848-18.747
				c-11.525-15.033-17.605-26.813-17.605-34.25C16.547,21.023,31.588,6.461,50,6.461c18.41,0,33.457,14.716,33.457,32.535
				c0,7.282-6.086,19.216-17.605,34.243C59.605,81.299,53.364,88.271,50,91.839z"/>
			
				<path fill="#CCB7A8" stroke="#CCB7A8" stroke-width="3.5" stroke-linecap="round" stroke-linejoin="round" stroke-miterlimit="10" d="
				M50,22.518c-8.48,0-15.263,6.567-15.263,14.778c0,8.207,6.782,14.771,15.263,14.771s15.266-6.564,15.266-14.771
				C65.266,29.223,58.48,22.518,50,22.518z M58.764,45.916c-2.256,2.186-5.369,3.551-8.764,3.551c-3.391,0-6.506-1.365-8.762-3.551
				c-2.26-2.191-3.674-5.199-3.674-8.485s1.414-6.292,3.674-8.483c2.256-2.185,5.371-3.554,8.762-3.554
				c3.395,0,6.508,1.369,8.764,3.554c2.258,2.191,3.676,5.197,3.676,8.483S61.021,43.725,58.764,45.916z"/>
		</g>
	</g>
</g>
</svg>
