<?xml version="1.0" encoding="utf-8"?>
<!-- Generator: Adobe Illustrator 16.0.0, SVG Export Plug-In . SVG Version: 6.00 Build 0)  -->
<!DOCTYPE svg PUBLIC "-//W3C//DTD SVG 1.1//EN" "http://www.w3.org/Graphics/SVG/1.1/DTD/svg11.dtd">
<svg version="1.1" xmlns="http://www.w3.org/2000/svg" xmlns:xlink="http://www.w3.org/1999/xlink" x="0px" y="0px" width="100px"
	 height="100px" viewBox="0 0 100 100" enable-background="new 0 0 100 100" xml:space="preserve">
<g id="Calque_1" display="none">
</g>
<g id="Calque_2">
</g>
<g id="icons">
</g>
<g id="svg">
</g>
<g id="bg">
</g>
<g id="ui">
	<g>
		<g>
			<g>
				<g>
					<path fill="#CCB7A8" d="M50,5.298c-19.555,0-35.254,15.348-35.254,34.12C14.746,58.193,50,94.703,50,94.703
						s35.257-36.355,35.257-55.285C85.257,20.494,69.555,5.298,50,5.298z M50,90.235c-3.232-3.431-9.235-10.136-15.24-18.028
						C23.676,57.75,17.829,46.421,17.829,39.27C17.829,22.134,32.293,8.13,50,8.13c17.705,0,32.175,14.151,32.175,31.288
						c0,7.003-5.853,18.479-16.931,32.931C59.237,80.1,53.235,86.805,50,90.235z"/>
					<path fill="#CCB7A8" d="M49.998,96.86l-1.077-1.115c-1.457-1.509-35.675-37.166-35.675-56.327
						c0-19.641,16.487-35.62,36.754-35.62c20.268,0,36.757,15.979,36.757,35.62c0,19.315-34.224,54.827-35.68,56.329L49.998,96.86z
						 M19.415,25.623c-2.032,4.191-3.169,8.868-3.169,13.795c0,16.149,27.878,46.817,33.756,53.104
						c2.139-2.278,7.186-7.769,12.742-14.617c-5.49,6.741-10.15,11.767-11.653,13.36l-1.092,1.157l-1.091-1.158
						c-1.869-1.984-8.501-9.157-15.342-18.148C22.13,58.198,16.329,46.81,16.329,39.27C16.329,34.401,17.435,29.777,19.415,25.623z
						 M50,9.63c-16.912,0-30.671,13.296-30.671,29.64c0,4.72,2.884,14.106,16.621,32.024c5.771,7.587,11.387,13.856,14.051,16.742
						c2.629-2.844,8.172-9.012,14.058-16.606c10.713-13.976,16.616-25.347,16.616-32.012C80.675,22.993,66.914,9.63,50,9.63z
						 M77.778,20.901c3.718,5.272,5.896,11.651,5.896,18.517c0,6.78-4.967,17.122-14.412,30.064
						c7.633-10.396,14.494-21.988,14.494-30.064C83.757,32.547,81.547,26.165,77.778,20.901z"/>
				</g>
				<g>
					<path fill="#CCB7A8" d="M50,96.386c-0.001,0-0.001,0-0.002,0c-0.455-0.001-0.893-0.187-1.209-0.514
						c-1.458-1.511-35.727-37.22-35.727-56.454c0-19.742,16.57-35.803,36.938-35.803c20.369,0,36.939,16.061,36.939,35.803
						c0,19.389-34.272,54.952-35.732,56.457C50.891,96.201,50.455,96.386,50,96.386z M49.655,91.883
						c0.121,0.13,0.237,0.255,0.347,0.372c0.109-0.118,0.225-0.242,0.348-0.373c-0.114,0.024-0.231,0.036-0.35,0.036
						c0,0,0,0-0.001,0C49.883,91.918,49.768,91.906,49.655,91.883z M50,9.812c-16.812,0-30.488,13.215-30.488,29.457
						c0,4.691,2.877,14.035,16.584,31.914c5.666,7.447,11.191,13.635,13.905,16.583c2.677-2.903,8.129-8.986,13.913-16.449
						c10.688-13.943,16.578-25.274,16.578-31.899C80.492,23.094,66.812,9.812,50,9.812z"/>
					<path fill="#CCB7A8" d="M50,97.886h-0.003c-0.858-0.002-1.691-0.355-2.286-0.971C44.01,93.08,11.562,58.896,11.562,39.418
						C11.562,18.85,28.806,2.115,50,2.115c21.195,0,38.439,16.734,38.439,37.303c0,8.411-5.93,20.47-17.625,35.843
						C61.903,86.975,52.672,96.519,52.283,96.92C51.688,97.533,50.855,97.886,50,97.886z M50,5.115
						c-19.54,0-35.438,15.388-35.438,34.303c0,7.567,5.883,19.312,17.011,33.966c8.626,11.358,17.331,20.447,18.295,21.446
						c0.066,0.068,0.194,0.071,0.263,0c12.212-12.588,35.309-40.37,35.309-55.412C85.439,20.503,69.541,5.115,50,5.115z
						 M50.007,94.458l-4.671-5.009l4.626,0.965c0.011,0.003,0.023,0.004,0.037,0.004l4.695-1.003L50.007,94.458z M50,89.98
						l-1.103-1.198c-2.792-3.033-8.323-9.234-13.995-16.69C23.854,57.681,18.012,46.329,18.012,39.27
						C18.012,22.2,32.361,8.312,50,8.312c17.641,0,31.992,13.954,31.992,31.105c0,8.911-9.184,22.762-16.888,32.812
						c-5.788,7.469-11.256,13.577-14.001,16.554L50,89.98z M50,11.312c-15.984,0-28.988,12.541-28.988,27.957
						c0,3.65,2.114,12.531,16.274,31.001c4.931,6.481,9.752,12.001,12.716,15.272c2.926-3.222,7.706-8.667,12.727-15.145
						c10.334-13.481,16.264-24.775,16.264-30.98C78.992,23.921,65.986,11.312,50,11.312z"/>
				</g>
			</g>
			<g>
				<g>
					<path fill="#CCB7A8" d="M50,23.571c-8.156,0-14.678,6.315-14.678,14.212c0,7.893,6.521,14.205,14.678,14.205
						c8.155,0,14.68-6.312,14.68-14.205C64.68,30.019,58.155,23.571,50,23.571z M58.428,46.072c-2.17,2.102-5.164,3.415-8.428,3.415
						c-3.261,0-6.257-1.313-8.426-3.415c-2.174-2.107-3.533-5-3.533-8.16s1.359-6.051,3.533-8.158
						c2.169-2.101,5.165-3.417,8.426-3.417c3.264,0,6.258,1.316,8.428,3.417c2.172,2.107,3.535,4.998,3.535,8.158
						S60.6,43.965,58.428,46.072z"/>
					<path fill="#CCB7A8" d="M50,53.488c-8.921,0-16.178-7.045-16.178-15.705c0-8.664,7.257-15.712,16.178-15.712
						c8.922,0,16.18,7.048,16.18,15.712C66.18,46.443,58.922,53.488,50,53.488z M50,27.837c-2.767,0-5.389,1.063-7.382,2.994
						c-1.984,1.924-3.077,4.438-3.077,7.081c0,2.644,1.093,5.159,3.077,7.083c1.991,1.93,4.613,2.992,7.382,2.992
						c2.77,0,5.392-1.062,7.384-2.992c1.985-1.927,3.079-4.442,3.079-7.083c0-2.64-1.094-5.154-3.08-7.082
						C55.39,28.9,52.767,27.837,50,27.837z"/>
				</g>
				<g>
					<path fill="#CCB7A8" d="M50,53.671c-9.021,0-16.361-7.127-16.361-15.888c0-8.765,7.34-15.896,16.361-15.896
						c9.023,0,16.363,7.131,16.363,15.896C66.363,46.544,59.023,53.671,50,53.671z M50,28.02c-2.719,0-5.295,1.045-7.255,2.943
						c-1.948,1.89-3.021,4.357-3.021,6.949c0,2.594,1.073,5.062,3.022,6.953c1.956,1.895,4.532,2.939,7.254,2.939
						c2.723,0,5.299-1.045,7.256-2.94c1.949-1.892,3.023-4.36,3.023-6.952c0-2.589-1.074-5.058-3.023-6.95
						C55.297,29.064,52.72,28.02,50,28.02z"/>
					<path fill="#CCB7A8" d="M50,55.171c-9.849,0-17.861-7.8-17.861-17.388c0-9.592,8.013-17.396,17.861-17.396
						c9.85,0,17.863,7.804,17.863,17.396C67.863,47.371,59.85,55.171,50,55.171z M50,23.388c-8.194,0-14.861,6.458-14.861,14.396
						c0,7.934,6.667,14.388,14.861,14.388c8.195,0,14.863-6.454,14.863-14.388C64.863,29.846,58.195,23.388,50,23.388z M50,49.305
						c-3.112,0-6.059-1.194-8.298-3.362c-2.243-2.176-3.479-5.027-3.479-8.03c0-3.001,1.235-5.852,3.478-8.026
						C43.942,27.715,46.89,26.52,50,26.52c3.111,0,6.06,1.195,8.3,3.365c2.244,2.179,3.479,5.029,3.479,8.027
						c0,3-1.235,5.852-3.479,8.028C56.061,48.11,53.113,49.305,50,49.305z M50,29.52c-2.327,0-4.533,0.896-6.211,2.521
						c-1.654,1.604-2.565,3.69-2.565,5.872c0,2.184,0.911,4.271,2.566,5.876c1.676,1.623,3.881,2.517,6.21,2.517
						c2.33,0,4.536-0.895,6.212-2.518c1.655-1.606,2.567-3.693,2.567-5.875c0-2.18-0.912-4.266-2.568-5.874
						C54.534,30.414,52.328,29.52,50,29.52z"/>
				</g>
			</g>
		</g>
	</g>
</g>
</svg>
