<?xml version="1.0" encoding="utf-8"?>
<!-- Generator: Adobe Illustrator 16.0.0, SVG Export Plug-In . SVG Version: 6.00 Build 0)  -->
<!DOCTYPE svg PUBLIC "-//W3C//DTD SVG 1.1//EN" "http://www.w3.org/Graphics/SVG/1.1/DTD/svg11.dtd">
<svg version="1.1" xmlns="http://www.w3.org/2000/svg" xmlns:xlink="http://www.w3.org/1999/xlink" x="0px" y="0px" width="100px"
	 height="100px" viewBox="0 0 100 100" enable-background="new 0 0 100 100" xml:space="preserve">
<g id="Calque_1" display="none">
</g>
<g id="Calque_2">
</g>
<g id="icons">
</g>
<g id="svg">
</g>
<g id="bg">
</g>
<g id="ui">
	<g>
		<g>
			<g>
				<path fill="#CCB7A8" d="M32.354,90c-15.723,0-28.52-12.796-28.52-28.518c0-15.725,12.797-28.521,28.52-28.521
					c3.256,0,6.449,0.547,9.491,1.623c1.155,0.406,1.933,1.502,1.939,2.725c0.067,9.527,6.153,18.064,15.142,21.233
					c1.117,0.394,1.885,1.427,1.937,2.609c0.011,0.109,0.011,0.219,0.011,0.331C60.873,77.204,48.076,90,32.354,90z M32.354,38.781
					c-12.518,0-22.699,10.183-22.699,22.701c0,12.516,10.182,22.698,22.699,22.698c11.93,0,21.737-9.247,22.628-20.95
					c-9.523-4.196-16.047-13.349-16.92-23.723C36.211,39.022,34.295,38.781,32.354,38.781z"/>
			</g>
			<g>
				<path fill="#CCB7A8" d="M66.477,65.645c-3.248,0-6.443-0.539-9.484-1.618C45.713,60.052,38.075,49.35,37.969,37.397
					c-0.006-0.089-0.006-0.178-0.006-0.266c0-15.726,12.795-28.521,28.514-28.521C82.209,8.61,95,21.406,95,37.132
					C95,52.853,82.209,65.645,66.477,65.645z M66.477,14.43c-12.509,0-22.692,10.189-22.692,22.702v0.063c0,0.046,0,0.065,0,0.113
					c0.067,9.527,6.149,18.064,15.142,21.233c2.418,0.854,4.961,1.288,7.551,1.288c12.518,0,22.705-10.184,22.705-22.698
					C89.182,24.619,78.994,14.43,66.477,14.43z"/>
			</g>
			<g>
				<path fill="#CCB7A8" d="M23.545,72.475c-0.742,0-1.488-0.28-2.053-0.847c-1.138-1.137-1.138-2.978,0-4.118l15.061-15.057
					c1.131-1.137,2.978-1.137,4.109,0c1.135,1.131,1.135,2.975,0,4.108L25.607,71.628C25.037,72.194,24.289,72.475,23.545,72.475z"
					/>
			</g>
			<g>
				<path fill="#CCB7A8" d="M38.606,72.475c-0.747,0-1.487-0.28-2.054-0.847L21.492,56.562c-1.138-1.134-1.138-2.978,0-4.108
					c1.133-1.137,2.975-1.137,4.115,0L40.662,67.51c1.135,1.141,1.135,2.981,0,4.118C40.1,72.194,39.352,72.475,38.606,72.475z"/>
			</g>
			<g>
				<path fill="#CCB7A8" d="M61.976,48.339c-0.082,0-0.171,0-0.25-0.01c-0.853-0.075-1.632-0.522-2.127-1.229l-6.697-9.562
					c-0.922-1.315-0.601-3.126,0.714-4.048c1.316-0.922,3.129-0.604,4.055,0.711l4.705,6.728l13.25-13.243
					c1.137-1.141,2.974-1.137,4.114,0c1.13,1.135,1.13,2.975-0.003,4.115L64.035,47.492C63.488,48.038,62.742,48.339,61.976,48.339z
					"/>
			</g>
		</g>
	</g>
</g>
</svg>
