<?xml version="1.0" encoding="utf-8"?>
<!-- Generator: Adobe Illustrator 16.0.0, SVG Export Plug-In . SVG Version: 6.00 Build 0)  -->
<!DOCTYPE svg PUBLIC "-//W3C//DTD SVG 1.1//EN" "http://www.w3.org/Graphics/SVG/1.1/DTD/svg11.dtd">

<svg class="shadow" version="1.1" xmlns="http://www.w3.org/2000/svg" xmlns:xlink="http://www.w3.org/1999/xlink" x="0px" y="0px"
	 width="497.333px" height="294.166px" viewBox="0 0 497.333 294.166" enable-background="new 0 0 497.333 294.166"
	 xml:space="preserve">

<g id="Calque_1" display="none">
</g>
<g id="Calque_2">
</g>
<g id="icons">
</g>
<g id="svg">
</g>
<g id="bg">
</g>
<g id="ui">
	<g>
		<defs>
			<rect id="SVGID_550_" y="0.446" width="497" height="283"/>
		</defs>
		<clipPath id="SVGID_2_">
			<use xlink:href="#SVGID_550_"  overflow="visible"/>
		</clipPath>
		<path clip-path="url(#SVGID_2_)" fill="#ed9d7a" d="M508.635,71.399c-2.625-3.4-6.418-5.539-10.438-4.807
			c-3.126-2.439-7.422-2.526-11.245-0.781c-26.46,12.075-54.576,22.439-83.837,24.334c-14.582,0.945-28.979-0.582-43.004-4.66
			c-13.313-3.871-25.642-10.675-37.799-17.205c-23.443-12.595-46.667-26.148-72.543-33.168c-25.047-6.795-52.416-5.312-78.124-4.146
			c-25.401,1.152-50.734,5.156-73.732,16.463C77.127,57.647,57.904,75.838,47.142,96.437c-5.571,10.662-8.701,23.071-5.256,34.906
			c3.316,11.395,12.47,18.439,23.284,22.09c10.046,3.393,21.344,3.518,31.841,3.567c4.734,0.022,9.467-0.062,14.202-0.015
			c4.584,0.045,7.995,0.277,11.477,1.012c2.013,0.424,3.984,1.025,5.93,1.689c0.044,0.016,1.682,0.676,1.838,0.717
			c0.698,0.322,1.388,0.665,2.073,1.014c1.704,0.869,3.328,1.887,4.918,2.947c0.069,0.045,1.378,1.005,1.527,1.089
			c0.816,0.659,1.61,1.347,2.393,2.045c6.539,5.838,9.536,10.43,14.067,17.944c9.032,14.979,15.498,31.344,24.69,46.238
			c9.929,16.089,23.133,29.211,41.144,35.725c24.164,8.74,50.764-0.036,72.482-11.17c21.764-11.158,40.891-26.639,62.198-38.553
			c11.656-6.517,23.7-13.453,36.796-16.533c12.729-2.993,24.809,1.789,36.587,6.142c12.011,4.438,23.619,7.712,36.503,5.8
			c12.144-1.802,22.951-10.795,30.427-20.076c7.686-9.541,13.638-20.27,19.018-31.238c2.398-4.889,4.632-9.858,6.801-14.854
			c2.221-5.114,4.819-10.252,5.783-15.779C531.482,110.407,521.063,87.5,508.635,71.399z"/>
		<path opacity="0.7" clip-path="url(#SVGID_2_)" fill="#ed9d7a" d="M513.468,46.319c-3.102-3.411-7.344-5.371-11.579-4.239
			c-3.555-2.34-8.157-2.062-12.095,0.136c-27.258,15.201-56.435,28.716-87.568,33.271c-15.515,2.271-31.046,1.882-46.399-1.27
			c-14.574-2.988-28.349-9.201-41.916-15.137c-26.163-11.445-52.174-23.934-80.458-29.206c-27.377-5.104-56.522-1.153-83.919,2.315
			c-27.069,3.428-53.819,9.899-77.44,23.98c-21.349,12.726-40.338,33.844-50.069,56.805c-5.038,11.885-7.312,25.43-2.606,37.789
			c4.532,11.901,14.931,18.646,26.813,21.615c11.039,2.762,23.134,1.919,34.365,1.064c5.065-0.385,10.121-0.885,15.188-1.243
			c4.908-0.349,8.576-0.394,12.363,0.091c2.189,0.279,4.35,0.752,6.488,1.295c0.049,0.012,1.857,0.578,2.028,0.607
			c0.774,0.285,1.542,0.591,2.306,0.905c1.897,0.782,3.722,1.731,5.515,2.727c0.077,0.043,1.561,0.957,1.728,1.033
			c0.931,0.636,1.839,1.302,2.736,1.98c7.498,5.681,11.1,10.331,16.597,17.979c10.956,15.239,19.285,32.187,30.404,47.322
			c12.01,16.351,27.267,29.244,47.094,34.655c26.601,7.26,54.293-4.425,76.562-18.211c22.314-13.815,41.434-32.025,63.195-46.609
			c11.903-7.978,24.187-16.438,37.928-20.863c13.356-4.303,26.69-0.23,39.664,3.407c13.23,3.708,25.929,6.207,39.545,3.048
			c12.833-2.976,23.615-13.528,30.81-24.102c7.396-10.869,12.835-22.857,17.642-35.055c2.143-5.438,4.103-10.945,5.99-16.477
			c1.934-5.66,4.269-11.381,4.823-17.376C541.276,86.067,528.152,62.466,513.468,46.319z"/>
	</g>
</g>
</svg>
