<?xml version="1.0" encoding="utf-8"?>
<!-- Generator: Adobe Illustrator 16.0.0, SVG Export Plug-In . SVG Version: 6.00 Build 0)  -->
<!DOCTYPE svg PUBLIC "-//W3C//DTD SVG 1.1//EN" "http://www.w3.org/Graphics/SVG/1.1/DTD/svg11.dtd">
<svg version="1.1" xmlns="http://www.w3.org/2000/svg" xmlns:xlink="http://www.w3.org/1999/xlink" x="0px" y="0px" width="100px"
	 height="100px" viewBox="0 0 100 100" enable-background="new 0 0 100 100" xml:space="preserve">
<g id="Calque_1">
</g>
<g id="Calque_4">
</g>
<g id="aboutBack">
</g>
<g id="skillBack">
</g>
<g id="skill">
</g>
<g id="process">
</g>
<g id="aboutText">
</g>
<g id="contact">
	<g>
		<g>
			<g>
				<path fill-rule="evenodd" clip-rule="evenodd" d="M40.418,79.973c0-13.822,0-27.623,0-41.447c4.635,0,9.299,0,14.031,0
					c0,1.904,0,3.804,0,5.706c0.035,0.004,0.067,0.017,0.102,0.025c0.062-0.096,0.132-0.188,0.195-0.283
					c1.157-1.758,2.527-3.312,4.338-4.427c1.454-0.904,3.037-1.453,4.721-1.7c2.437-0.353,4.858-0.26,7.236,0.388
					c4.15,1.139,7.11,3.707,8.943,7.58c0.977,2.073,1.534,4.269,1.75,6.542c0.124,1.285,0.204,2.574,0.207,3.866
					c0.019,7.781,0.01,15.565,0.01,23.352c0,0.124,0,0.248,0,0.395c-4.659,0-9.303,0-13.972,0c0-0.126,0-0.239,0-0.363
					c0-7.522,0.001-15.042-0.008-22.564c-0.003-1.621-0.153-3.24-0.68-4.792c-0.431-1.292-1.12-2.408-2.316-3.141
					c-1.063-0.655-2.244-0.846-3.47-0.822c-2.712,0.053-4.637,1.395-5.969,3.692c-0.741,1.273-1.036,2.649-1.034,4.107
					c0.003,7.832,0.003,15.665,0.003,23.495c0,0.128,0,0.245,0,0.392C49.824,79.973,45.159,79.973,40.418,79.973z"/>
				<path fill-rule="evenodd" clip-rule="evenodd" d="M19.967,38.517c4.634,0,9.235,0,13.887,0c0,13.816,0,27.625,0,41.469
					c-0.064,0.004-0.164,0.01-0.264,0.01c-4.409,0-8.813-0.002-13.218,0.007c-0.258,0-0.332-0.062-0.332-0.326
					c0-6.73-0.012-13.456-0.027-20.189c-0.009-4.96-0.026-9.915-0.032-14.879c-0.01-1.927-0.01-3.85-0.014-5.777
					C19.967,38.733,19.967,38.643,19.967,38.517z"/>
				<path fill-rule="evenodd" clip-rule="evenodd" d="M19.101,26.569c0.013-3.937,2.244-6.626,5.629-7.305
					c1.777-0.352,3.532-0.293,5.224,0.388c2.229,0.897,3.607,2.541,4.114,4.881c0.492,2.264,0.03,4.33-1.5,6.097
					c-1.071,1.237-2.458,1.943-4.051,2.251c-1.866,0.356-3.71,0.28-5.445-0.545C20.43,31.084,19.185,28.922,19.101,26.569z"/>
			</g>
		</g>
	</g>
</g>
</svg>
