<?xml version="1.0" encoding="utf-8"?>
<!-- Generator: Adobe Illustrator 16.0.0, SVG Export Plug-In . SVG Version: 6.00 Build 0)  -->
<!DOCTYPE svg PUBLIC "-//W3C//DTD SVG 1.1//EN" "http://www.w3.org/Graphics/SVG/1.1/DTD/svg11.dtd">
<svg version="1.1" xmlns="http://www.w3.org/2000/svg" xmlns:xlink="http://www.w3.org/1999/xlink" x="0px" y="0px"
	 width="67.977px" height="100px" viewBox="0 0 67.977 100" enable-background="new 0 0 67.977 100" xml:space="preserve">
<g id="Calque_1">
</g>
<g id="Calque_4">
</g>
<g id="aboutBack">
</g>
<g id="skillBack">
</g>
<g id="skill">
</g>
<g id="process">
</g>
<g id="aboutText">
</g>
<g id="contact">
	<g>
		<g>
			<g>
				<path d="M50.37,11.017c-0.325,0-0.573,0-0.821,0c-2.78,0-5.562,0.061-8.336-0.021c-2.521-0.07-4.978,0.209-7.404,0.849
					c-2.843,0.753-5.032,2.338-6.418,4.985c-1.274,2.438-1.766,5.05-1.824,7.762c-0.053,2.548-0.01,5.099-0.01,7.648
					c0,0.414,0.014,0.832-0.002,1.242c-0.047,1.22-0.078,1.245-1.287,1.245c-2.344,0-4.688,0-7.029,0
					c-0.67,0-1.005,0.401-0.912,1.064c0.053,0.4,0.128,0.806,0.128,1.21c0.008,3.214,0.006,6.431,0.006,9.646
					c0,0.245,0,0.487,0,0.778c3.03,0,5.961,0,8.965,0c0,12.095,0,24.142,0,36.188c4.633,0,9.189,0,13.819,0
					c0-12.095,0-24.139,0-36.231c3.332,0,6.587,0,9.882,0c0.445-4.236,0.883-8.425,1.333-12.681c-3.773,0-7.483,0-11.176,0
					c-0.039-0.092-0.066-0.132-0.066-0.174c0.04-2.769,0.066-5.545,0.135-8.315c0.027-1.006,0.953-2.084,1.963-2.221
					c1.502-0.208,3.013-0.338,4.527-0.42c1.306-0.065,2.62-0.02,3.928-0.006c0.38,0,0.607-0.078,0.606-0.527
					C50.367,19.065,50.37,15.093,50.37,11.017z"/>
				<path fill-rule="evenodd" clip-rule="evenodd" d="M50.37,11.017c0,4.076-0.003,8.049,0.006,12.022
					c0.001,0.449-0.226,0.527-0.606,0.527c-1.308-0.014-2.622-0.06-3.928,0.006c-1.515,0.082-3.025,0.212-4.527,0.42
					c-1.01,0.137-1.936,1.215-1.963,2.221c-0.069,2.771-0.095,5.547-0.135,8.315c0,0.042,0.027,0.082,0.066,0.174
					c3.692,0,7.402,0,11.176,0c-0.45,4.256-0.888,8.444-1.333,12.681c-3.294,0-6.55,0-9.882,0c0,12.093,0,24.137,0,36.231
					c-4.629,0-9.186,0-13.819,0c0-12.046,0-24.093,0-36.188c-3.003,0-5.935,0-8.965,0c0-0.291,0-0.533,0-0.778
					c0-3.216,0.002-6.433-0.006-9.646c0-0.404-0.075-0.81-0.128-1.21c-0.093-0.663,0.242-1.064,0.912-1.064c2.341,0,4.686,0,7.029,0
					c1.209,0,1.24-0.025,1.287-1.245c0.016-0.41,0.002-0.828,0.002-1.242c0-2.55-0.042-5.101,0.01-7.648
					c0.058-2.712,0.55-5.324,1.824-7.762c1.386-2.647,3.575-4.232,6.418-4.985c2.426-0.64,4.883-0.919,7.404-0.849
					c2.774,0.081,5.556,0.021,8.336,0.021C49.797,11.017,50.045,11.017,50.37,11.017z"/>
			</g>
		</g>
	</g>
</g>
</svg>
