<?xml version="1.0" encoding="utf-8"?>
<!-- Generator: Adobe Illustrator 16.0.0, SVG Export Plug-In . SVG Version: 6.00 Build 0)  -->
<!DOCTYPE svg PUBLIC "-//W3C//DTD SVG 1.1//EN" "http://www.w3.org/Graphics/SVG/1.1/DTD/svg11.dtd">
<svg version="1.1" xmlns="http://www.w3.org/2000/svg" xmlns:xlink="http://www.w3.org/1999/xlink" x="0px" y="0px" width="100px"
	 height="100px" viewBox="0 0 100 100" enable-background="new 0 0 100 100" xml:space="preserve">
<g id="Calque_1">
</g>
<g id="Calque_4">
</g>
<g id="aboutBack">
</g>
<g id="skillBack">
</g>
<g id="skill">
</g>
<g id="process">
</g>
<g id="aboutText">
</g>
<g id="contact">
	<g>
		<path d="M71.193,63.616L71.097,47.2c0-1.791,0.032-3.168,0.096-4.128c0.063-0.96,0.271-2.24,0.624-3.84
			c0.351-1.6,0.896-2.864,1.632-3.792c0.735-0.928,1.824-1.856,3.264-2.784s3.216-1.584,5.328-1.969l3.264,8.641
			c-1.281,0.448-2.241,1.137-2.88,2.063c-0.641,0.929-1.008,1.745-1.104,2.448c-0.096,0.705-0.144,1.729-0.144,3.072V62.08
			c0,4.097-0.816,7.713-2.448,10.848c-1.632,3.137-3.681,5.633-6.144,7.488c-2.465,1.855-5.345,3.375-8.64,4.56
			c-3.297,1.184-6.432,1.983-9.408,2.4C51.562,87.791,48.569,88,45.562,88c-9.153,0-16.721-2.337-22.704-7.008
			c-5.985-4.671-8.976-11.136-8.976-19.393V46.336c0-6.975,2.031-12.495,6.096-16.56c4.063-4.063,8.943-6.64,14.64-7.729
			c2.304-0.512,4.575-0.768,6.816-0.768c1.344,0,2.688,0.096,4.032,0.288c3.583,0.448,6.848,1.328,9.792,2.64
			c2.943,1.312,5.328,3.425,7.152,6.336c1.824,2.913,2.736,6.353,2.736,10.32l3.552,1.439v10.08l-3.552-1.439v19.487
			c-3.009,0.96-5.793,1.729-8.352,2.305c-2.561,0.575-5.28,1.024-8.16,1.344c-1.281,0.129-2.529,0.191-3.744,0.191
			c-1.408,0-2.721-0.096-3.936-0.287c-2.241-0.385-4.32-1.071-6.24-2.064c-1.92-0.991-3.441-2.527-4.56-4.608
			c-1.121-2.078-1.776-4.655-1.968-7.728v-9.696c0-7.104,2.816-11.712,8.448-13.823c1.664-0.769,3.583-1.152,5.76-1.152
			c0.384,0,0.768,0.033,1.152,0.096c2.624,0.129,4.767,0.384,6.432,0.769c1.663,0.384,3.199,0.832,4.608,1.344
			c-0.321-2.112-1.457-3.696-3.408-4.752c-1.953-1.057-3.984-1.615-6.096-1.681c-0.384,0-0.768,0-1.152,0
			c-5.76,0-10.528,1.312-14.304,3.937c-4.032,2.88-6.048,7.168-6.048,12.864v13.439c0,3.394,0.687,6.305,2.064,8.736
			c1.375,2.433,3.216,4.257,5.52,5.472c2.304,1.217,4.688,2.098,7.152,2.641c2.463,0.544,5.071,0.815,7.824,0.815
			c2.88,0,5.712-0.271,8.496-0.815c2.784-0.543,5.456-1.359,8.016-2.448c2.559-1.088,4.623-2.655,6.192-4.704
			C70.409,68.576,71.193,66.241,71.193,63.616z M54.585,63.136V47.392c-1.665-0.831-3.425-1.503-5.28-2.016
			c-1.665-0.384-3.264-0.576-4.8-0.576c-0.192,0-0.384,0-0.576,0c-1.728,0.064-3.153,0.593-4.272,1.584
			c-1.121,0.993-1.68,2.448-1.68,4.368v5.28c0,1.089,0.048,2.032,0.144,2.832c0.096,0.801,0.447,1.761,1.056,2.88
			c0.607,1.12,1.455,1.937,2.544,2.448c0.896,0.448,2.208,0.672,3.936,0.672c0.319,0,0.639-0.032,0.96-0.097
			C48.857,64.705,51.513,64.16,54.585,63.136z"/>
	</g>
</g>
</svg>
