<?xml version="1.0" encoding="utf-8"?>
<!-- Generator: Adobe Illustrator 16.0.0, SVG Export Plug-In . SVG Version: 6.00 Build 0)  -->
<!DOCTYPE svg PUBLIC "-//W3C//DTD SVG 1.1//EN" "http://www.w3.org/Graphics/SVG/1.1/DTD/svg11.dtd">
<svg version="1.1" xmlns="http://www.w3.org/2000/svg" xmlns:xlink="http://www.w3.org/1999/xlink" x="0px" y="0px" width="100px"
	 height="100px" viewBox="0 0 100 100" enable-background="new 0 0 100 100" xml:space="preserve">
<g id="Calque_1">
</g>
<g id="Calque_4">
</g>
<g id="aboutBack">
</g>
<g id="skillBack">
</g>
<g id="skill">
</g>
<g id="process">
	<g>
		<path d="M13.443,40.06c0-4.021,1.393-7.148,4.183-9.383c2.787-2.234,6.993-3.354,12.619-3.354c3.718,0,6.881,0.354,9.496,1.056
			v10.4c-2.815-0.854-5.589-1.281-8.327-1.281c-2.739,0-4.51,0.313-5.312,0.938c-0.804,0.63-1.206,1.546-1.206,2.752v25.316
			c0,2.412,1.896,3.617,5.689,3.617s6.921-0.376,9.382-1.131v10.173c-2.713,0.753-6.003,1.131-9.872,1.131
			c-5.626,0-9.808-1.106-12.543-3.317c-2.74-2.208-4.108-5.321-4.108-9.342V40.06z"/>
		<path d="M75.802,27.699h11.754l-9.947,52.217H61.863L51.766,27.699h11.528c2.913,16.627,4.596,26.674,5.049,30.14
			c0.452,3.469,0.953,7.562,1.507,12.282c0.953-8.991,1.783-15.721,2.487-20.191L75.802,27.699z"/>
	</g>
</g>
<g id="aboutText">
</g>
<g id="contact">
</g>
</svg>
