<?xml version="1.0" encoding="utf-8"?>
<!-- Generator: Adobe Illustrator 16.0.0, SVG Export Plug-In . SVG Version: 6.00 Build 0)  -->
<!DOCTYPE svg PUBLIC "-//W3C//DTD SVG 1.1//EN" "http://www.w3.org/Graphics/SVG/1.1/DTD/svg11.dtd">
<svg version="1.1" xmlns="http://www.w3.org/2000/svg" xmlns:xlink="http://www.w3.org/1999/xlink" x="0px" y="0px" width="540px"
	 height="498px" viewBox="0 0 540 498" enable-background="new 0 0 540 498" xml:space="preserve">
<g id="Calque_1">
</g>
<g id="Calque_2">
</g>
<g id="icons">
</g>
<g id="svg">
</g>
<g id="bg">
</g>
<g id="ui">
	<g>
		<g>
			<defs>
				<rect id="SVGID_684_" x="-27" width="566" height="497"/>
			</defs>
			<clipPath id="SVGID_2_">
				<use xlink:href="#SVGID_684_"  overflow="visible"/>
			</clipPath>
			<g opacity="0.2" clip-path="url(#SVGID_2_)">
				<path fill="#CCB7A8" d="M575.899,100.85c-60.577,31.371-107.093-37.862-157.935-64.906
					C364.958,6.736,291.398,4.572,247.048,51.089c-38.943,40.024-58.416,123.321-128.729,115.747
					c-54.087-6.488-108.175,20.553-108.175,81.132c0,12.979,3.244,25.962,8.654,36.78c6.49,15.145,14.062,15.145,28.125,21.635
					c25.962,12.981,49.761,19.473,78.968,19.473c55.169,0,104.93-22.721,160.099-6.491c57.333,17.308,63.824,87.622,104.931,124.401
					c55.169,48.678,96.276,14.062,148.199-16.229c25.963-15.143,54.088-38.942,71.396-64.904
					c17.308-28.129,16.226-64.904,14.062-96.276c-3.245-57.332-6.491-118.994-46.515-164.424"/>
			</g>
		</g>
		<g>
			<defs>
				<rect id="SVGID_686_" x="-16" y="16" width="557" height="474"/>
			</defs>
			<clipPath id="SVGID_4_">
				<use xlink:href="#SVGID_686_"  overflow="visible"/>
			</clipPath>
			<g clip-path="url(#SVGID_4_)">
				<defs>
					<path id="SVGID_688_" d="M575.899,100.85c-60.577,31.371-107.093-37.862-157.935-64.906
						C364.958,6.736,291.398,4.572,247.048,51.089c-38.943,40.024-58.416,123.321-128.729,115.747
						c-54.087-6.488-108.175,20.553-108.175,81.132c0,12.979,3.244,25.962,8.654,36.78c6.49,15.145,14.062,15.145,28.125,21.635
						c25.962,12.981,49.761,19.473,78.968,19.473c55.169,0,104.93-22.721,160.099-6.491
						c57.333,17.308,63.824,87.622,104.931,124.401c55.169,48.678,96.276,14.062,148.199-16.229
						c25.963-15.143,54.088-38.942,71.396-64.904c17.308-28.129,16.226-64.904,14.062-96.276
						c-3.245-57.332-6.491-118.994-46.515-164.424"/>
				</defs>
				<clipPath id="SVGID_6_">
					<use xlink:href="#SVGID_688_"  overflow="visible"/>
				</clipPath>
				<g clip-path="url(#SVGID_6_)">
					<path opacity="0.1" fill="#ED9D7A" enable-background="new    " d="M156.846,320.561c1.889,2.735,4.204,5.186,6.871,7.271
						c0.734,0.571,1.495,1.126,2.268,1.644c9.899,6.693,23.153,9.637,36.03,11.543c25,3.698,50.522,4.42,75.934,5.123
						c21.398,0.6,42.806,1.199,64.21,1.597c30.595,0.579,61.193,0.751,91.741,0c16.7-0.413,33.382-1.141,50.056-2.181
						c30.93-1.991,62.662-5.513,89.589-17.803c4.93-2.221,9.639-4.842,14.072-7.841c7.312-5.019,13.335-11.087,16.556-18.278
						c5.179-11.555,2.442-24.539-3.479-35.872c-3.584-6.851-8.244-13.264-13.078-19.625c-2.86-3.774-5.785-7.526-8.568-11.335
						c-0.292-0.374-0.572-0.776-0.851-1.167c-0.539-0.751-1.075-1.504-1.596-2.251c-2.184-3.164-4.251-6.426-6.149-9.757
						c-1.889-3.316-3.6-6.728-5.12-10.21c-1.395-3.184-2.593-6.441-3.587-9.755c-0.662-2.231-1.22-4.474-1.65-6.713
						c-2.354-12.2-1.113-24.391,5.861-35.423c0.069-0.11,0.141-0.228,0.212-0.333l0.089-0.133c1.967-3.044,4.342-5.912,6.677-8.787
						c2.791-3.45,5.538-6.925,7.47-10.727c5.083-10.042,3.985-21.338,2.135-32.063c-2.467-14.258-7.058-29.641-21.274-38.529
						c-14.764-9.249-35.725-8.782-54.056-5.47c-28.478,5.124-54.776,15.882-81.33,25.586c-26.552,9.71-54.354,18.585-83.549,19.534
						c-25.781,0.848-55.85-5.461-72.959-21.853c-16.618-15.925-47.856-17.136-70.383-7.505
						c-21.488,9.172-35.386,28.592-34.34,47.981c1.522,28.242,30.432,49.901,47.679,74.61c0.774,1.104,1.526,2.232,2.243,3.379
						c6.776,10.779,10.949,23.159,5.952,34.379c-6.704,15.033-26.607,22.368-43.392,31.811c-8.106,4.562-15.501,9.614-20.285,16.278
						c-0.18,0.241-0.343,0.476-0.507,0.713C149.592,298.227,150.102,310.78,156.846,320.561z"/>
					<path opacity="0.4" fill="#ED9D7A" d="M576.607,231.377c-2.185-3.162-4.252-6.427-6.148-9.753
						c-1.893-3.318-3.604-6.728-5.126-10.206c-1.395-3.184-2.593-6.441-3.587-9.755c-0.662-2.231-1.22-4.474-1.65-6.713
						c-2.354-12.2-1.113-24.391,5.861-35.423c0.069-0.11,0.141-0.228,0.212-0.333l6.775-8.92H522.67V181.7h-13.984v94.271H490.64
						v-30.582h-21.651v30.582h-18.032v-52.24h-0.902v-27.18h-17.136v27.18h-39.698v40.769h-22.107v-12.757h-13.547v12.757h-22.103
						v-120.61h-28.87v-19.111h-4.961v19.111h-8.117v37.797h-14.441V150.26h-12.178v-32.265h-25.258v32.265h-12.183v31.426h-14.885
						v23.529c6.776,10.776,10.949,23.158,5.952,34.379c-6.704,15.033-26.607,22.368-43.392,31.812
						c-8.106,4.564-15.501,9.616-20.285,16.28v32.885c1.889,2.73,4.204,5.181,6.871,7.26c0.734,0.571,1.495,1.126,2.268,1.644
						c9.899,6.693,23.153,9.637,36.03,11.543c25,3.698,50.522,4.42,75.934,5.123c21.398,0.6,42.806,1.199,64.21,1.597h91.747
						c16.7-0.413,33.383-1.141,50.056-2.181c30.934-1.991,62.664-5.513,89.592-17.803c4.929-2.221,9.637-4.842,14.073-7.841v-73.775
						c-2.863-3.774-5.786-7.526-8.57-11.335L576.607,231.377z"/>
					<rect x="517.708" y="191.453" opacity="0.4" fill="#ED9D7A" enable-background="new    " width="18.945" height="10.191"/>
					<rect x="517.708" y="211.414" opacity="0.4" fill="#ED9D7A" enable-background="new    " width="18.945" height="10.195"/>
					<rect x="517.708" y="231.373" opacity="0.4" fill="#ED9D7A" enable-background="new    " width="18.945" height="10.191"/>
					<rect x="517.708" y="251.33" opacity="0.4" fill="#ED9D7A" enable-background="new    " width="18.945" height="10.197"/>
					<rect x="517.708" y="271.296" opacity="0.4" fill="#ED9D7A" enable-background="new    " width="18.945" height="10.19"/>
					<rect x="517.708" y="291.254" opacity="0.4" fill="#ED9D7A" enable-background="new    " width="18.945" height="10.193"/>
					<rect x="517.708" y="311.215" opacity="0.4" fill="#ED9D7A" enable-background="new    " width="18.945" height="10.193"/>
					<rect x="457.711" y="286.158" opacity="0.4" fill="#ED9D7A" enable-background="new    " width="44.208" height="5.096"/>
					<rect x="457.711" y="293.805" opacity="0.4" fill="#ED9D7A" enable-background="new    " width="44.208" height="5.096"/>
					<rect x="457.711" y="301.447" opacity="0.4" fill="#ED9D7A" enable-background="new    " width="44.208" height="5.099"/>
					<rect x="342.23" y="288.71" opacity="0.4" fill="#ED9D7A" enable-background="new    " width="44.207" height="5.095"/>
					<rect x="342.23" y="296.355" opacity="0.4" fill="#ED9D7A" enable-background="new    " width="44.207" height="5.092"/>
					<rect x="342.23" y="303.998" opacity="0.4" fill="#ED9D7A" enable-background="new    " width="44.207" height="5.094"/>
					<rect x="457.711" y="309.096" opacity="0.4" fill="#ED9D7A" enable-background="new    " width="44.208" height="5.096"/>
					<rect x="457.711" y="316.739" opacity="0.4" fill="#ED9D7A" enable-background="new    " width="44.208" height="5.092"/>
					<rect x="457.711" y="324.383" opacity="0.4" fill="#ED9D7A" enable-background="new    " width="44.208" height="5.094"/>
					<rect x="402.679" y="233.493" opacity="0.4" fill="#ED9D7A" enable-background="new    " width="12.177" height="14.869"/>
					<rect x="402.679" y="257.279" opacity="0.4" fill="#ED9D7A" enable-background="new    " width="12.177" height="14.867"/>
					<rect x="402.679" y="281.062" opacity="0.4" fill="#ED9D7A" enable-background="new    " width="12.177" height="14.867"/>
					<rect x="402.679" y="304.847" opacity="0.4" fill="#ED9D7A" enable-background="new    " width="12.177" height="14.866"/>
					<rect x="319.227" y="153.659" opacity="0.4" fill="#ED9D7A" enable-background="new    " width="16.24" height="19.536"/>
					<rect x="319.227" y="181.686" opacity="0.4" fill="#ED9D7A" enable-background="new    " width="16.24" height="19.536"/>
					<rect x="319.227" y="209.717" opacity="0.4" fill="#ED9D7A" enable-background="new    " width="16.24" height="19.535"/>
					<rect x="319.227" y="237.746" opacity="0.4" fill="#ED9D7A" enable-background="new    " width="16.24" height="19.538"/>
					<rect x="319.227" y="265.775" opacity="0.4" fill="#ED9D7A" enable-background="new    " width="16.24" height="19.537"/>
					<rect x="319.227" y="293.805" opacity="0.4" fill="#ED9D7A" enable-background="new    " width="16.24" height="19.537"/>
					<rect x="223.818" y="193.578" opacity="0.4" fill="#ED9D7A" enable-background="new    " width="60.446" height="16.562"/>
					<rect x="223.595" y="229.252" opacity="0.4" fill="#ED9D7A" enable-background="new    " width="60.447" height="16.562"/>
					<rect x="223.368" y="264.928" opacity="0.4" fill="#ED9D7A" enable-background="new    " width="60.448" height="16.559"/>
					<rect x="223.143" y="300.599" opacity="0.4" fill="#ED9D7A" enable-background="new    " width="60.449" height="16.562"/>
					<path opacity="0.4" fill="#ED9D7A" enable-background="new    " d="M156.846,287.687v6.13h20.285v-22.398
						C169.025,275.971,161.629,281.022,156.846,287.687z"/>
					<path opacity="0.4" fill="#ED9D7A" enable-background="new    " d="M156.846,304.847v15.714
						c1.889,2.735,4.204,5.186,6.871,7.271c0.734,0.571,1.495,1.126,2.268,1.644h11.158v-24.628H156.846z"/>
					<path opacity="0.1" fill="#ED9D7A" enable-background="new    " d="M468.227,138.236h3.105c-1.197-0.004-2.17-0.92-2.169-2.049
						c0-1.125,0.972-2.043,2.169-2.043h25.144c1.198,0,2.171,0.92,2.171,2.049c-0.003,1.125-0.974,2.039-2.171,2.043h-3.106
						c1.203,0.048,2.133,1.005,2.083,2.133c-0.047,1.064-0.952,1.91-2.083,1.959h4.345c1.202,0,2.175,0.91,2.175,2.044
						c0.001,1.13-0.97,2.044-2.17,2.044h-0.005h-25.139c-1.198,0-2.169-0.914-2.169-2.044c0.003-1.13,0.974-2.044,2.169-2.044
						h-4.348c-1.201-0.049-2.131-1.004-2.08-2.133C466.193,139.13,467.099,138.281,468.227,138.236z"/>
					<path opacity="0.1" fill="#ED9D7A" enable-background="new    " d="M357.26,189.618h3.104c-1.199,0-2.172-0.916-2.169-2.044
						c0.001-1.125,0.972-2.042,2.169-2.044h25.144c1.2,0.002,2.17,0.919,2.168,2.05c0,1.127-0.971,2.038-2.168,2.038h-3.097
						c1.201,0.054,2.131,1.007,2.08,2.138c-0.047,1.064-0.952,1.914-2.08,1.959h4.344c1.199,0,2.174,0.912,2.174,2.045
						c0.002,1.127-0.97,2.045-2.171,2.045h-0.003h-25.146c-1.2,0-2.171-0.918-2.171-2.045c0.002-1.127,0.972-2.045,2.171-2.045
						h-4.348c-1.201-0.047-2.133-1.004-2.082-2.135C355.226,190.52,356.13,189.666,357.26,189.618z"/>
					<path opacity="0.1" fill="#ED9D7A" enable-background="new    " d="M168.251,122.518h3.105
						c-1.199,0.008-2.174-0.908-2.175-2.037c-0.001-1.131,0.972-2.049,2.17-2.049h0.005h25.143c1.2,0,2.171,0.918,2.17,2.049
						c0,1.123-0.973,2.037-2.17,2.037h-3.106c1.201,0.008,2.173,0.922,2.171,2.051c-0.002,1.129-0.971,2.043-2.171,2.043h4.346
						c1.2,0.051,2.132,1.006,2.08,2.136c-0.05,1.064-0.952,1.914-2.08,1.956H172.6c-1.2,0.05-2.216-0.826-2.267-1.956
						c-0.054-1.13,0.88-2.085,2.081-2.136c0.062-0.002,0.123-0.002,0.186,0h-4.349c-1.2,0-2.17-0.918-2.168-2.047
						C166.083,123.438,167.055,122.525,168.251,122.518z"/>
				</g>
				<g clip-path="url(#SVGID_6_)">
					<g>
						<path fill="#EFD4A8" d="M358.28,331.174c9.286,0.025,18.572,0.229,27.841,1.154c3.495,0.35,6.916,1.121,10.419,1.43
							c6.996,0.619,13.867,1.775,20.889,2.309c5.655,0.431,11.333,0.684,16.971,1.229c5.286,0.512,11.137,0.393,16.383-0.451
							c3.883-0.623,7.784-0.977,11.602-1.979c4.271-1.126,8.911-1.926,13.359-1.897c6.347,0.038,12.527,0.044,18.598,2.025
							c2.133,0.701,4.741,1.843,6.361,3.302c3.705,3.346,4.206,11.686,0.506,15.155c-6.231,5.835-19.532,8.124-28.268,8.233
							c-9.572,0.119-18.871-0.521-28.457-0.895c-8.908-0.352-17.792-0.85-26.715-0.828c-18.225,0.035-36.448,0-54.637-1.1
							c-17.091-1.026-34.8,1.851-51.927,1.851c-17.564,0-34.432-2.401-51.868-0.301c-7.598,0.915-15.337,1.235-22.973,1.876
							c-6.839,0.574-13.411-0.01-20.222-0.541c-5.72-0.445-11.401-1.768-16.597-4c-4.112-1.769-11.444-7.264-12.706-11.484
							c-3.536-11.836,49.833-11.551,58.027-11.524c9.166,0.028,18.406,0.299,27.565-0.015c3.853-0.13,7.648-0.811,11.409-1.551
							c3.745-0.742,7.519-0.551,11.317-0.862c15.84-1.297,31.714-1.108,47.604-1.108
							C347.934,331.201,353.106,331.161,358.28,331.174z"/>
					</g>
					<g>
						<g>
							<g>
								<polygon fill="#D0AD8E" points="448.139,186.812 449.257,181.967 451.331,182.389 451.296,185.884 452.361,185.625 
									450.905,189.646 448.694,189.504 								"/>
							</g>
							<g>
								<path fill="#9AAFA2" d="M469.721,228.906c0.124-0.378,0.198-0.797,0.211-1.26c0.061-1.912-0.793-3.777-1.989-5.279
									c-1.896-2.377-4.551-4.176-6.701-6.322c-2.459-2.457-4.919-4.913-7.379-7.367l-2.011-20.219l-4.401-0.057l-2.229,24.864
									c3.422,3.104,6.78,6.12,9.984,9.417c2.872,2.951,5.36,6.72,9.359,8.201C466.824,231.718,469.035,230.969,469.721,228.906z"
									/>
							</g>
						</g>
						<g>
							<g>
								<path fill="#9AAFA2" d="M236.681,112.852c0,0,22.843,24.761,23.067,45.621c0.224,20.856-15.335,25.98-22.293,26.056
									c-6.958,0.075-22.624-4.711-22.85-25.57C214.382,138.102,236.681,112.852,236.681,112.852z"/>
								<path fill="#F1E0C2" d="M251.674,166.783c0.004-0.017,0.006-0.031,0.009-0.047c0.204-1.01,0.507-1.88,0.52-2.926
									c0.018-1.521-0.035-3.043-0.149-4.559c-0.237-3.125-0.729-6.23-1.401-9.291c-1.377-6.271-3.495-12.369-6.03-18.26
									c-1.14-2.649-2.368-5.262-3.674-7.832c-0.617-1.213-1.251-2.42-1.9-3.617c-0.168-0.309-2.013-3.302-1.914-3.403
									c0.038-0.038,0.059-0.062,0.059-0.062s20.609,24.853,19.771,44.823c-0.054,1.291-0.169,2.582-0.361,3.856
									c-0.09,0.614-0.198,1.224-0.324,1.831c-0.107,0.521-0.028,1.045-0.299,1.52c-0.45,0.789-1.31,1.33-2.215,1.395
									c-0.798,0.057-1.508-0.182-1.82-0.938C251.619,168.489,251.517,167.619,251.674,166.783z"/>
							</g>
							<path fill="#F1E0C2" d="M248.82,172.413c0.38-0.38,0.925-0.618,1.463-0.624c0.407-0.004,0.873,0.139,1.225,0.388
								c0.821,0.462,1.237,1.368,1.029,2.343c-0.306,1.419-2.015,2.006-3.211,1.323C248.104,175.148,247.803,173.437,248.82,172.413
								z"/>
						</g>
						<g>
							<g>
								<polygon fill="#F1E0C2" points="240.242,185.979 239.55,181.499 237.634,181.744 237.437,184.927 236.485,184.618 
									237.542,188.371 239.561,188.387 								"/>
							</g>
							<g>
								<path fill="#6B927A" d="M217.836,222.798c-0.088-0.35-0.127-0.735-0.109-1.157c0.071-1.746,0.972-3.379,2.16-4.664
									c1.879-2.035,4.411-3.494,6.508-5.303c2.397-2.066,4.795-4.137,7.194-6.205l3.17-18.242l4.001,0.242l0.378,22.746
									c-3.317,2.59-6.568,5.113-9.699,7.893c-2.809,2.492-5.319,5.752-9.05,6.832
									C220.283,225.549,218.321,224.721,217.836,222.798z"/>
							</g>
						</g>
						<g>
							<g>
								<g>
									<polygon fill="#E38655" points="201.346,271.408 199.793,282.098 202.91,342.373 208.139,341.277 216.813,272.748 
																			"/>
								</g>
								<g>
									<polygon fill="#E38655" points="227.031,269.4 228.042,309.361 217.891,343.855 211.974,341.655 216.958,310.894 
										212.383,269.061 									"/>
								</g>
								<g>
									<path fill="#B24A42" d="M211.955,338.424l7.083,3.248l-2.377,4.953l3.713,2.34c0,0,0.35,2.062-0.899,2.931
										c-1.246,0.87-9.327-5.916-9.327-5.916L211.955,338.424z"/>
								</g>
								<g>
									<path fill="#B24A42" d="M201.346,339.6l7.683,1.297l-1.011,5.397l4.196,1.297c0,0,0.872,1.901-0.106,3.063
										c-0.979,1.166-10.545-3.293-10.545-3.293L201.346,339.6z"/>
								</g>
							</g>
							<g>
								<path fill="#E2685B" d="M216.279,204.232c-0.547,1.778-1.333,3.483-2.328,5.055c-0.025-3.266-0.499-6.526-1.407-9.662
									c-0.068-0.241-0.138-0.514-0.013-0.726c0.118-0.202,0.364-0.284,0.59-0.337C217.16,197.588,217.234,201.131,216.279,204.232
									z"/>
							</g>
							<g>
								<g>
									<path fill="#F1E0C2" d="M214.062,209.35c-0.421,1.343-1.12,2.865-2.511,3.682c-1.642,0.963-3.396,0.471-4.621-0.27
										c-4.045-2.445-11.055-15.942-0.513-19.254C215.992,190.5,215.811,203.775,214.062,209.35z"/>
								</g>
								<g>
									<path fill="#E2685B" d="M205.732,209.406c-0.629,0.934-2.063,0.721-3.079,0.24c-4.177-1.977-6.727-6.908-5.921-11.458
										c0.676-3.806,5.38-6.763,6.46-2.091c0.382,1.654-0.576,3.984-0.298,5.824C203.29,204.551,204.58,207.045,205.732,209.406z"
										/>
								</g>
								<g>
									<path fill="#E2685B" d="M216.027,188.651c4.802,2.653,6.948,8.501,11.338,11.791c-3.945,1.81-8.633,1.924-12.663,0.314
										c-3.953-1.581-13.325-2.54-12.1-8.018C203.851,187.168,211.821,186.322,216.027,188.651z"/>
								</g>
							</g>
							<g>
								<path fill="#6B927A" d="M197.405,223.144c-2.749,4.772-2.738,10.178-2.357,15.345c0.859,11.701-0.256,25.271,3.78,36.461
									c7.614-0.011,22.215-3.501,29.802-4.285c1.477-10.17,0.615-16.119-0.217-27.64c-0.412-5.681-1.294-13.3-3.304-18.711
									c-1.645-4.429-6.034-10.152-12.657-9.97C206.243,214.516,199.903,218.807,197.405,223.144z"/>
							</g>
							<path fill="#F1E0C2" d="M209.81,216.707c0.692,0.292,1.543,0.17,2.366-0.628c0.708-0.688,0.49-0.908,0.34-1.918
								c-0.222-1.487-0.617-2.972-0.924-4.446c0,0-4.1,0.854-4.102,0.854c0.004,0,0.825,3.993,0.886,4.266
								C208.577,215.699,209.115,216.412,209.81,216.707z"/>
						</g>
						<g>
							<g>
								<g>
									<g>
										<polygon fill="#AA6755" points="486.505,342.956 486.52,348.975 483.026,348.98 483.011,342.309 										"/>
									</g>
									<g>
										<polygon fill="#DEC099" points="470.627,342.068 469.938,348.572 466.161,348.172 466.928,340.965 										"/>
									</g>
								</g>
								<g>
									<path fill="#4C4646" d="M466.214,347.954l3.393,0.761l1.081,0.971l0.067,2.564l-8.833,1.64l0,0
										c-0.853-1.036-0.502-2.597,0.711-3.166l0.4-0.189L466.214,347.954z"/>
								</g>
								<g>
									<path fill="#145566" d="M483.026,348.98l3.494-0.006l1.224,1.609l-0.245,2.552l-8.966,0.556l-0.257-0.578
										c-0.505-1.148,0.229-2.455,1.469-2.621l0.199-0.027L483.026,348.98z"/>
								</g>
							</g>
							<g>
								<g id="XMLID_92_">
									<polygon fill="#4F6D59" points="494.421,285.01 491.109,314.689 489.792,347.922 478.559,347.963 474.063,264.283 
										492.168,264.566 									"/>
								</g>
								<g id="XMLID_90_">
									<g id="XMLID_91_">
										<polygon fill="#4F6D59" points="460.902,281.062 458.466,310.016 461.551,347.869 472.458,347.543 474.033,310.76 
											475.879,284.351 477.766,264.666 464.706,264.296 										"/>
									</g>
								</g>
							</g>
							<g id="XMLID_89_">
								<polygon fill="#9AAFA2" points="467.729,216.333 490.903,219.432 493.449,225.854 493.854,248.064 496.154,267.105 
									466.549,267.236 459.164,265.369 461.485,245.414 462.601,223.4 								"/>
							</g>
							<g>
								<path fill="#D0AD8E" d="M480.113,217.469c-0.092-0.43-0.185-0.859-0.278-1.288c0.015-0.007,0.028-0.017,0.041-0.019
									c2.375-1.258,3.799-3.885,4.119-6.54c0.208-1.731,0.002-3.476-0.426-5.172c-0.378-0.993-0.889-1.934-1.521-2.769
									c-1.148-1.512-2.817-2.84-4.626-3.072c-0.733-0.096-0.524,0.524-1.333-0.069c-0.108-0.081-0.229-0.228-0.345-0.408
									c-0.152,0.124-0.258,0.203-0.287,0.226c-0.995,0.742-2,1.012-3.125,1.481c-1.704,0.717-2.875,2.645-2.825,4.652
									c0.022,0.831,0.222,1.715-0.1,2.454c-0.279,0.648-0.896,1.022-1.334,1.551c-0.256,0.309-0.446,0.676-0.57,1.072
									c1.184,3.35,3.986,6.348,7.237,7.199c0,0.012,0.001,0.022,0.002,0.034c0.012,0.203,0.025,0.406,0.049,0.605
									c0.102,0.885,0.53,1.874,1.401,2.083c0.399,0.096,0.816,0.008,1.215-0.082c0.806-0.184,1.612-0.361,2.419-0.544
									c0.165-0.038,0.35-0.089,0.434-0.233c0.073-0.132,0.044-0.291,0.014-0.436C480.219,217.953,480.166,217.708,480.113,217.469
									z"/>
							</g>
							<g>
								<path fill="#B24A42" d="M499.916,198.74c-1.769-0.397-3.522,0.389-5.141,1.156c0.03-1.801-1.461-3.289-3.006-4.033
									c-1.544-0.74-3.253-1.02-4.739-1.9c-1.784-1.062-3.396-3.021-5.378-2.796c-1.786,0.199-3.193,2.099-4.554,3.765
									c-0.023-0.035-0.047-0.066-0.071-0.104c-0.676-0.982-1.431-1.942-2.411-2.552c-3.168-1.966-3.479,2.343-6.056,1.69
									c-0.622-0.157-1.073-0.746-1.623-1.105c-1.043-0.681-2.361-0.496-3.467-0.051c-1.104,0.449-2.128,1.127-3.286,1.408
									c-1.029,0.248-2.131,0.166-3.116,0.559c-1.479,0.585-1.443,2.091-1.901,3.383c-0.508,1.43-1.239,3.35-2.239,4.441
									c-0.719,0.788-1.703,1.217-2.566,1.814c-0.864,0.594-1.67,1.494-1.691,2.619c-0.022,1.07,0.666,2.053,0.734,3.121
									c0.073,1.597-0.234,2.398,0.202,4.041c0.225,0.85,0.478,1.748,1.091,2.341c0.807,0.78,1.995,0.806,3.044,0.67
									c1.049-0.138,2.139-0.39,3.153-0.013c2.205,0.822,1.709,3.053,2.237,4.957c0.35,1.268,1.176,2.32,2.212,3.025
									c1.327,0.906,2.999,1.241,4.455,0.719c2.195-0.791,3.537-3.247,3.525-5.721c-0.003-0.896-0.243-1.761-0.369-2.638
									c-0.049-0.332-0.083-0.667-0.082-1.005c0.008-1.193,0.743-2.822-0.311-3.805c-0.255-0.242-0.591-0.372-0.819-0.645
									c-0.185-0.215-0.281-0.504-0.339-0.791c-0.114-0.578-0.072-1.178,0.101-1.725c0.124-0.396,0.314-0.764,0.57-1.072
									c0.438-0.528,1.055-0.902,1.334-1.551c0.322-0.739,0.122-1.623,0.1-2.454c-0.05-2.008,1.121-3.936,2.825-4.652
									c1.125-0.47,2.129-0.739,3.125-1.481c0.029-0.022,0.135-0.102,0.287-0.226c0.116,0.181,0.236,0.327,0.345,0.408
									c0.809,0.594,0.6-0.026,1.333,0.069c1.809,0.232,3.478,1.561,4.626,3.072c0.633,0.835,1.143,1.775,1.521,2.769
									c0.674,1.767,0.924,3.714,0.678,5.572c-0.352,2.655-1.915,3.595-1.095,6.463c0.182,0.638,0.435,1.253,0.744,1.839
									c0.845,1.599,2.129,2.941,3.667,3.727c0.184,0.029,0.37,0.051,0.555,0.068c0.929,0.076,1.857-0.037,2.738-0.316
									c0.88-0.274,1.713-0.717,2.452-1.292c1.108-0.862,2.006-2.03,2.533-3.403c0.286-0.748,0.503-1.594,1.105-2.071
									c0.483-0.384,1.138-0.455,1.63-0.827c2.045-1.545-0.735-5.42,0.43-7.817c0.736-1.512,2.798-1.812,3.488-3.354
									C503.266,201.319,501.686,199.147,499.916,198.74z"/>
							</g>
						</g>
						<g>
							<g id="XMLID_86_">
								<g id="XMLID_88_">
									<polygon fill="#682C29" points="298.497,348.953 298.999,351.534 304.411,353.27 306.363,350.264 303.406,348.104 
										297.993,346.369 									"/>
								</g>
								<g id="XMLID_87_">
									<polygon fill="#682C29" points="286.873,284.603 298.078,348.164 303.147,348.35 306.157,304.154 307.581,282.203 
																			"/>
								</g>
							</g>
							<g id="XMLID_83_">
								<g id="XMLID_85_">
									<polygon fill="#682C29" points="271.542,283.93 278.744,346.231 283.392,346.643 288.31,298.9 292.211,284.826 									
										"/>
								</g>
								<g id="XMLID_84_">
									<polygon fill="#682C29" points="283.416,346.049 283.187,348.729 277.932,350.963 275.647,348.062 278.39,345.604 
																			"/>
								</g>
							</g>
							<g>
								<polygon fill="#682C29" points="306.363,285.75 308.656,278.409 306.363,270.081 271.542,271.296 271.542,283.93 								
									"/>
							</g>
						</g>
						<g>
							<g>
								<polygon fill="#ED9D7A" points="337.973,220.684 338.656,223.797 343.93,223.268 345.112,220.158 343.371,217.883 
									341.45,219.522 341.322,218.939 341.787,218.225 341.065,217.771 								"/>
							</g>
							<g>
								<g>
									<polygon fill="#E38655" points="299.176,212.629 319.031,222.086 338.577,219.268 339.833,223.973 317.238,231.238 
										288.028,221.504 									"/>
								</g>
							</g>
						</g>
						<g>
							<g>
								<g>
									<path fill="#ED9D7A" d="M294.923,194.503c-3.52,2.194-8.494,0.94-11.711,3.59c-2.091,1.726-2.866,4.808-2.37,7.567
										c0.231,1.281,0.729,2.554,1.615,3.488c0.575,0.602,1.292,1.043,2.044,1.373c1.004,0.445,2.079,0.689,3.161,0.738
										c-0.077,0.992-0.241,1.979-0.492,2.938c2.021-0.229,4.044-0.459,6.066-0.691c-0.129-1.18-0.258-2.362-0.386-3.545
										c0.493-0.297,0.961-0.636,1.391-1.026c2.594-2.364,3.723-6.341,2.791-9.837
										C296.596,197.457,295.761,195.965,294.923,194.503z"/>
								</g>
							</g>
							<g>
								<path fill="#B24A42" d="M285.683,197.417c0.145-0.052,0.293-0.102,0.438-0.151c2.12-0.69,4.39-0.893,6.605-0.637
									c1.518,0.172,3.218,0.748,3.741,2.355c0.236,0.726,0.23,1.502,0.221,2.269c-0.012,0.952-0.023,1.907-0.033,2.866
									c-0.002,0.173-0.002,0.354,0.079,0.504c0.249,0.457,0.991,0.257,1.305-0.158c1.14-1.527,2.56-3.934,2.927-5.788
									c0.299-1.512-0.246-3.284,0.388-4.71c0.292-0.66,0.884-1.129,1.339-1.69c0.983-1.211,1.312-2.924,0.843-4.413
									c-0.298-0.955-0.936-1.835-1.838-2.266c-1.495-0.717-3.292-0.102-4.912-0.455c-0.821-0.177-1.575-0.605-2.404-0.746
									c-1.747-0.299-3.443,0.722-4.775,1.893c-1.33,1.17-2.535,2.562-4.162,3.264c-1.304,0.568-2.77,0.637-4.112,1.105
									c-2.239,0.773-4.029,2.675-4.806,4.914c-0.87,2.511-0.665,5.664,1.2,7.637c0.935,0.985,1.697,2.093,2.472,3.2
									c0.268,0.387,1.816,1.809,1.702,0.315c-0.092-1.16-0.554-2.27-0.636-3.428C281.063,200.471,283.19,198.339,285.683,197.417z
									"/>
							</g>
						</g>
						<g>
							<path fill="#E38655" d="M282.117,213.994l16.841-1.406c0,0,5.552,7.235,11.664,28.047
								c6.111,20.814,1.582,39.235,1.582,39.235s-18.999-3.424-45.822-0.341l7.814-51.64L282.117,213.994z"/>
						</g>
						<g>
							<g>
								<g id="XMLID_80_">
									<g id="XMLID_82_">
										<polygon fill="#DD957C" points="364.715,192.953 362.761,190.904 362.831,188.398 362.314,188.113 361.944,188.738 
											361.417,186.643 360.018,185.598 357.834,186.32 356.518,188.322 357.469,190.451 359.695,192.077 362.25,194.997 
																					"/>
									</g>
									<g id="XMLID_81_">
										<polygon fill="#3ABABA" points="365.397,191.197 384.081,212.201 395.171,212.697 393.055,230.293 378.385,223.753 
											374.379,220.972 359.666,194.463 										"/>
									</g>
								</g>
								<g>
									<g id="XMLID_79_">
										<polygon fill="#1A3151" points="395.304,346.549 395.304,348.928 389.199,351.98 386.146,348.928 389.199,345.876 
											389.592,345.876 389.689,346.549 										"/>
									</g>
									<g id="XMLID_78_">
										<polygon fill="#1A3151" points="410.341,345.876 410.763,345.876 413.814,348.928 410.763,351.98 404.656,348.928 
											404.656,346.549 410.269,346.549 										"/>
									</g>
									<g>
										<g id="XMLID_77_">
											<path fill="#9AAFA2" d="M410.254,256.184c-0.803-4.064-1.431-7.819-1.489-9.854c-0.173-6.125-0.944-26.342-0.944-26.342
												l-3.736-7.733l-0.69,0.004c0.05-0.004,0.099-0.012,0.149-0.016c-0.163,0.02,0.079-1.496,0.136-1.632
												c3.249-0.107,7.435,1.725,9.486,4.277c1.516,1.891,2.417,4.201,3.295,6.469c2.475,6.39,3.595,12.309,4.83,19.026
												c0.787,4.286,1.514,8.546,2.086,12.802c0.634,4.709,1.081,9.406,1.209,14.076c0.016,0.516,0.117,1.959,0.173,3.683
												c0.121,3.61,0.044,8.442-1.452,8.622c-0.279,0.035-0.549-0.09-0.796-0.213c-1.923-0.95-3.438-2.191-5.135-3.275
												l-0.091-18.839L410.254,256.184z"/>
										</g>
										<g id="XMLID_76_">
											<path fill="#9AAFA2" d="M375.886,275.549c0.383-4.01,0.781-8.019,1.266-12.016c0.967-7.976,2.283-15.928,4.512-23.649
												c0.851-2.948,1.833-5.857,2.815-8.763c1.194-3.541,2.39-7.08,3.585-10.619c1.486-4.4,3.994-7.499,8.382-9.041
												c0.784-0.273,1.61-0.484,2.461-0.641c0.02,0.094,0.039,0.184,0.05,0.281c0.052,0.422,0.17,0.891,0.434,1.199
												l-2.883,0.027c0,0-8.128,28.891-8.427,33.869c-0.114,1.895-0.491,6.027-0.912,10.379l-4.413,0.663l-0.189,16.647
												c-0.247,0.072-0.492,0.145-0.738,0.209c-1.399,0.378-2.54,1.416-3.703,2.23
												C376.405,277.527,375.652,278.005,375.886,275.549z"/>
										</g>
										<g id="XMLID_75_">
											<path fill="#9AAFA2" d="M387.168,256.576c-0.663,6.891-1.435,14.334-1.435,14.334s3.569,0.087,8.732,0.477
												c-0.382-0.01-0.764-0.021-1.146-0.026c-3.591-0.03-7.315,1.522-10.754,2.526l0.189-16.647L387.168,256.576z"/>
										</g>
										<g id="XMLID_74_">
											<path fill="#9AAFA2" d="M411.267,273.481c2.462,0.129,2.77-0.335,2.77-0.335s-2.222-9.07-3.782-16.963l7.03,1.056
												l0.091,18.839c-0.596-0.38-1.215-0.744-1.881-1.066C414.159,274.366,412.73,273.87,411.267,273.481z"/>
										</g>
										<g>
											<path fill="#4F6D59" d="M382.565,273.887c3.438-1.004,7.163-2.557,10.754-2.526c0.381,0.005,0.764,0.017,1.146,0.026
												c0.321,0.023,0.645,0.051,0.975,0.077c2.409,0.191,5.111,0.452,7.934,0.793c0.14,0.017,0.278,0.032,0.417,0.052
												c3.61,0.785,5.954,1.092,7.476,1.173c1.464,0.389,2.892,0.885,4.228,1.53c0.667,0.322,1.285,0.687,1.882,1.066
												l0.019,3.924l-6.883,66.636h-5.645v0.679h-0.032l-6.206-44.697l-0.025-0.25l-3.4,44.947h-0.032v-0.679H389.5
												l-7.193-50.054L382.565,273.887z"/>
										</g>
										<g>
											<path fill="#F1E0C2" d="M385.733,270.91c0,0,3.569,0.087,8.732,0.477c0.321,0.023,0.645,0.051,0.976,0.077
												c2.408,0.191,5.11,0.452,7.933,0.793c0.14,0.017,0.278,0.032,0.417,0.052c3.61,0.785,5.954,1.092,7.476,1.173
												c2.462,0.129,2.77-0.335,2.77-0.335s-2.222-9.07-3.782-16.963c-0.803-4.064-1.431-7.819-1.489-9.854
												c-0.173-6.125-0.944-26.342-0.944-26.342l-3.736-7.733l-0.69,0.004c-0.951,0.112-1.906,0.228-2.856,0.346
												c-0.248,0.028-0.502,0.058-0.737-0.021c-0.119-0.038-0.221-0.104-0.311-0.18c-0.035-0.035-0.069-0.068-0.099-0.104
												l-2.883,0.027c0,0-8.128,28.891-8.427,33.869c-0.114,1.895-0.491,6.027-0.912,10.379
												C386.505,263.467,385.733,270.91,385.733,270.91z"/>
										</g>
									</g>
								</g>
								<g>
									<g>
										<path fill="#BA6945" d="M394.167,193.834c-0.724,1.463-1.023,3.113-1.012,4.746c0.002,0.434,0,0.934-0.333,1.207
											c-0.354,0.295,0,0.88-0.298,0.525c-0.299-0.351-1.315-1.572-1.382-2.033c-0.156-1.076-0.209-2.171-0.161-3.256
											c0.043-0.949,0.182-1.942,0.752-2.69c0.338-0.443,0.802-0.767,1.259-1.085c0.664-0.457,1.348-0.918,2.127-1.107
											c1.342-0.328,2.198,0.123,1.051,1.148C395.348,192.02,394.661,192.838,394.167,193.834z"/>
									</g>
									<g>
										<g>
											<path fill="#EFD4A8" d="M403.525,211.887c-1.855,0.276-3.71,0.549-5.567,0.825c-0.366-1.624-0.616-3.279-0.748-4.944
												c-1.638-0.199-3.576-0.635-4.218-2.332c-0.204-0.536-0.239-1.131-0.273-1.707c-0.138-2.398-0.276-4.792-0.415-7.191
												c-0.049-0.824-0.094-1.68,0.145-2.465c0.422-1.376,1.626-2.245,2.822-2.814c3.05-1.453,6.682-1.596,9.649,0.094
												c0.79,0.449,1.544,1.038,2.027,1.869c0.747,1.282,0.743,2.91,0.715,4.436c-0.026,1.408-0.054,2.814-0.079,4.223
												c-0.031,1.619-0.175,3.49-1.363,4.406c-0.63,0.486-1.472,0.61-2.006,1.228
												C403.272,208.598,403.821,210.41,403.525,211.887z"/>
										</g>
									</g>
									<g>
										<path fill="#BA6945" d="M392.368,205.143c0.367,1.477,1.148,2.866,2.383,3.643c1.403,0.877,3.104,0.856,4.713,0.811
											c0.881-0.025,1.761-0.049,2.64-0.07c2.227-0.066,4.424-0.477,5.448-2.916c0.472-1.125,0.575-2.413,0.435-3.646
											c-0.039-0.34-0.099-0.688-0.272-0.974c-0.174-0.284-0.485-0.494-0.79-0.433c-0.393,0.079-0.606,0.521-0.843,0.868
											c-0.517,0.762-1.475,1.221-2.285,0.871c-0.24-0.105-0.451-0.268-0.663-0.435c-0.085-0.069-0.171-0.136-0.259-0.199
											c-0.871-0.642-1.91-0.902-2.939-0.985c-0.894-0.07-2.219-0.334-2.836,0.471c-0.36,0.466-0.722,0.933-1.082,1.402
											c-0.148,0.189-0.301,0.385-0.5,0.516c-0.203,0.131-0.444,0.184-0.681,0.199c-0.596,0.045-1.281-0.199-1.515-0.807
											c-0.102-0.264-0.104-0.559-0.129-0.843s-0.082-0.585-0.265-0.79c-0.699-0.781-0.824,0.529-0.827,0.977
											C392.093,203.592,392.179,204.382,392.368,205.143z M398.446,205.24c0.728,0.443,1.467,0.412,2.236,0.131
											c0.395-0.143,0.601,0.53,0.206,0.676c-0.929,0.34-1.863,0.355-2.738-0.178
											C397.784,205.644,398.079,205.018,398.446,205.24z"/>
									</g>
									<g>
										<path fill="#BA6945" d="M391.105,189.83c-0.184-0.571-0.329-1.16-0.432-1.752c0.553,0.165,1.148,0.186,1.712,0.059
											c-0.016-0.344-0.032-0.69-0.049-1.033c-0.011-0.287,3.792-0.686,4.101-0.729c2.888-0.394,5.529-0.763,8.231,0.683
											c2.309,1.236,3.849,3.18,4.326,5.79c0.455,2.495-0.187,5.817-1.509,7.976c-0.025-0.667,0.273-2.268,0.085-2.893
											c-0.127-0.631-0.375-1.232-0.702-1.785c-0.652-1.104-1.623-2.006-2.725-2.629c-1.754-0.996-3.761-1.461-5.749-1.64
											c-1.822-0.163-4.039-0.284-5.801,0.296c-0.846,0.279-0.978,0.505-1.542-0.347c-0.101-0.15-0.919-1.931-0.848-1.933
											C390.504,189.872,390.806,189.852,391.105,189.83z"/>
									</g>
								</g>
							</g>
						</g>
						<g>
							<path fill="#ED9D7A" d="M437.986,155.577c0.858,2.267,2.052,4.403,3.474,6.124c1.98,2.398,4.49,4.344,7.296,5.686
								c5.73,2.752,12.5,2.906,18.385,0.532c1.502-0.606,2.934-1.491,4.228-2.461c2.552-1.907,4.661-4.384,6.174-7.187
								c2.987-5.528,3.563-12.229,1.34-18.13c-2.277-6.047-7.213-10.849-13.318-12.967c-2.963-1.028-6.142-1.415-9.265-1.112
								c-8.129,0.791-15.195,6.088-18.228,13.677c-1.137,2.847-1.671,5.927-1.548,8.989
								C436.614,150.955,437.135,153.33,437.986,155.577z"/>
							<path fill="#ED9D7A" d="M456.59,124.674c-1.863,0.449-6.915,1.805-11.322,4.242c-0.299,0.164-0.662-0.06-0.651-0.402
								l0.457-16.09c0.011-0.398,0.497-0.575,0.767-0.287l10.969,11.809C457.04,124.193,456.919,124.596,456.59,124.674z"/>
							<path fill="#ED9D7A" d="M443.38,130.259c-1.305,1.402-4.766,5.325-7.094,9.789c-0.158,0.303-0.586,0.315-0.766,0.024
								l-8.507-13.662c-0.209-0.338,0.094-0.756,0.479-0.664l15.667,3.783C443.488,129.607,443.611,130.01,443.38,130.259z"/>
							<path fill="#ED9D7A" d="M435.396,142.631c-0.176,1.908-0.525,7.127,0.358,12.088c0.061,0.332-0.271,0.604-0.59,0.486
								l-15.08-5.63c-0.371-0.14-0.388-0.655-0.027-0.818l14.718-6.565C435.085,142.052,435.428,142.293,435.396,142.631z"/>
							<path fill="#ED9D7A" d="M436.953,157.068c0.922,1.681,3.557,6.197,7.063,9.814c0.237,0.244,0.115,0.655-0.216,0.734
								l-15.647,3.777c-0.386,0.094-0.689-0.324-0.479-0.662l8.517-13.684C436.37,156.764,436.79,156.771,436.953,157.068z"/>
							<path fill="#ED9D7A" d="M447.347,168.416c1.801,0.654,6.762,2.314,11.781,2.719c0.341,0.029,0.518,0.416,0.322,0.695
								l-9.271,13.16c-0.228,0.322-0.734,0.207-0.798-0.184l-2.619-15.904C446.707,168.57,447.028,168.299,447.347,168.416z"/>
							<path fill="#ED9D7A" d="M459.291,124.328c1.866,0.439,6.922,1.777,11.338,4.197c0.299,0.161,0.662-0.064,0.651-0.404
								l-0.52-16.09c-0.013-0.391-0.499-0.576-0.768-0.285l-10.924,11.851C458.84,123.848,458.961,124.248,459.291,124.328z"/>
							<path fill="#ED9D7A" d="M472.86,129.709c1.366,1.344,4.998,5.109,7.521,9.467c0.17,0.297,0.599,0.287,0.765-0.01
								l7.896-14.025c0.193-0.346-0.128-0.75-0.509-0.641l-15.483,4.469C472.725,129.064,472.62,129.471,472.86,129.709z"/>
							<path fill="#ED9D7A" d="M481.357,141.43c0.229,1.903,0.726,7.109-0.015,12.09c-0.05,0.337,0.288,0.604,0.603,0.467
								l14.915-6.053c0.366-0.148,0.367-0.664,0.001-0.818l-14.896-6.146C481.652,140.839,481.315,141.093,481.357,141.43z"/>
							<path fill="#ED9D7A" d="M480.658,155.872c-0.921,1.681-3.555,6.2-7.061,9.815c-0.237,0.244-0.115,0.656,0.216,0.738
								l15.648,3.772c0.384,0.091,0.688-0.329,0.479-0.666l-8.52-13.681C481.242,155.564,480.821,155.577,480.658,155.872z"/>
							<path fill="#ED9D7A" d="M460.8,171.153c1.864-0.445,6.92-1.784,11.334-4.208c0.298-0.162,0.661,0.062,0.651,0.402
								l-0.502,16.088c-0.013,0.396-0.5,0.577-0.767,0.286l-10.937-11.837C460.351,171.639,460.471,171.23,460.8,171.153z"/>
						</g>
						<g>
							
								<rect x="179.605" y="241.948" transform="matrix(-0.9887 -0.1498 0.1498 -0.9887 391.1146 559.3163)" fill="#EF8E86" width="74.048" height="45.951"/>
							
								<rect x="182.474" y="242.165" transform="matrix(-0.9887 -0.1498 0.1498 -0.9887 399.6647 522.0763)" fill="#B24A42" width="74.05" height="7.637"/>
							<path fill="#B24A42" d="M240.046,240.692l7.318,1.108c1.229,0.188,2.073,1.332,1.887,2.561l-0.308,2.035l-11.767-1.782
								l0.309-2.036C237.67,241.35,238.817,240.508,240.046,240.692z"/>
							<path fill="#BCBEC0" d="M194.696,233.818l7.32,1.109c1.227,0.186,2.072,1.335,1.886,2.561l-0.309,2.035l-11.767-1.783
								l0.308-2.036C192.321,234.477,193.468,233.632,194.696,233.818z"/>
							
								<rect x="186.341" y="263.309" transform="matrix(-0.9887 -0.1499 0.1499 -0.9887 345.46 556.2936)" fill="#B24A42" width="14.71" height="3.637"/>
							<g>
								
									<rect x="231.689" y="270.181" transform="matrix(-0.9887 -0.1498 0.1498 -0.9887 434.6548 576.7322)" fill="#B24A42" width="14.71" height="3.637"/>
								
									<rect x="231.69" y="270.182" transform="matrix(-0.1497 0.9887 -0.9887 -0.1497 543.7717 76.3782)" fill="#B24A42" width="14.71" height="3.635"/>
							</g>
							<path opacity="0.1" fill="#1E1D1D" d="M249.792,293.188l-73.212-11.096l5.74-37.881
								C182.32,244.211,189.327,284.025,249.792,293.188z"/>
						</g>
						<g>
							<polygon fill="#E2685B" points="388.31,259.027 373.88,262.502 351.922,161.72 359.421,159.913 							"/>
							<g>
								<g>
									<path fill="#E2685B" d="M334.105,96.396l-0.017-0.053c0,0-0.001,0.021-0.002,0.03c-0.008-0.006-0.014-0.017-0.02-0.022
										l0.018,0.051c-2.322,28.525,18.078,64.327,18.078,64.327l2.775-0.854l0.022-0.003l2.774-0.856
										C357.734,159.016,353.023,118.385,334.105,96.396z"/>
									<path fill="#EF8E86" d="M334.133,96.432l20.84,63.43l2.76-0.846C357.734,159.016,353.027,118.428,334.133,96.432z"/>
								</g>
								<g>
									<path fill="#E2685B" d="M309.186,208.917l-0.037,0.042c0.01-0.004,0.019-0.008,0.027-0.012
										c-0.003,0.008-0.007,0.016-0.011,0.023l0.038-0.036c26.49-12.161,47.961-47.12,47.961-47.12l-2.161-1.924l-0.016-0.016
										l-2.159-1.92C352.828,157.955,319.146,182.045,309.186,208.917z"/>
									<path fill="#EF8E86" d="M309.202,208.876l45.771-49.015l-2.146-1.906C352.828,157.955,319.182,182.021,309.202,208.876z"/>
								</g>
								<g>
									<path fill="#E2685B" d="M421.634,174.28l0.053,0.012c-0.007-0.004-0.016-0.01-0.024-0.017
										c0.011-0.002,0.021-0.004,0.03-0.004l-0.055-0.012c-24.167-16.366-66.04-17.207-66.04-17.207l-0.614,2.775l-0.005,0.021
										l-0.615,2.775C354.363,162.625,392.754,179.165,421.634,174.28z"/>
									<path fill="#EF8E86" d="M421.588,174.288l-66.614-14.427l-0.61,2.764C354.363,162.625,392.713,179.146,421.588,174.288z"/>
								</g>
								<path fill="#682C29" d="M348.584,161.831c-1.129-3.438,0.805-7.101,4.321-8.18c3.514-1.083,7.278,0.827,8.408,4.263
									c1.129,3.436-0.806,7.102-4.32,8.18C353.478,167.177,349.713,165.268,348.584,161.831z"/>
							</g>
						</g>
						<g>
							<path id="XMLID_73_" fill="#B24A42" d="M298.924,344.425l-0.131,6.626c-0.042,2.152,1.625,3.93,3.724,3.973l16.977,0.335
								c2.099,0.042,3.835-1.669,3.878-3.819l0.132-6.627L298.924,344.425z"/>
							<path fill="#EFD4A8" d="M354.142,256.522c0.462-23.31-17.595-42.567-40.33-43.021c-22.735-0.45-41.541,18.08-42.002,41.389
								c-0.165,8.287,2.012,16.054,5.904,22.654h-0.002c11.065,19.906,13.386,36.441,13.386,36.441l20.716,0.406l20.715,0.41
								c0,0,2.975-16.429,14.819-35.88h-0.002C351.496,272.484,353.978,264.808,354.142,256.522z"/>
							<path fill="#EF8E86" d="M290.621,313.977l-0.557,28.145c-0.024,1.176,0.865,2.146,1.983,2.166l38.331,0.762
								c1.119,0.022,2.046-0.912,2.068-2.089l0.559-28.145L290.621,313.977z"/>
							<path fill="#B29D7F" d="M353.568,248.606c-10.872,20.751-31.818,52.724-62.486,65.263c0.009,0.068,0.016,0.117,0.016,0.117
								l20.716,0.406l20.715,0.41c0,0,2.975-16.429,14.819-35.88h-0.002c4.151-6.438,6.633-14.115,6.797-22.4
								C354.197,253.818,353.99,251.177,353.568,248.606z"/>
							<g>
								<path opacity="0.4" fill="#B29D7F" d="M278.467,258.498c0.404-20.352,16.822-36.529,36.67-36.135
									c11.604,0.226,21.806,6.072,28.204,14.947c-5.987-11.166-17.472-18.832-30.798-19.097
									c-19.85-0.394-36.267,15.784-36.67,36.132c-0.167,8.457,2.457,16.302,7.007,22.611
									C279.949,271.488,278.336,265.188,278.467,258.498z"/>
							</g>
							<g>
								<polygon fill="#F9ECD7" points="303.809,314.236 299.893,260.113 306.723,266.172 312.982,256.447 318.938,266.103 
									325.882,260.578 319.819,314.553 321.944,314.598 328.56,255.699 319.482,262.92 313.021,252.449 306.285,262.914 
									297.401,255.031 301.682,314.195 								"/>
							</g>
							<g>
								<path fill="#EBEAEB" d="M301.292,308.797l0.39,5.398l2.127,0.041l-0.483-6.667
									C302.653,307.988,301.975,308.398,301.292,308.797z"/>
								<path fill="#EBEAEB" d="M322.314,292.329l-2.495,22.224l2.125,0.045l2.777-24.73
									C323.932,290.697,323.13,291.517,322.314,292.329z"/>
							</g>
							<g>
								
									<rect x="290.427" y="321.384" transform="matrix(0.9998 0.0198 -0.0198 0.9998 6.4795 -6.11)" fill="#B24A42" width="42.393" height="5.196"/>
								
									<rect x="290.207" y="332.484" transform="matrix(0.9998 0.0199 -0.0199 0.9998 6.7152 -6.1175)" fill="#B24A42" width="42.393" height="5.199"/>
							</g>
							<g>
								<path opacity="0.1" fill="#1E1D1D" d="M313.5,332.522l19.148,0.382l0.116-5.904l-11.811-0.232
									C318.438,328.959,315.942,330.864,313.5,332.522z"/>
								<path opacity="0.1" fill="#1E1D1D" d="M332.868,321.803l0.138-6.987l-0.667-0.015c-1.997,2.502-4.013,4.785-6.032,6.872
									L332.868,321.803z"/>
								<path opacity="0.1" fill="#1E1D1D" d="M292.048,344.287l38.331,0.762c1.119,0.022,2.046-0.912,2.068-2.089l0.098-4.856
									l-27.676-0.551c-5.668,2.778-10.752,4.284-14.745,5.099C290.332,343.573,291.105,344.272,292.048,344.287z"/>
								<path opacity="0.1" fill="#1E1D1D" d="M320.954,326.768L332.765,327l0.103-5.197l-6.561-0.13
									C324.52,323.52,322.732,325.216,320.954,326.768z"/>
								<path opacity="0.1" fill="#1E1D1D" d="M304.869,337.553l27.676,0.551l0.104-5.199l-19.148-0.382
									C310.524,334.547,307.628,336.2,304.869,337.553z"/>
							</g>
							<path opacity="0.1" fill="#1E1D1D" d="M323.424,348.938c-4.875,4.623-14.059,5.87-17.093,6.162l13.163,0.259
								c2.1,0.042,3.835-1.669,3.878-3.819L323.424,348.938z"/>
						</g>
						<g id="XMLID_70_">
							<g id="XMLID_72_">
								<polygon fill="#EFD4A8" points="380.101,234.126 377.373,233.436 376.167,231.287 375.574,231.315 375.571,232.043 
									374.052,230.553 372.313,230.418 370.791,232.189 370.665,234.582 372.566,235.871 375.314,236.059 379.004,237.163 
																	"/>
							</g>
							<g id="XMLID_71_">
								<polygon fill="#9AAFA2" points="378.916,232.521 393.944,235.7 413.866,220.737 412.386,234.221 401.055,245.69 
									394.891,247.691 375.596,237.326 								"/>
							</g>
						</g>
						<g>
							<g>
								<polygon fill="#F1E0C2" points="190.588,263.912 192.375,268.528 194.466,267.861 193.972,264.43 195.109,264.553 
									193.077,260.787 190.809,261.201 								"/>
							</g>
							<g>
								<path fill="#6B927A" d="M207.399,219.915c0.178,0.354,0.308,0.756,0.384,1.207c0.312,1.874-0.328,3.81-1.369,5.431
									c-1.647,2.568-4.158,4.664-6.101,7.037c-2.222,2.717-4.444,5.434-6.666,8.148l0.562,20.1l-4.54,0.598l-5.559-24.131
									c3.134-3.469,6.212-6.85,9.094-10.481c2.585-3.253,4.664-7.265,8.605-9.211C204.036,217.512,206.42,217.971,207.399,219.915
									z"/>
							</g>
						</g>
						<g>
							<g>
								<g>
									<polygon fill="#E38655" points="282.286,225.017 286.977,248.494 299.475,263.784 296.09,267.289 278.209,251.68 
										272.792,237.163 									"/>
								</g>
							</g>
							<g>
								<polygon fill="#ED9D7A" points="297.95,263.997 295.637,266.188 298.811,270.433 302.084,269.843 303.132,267.178 
									300.736,266.375 301.17,265.965 302.021,265.997 302.04,265.145 								"/>
							</g>
						</g>
						<g>
							<g>
								<g>
									<polygon fill="#B24A42" points="447.172,354.492 478.071,354.492 474.818,344.732 450.424,344.732 									"/>
									<rect x="459.368" y="317.087" fill="#B24A42" width="6.506" height="32.525"/>
								</g>
								<polygon opacity="0.12" fill="#B24A42" points="465.874,321.965 459.368,333.352 459.368,318.715 465.874,320.34 								
									"/>
							</g>
							<g>
								<polygon fill="#F1E0C2" points="410.31,320.34 513.308,320.34 507.886,261.791 415.73,261.791 								"/>
								<path fill="#B24A42" d="M440.118,319.519c1.221-15.175,2.439-30.353,3.66-45.528c0.345-4.307,0.875-7.89,1.221-12.199
									c0.091-1.14,1.72-1.154,1.626,0c-1.22,15.189-2.445,29.576-3.667,44.763l-1.035,12.886
									C441.833,320.588,440.027,320.677,440.118,319.519z"/>
								<path fill="#B24A42" d="M484.029,320.34c-1.219-15.176-2.443-29.551-3.661-44.727c-0.348-4.309-0.694-8.613-1.039-12.921
									c-0.092-1.144-1.899-1.237-1.806-0.075c1.221,15.184,2.441,30.373,3.662,45.558l1.217,12.165
									C482.494,321.483,484.122,321.498,484.029,320.34z"/>
							</g>
							<path fill="#B24A42" d="M409.817,321.312c0.138,0.069,0.302,0.113,0.493,0.113c0.057,0,0.117-0.004,0.175,0
								c4.139,0.149,8.31,0,12.45,0c8.574,0,17.149,0,25.722,0c9.926,0,19.852,0,29.777,0c8.207,0,16.413,0,24.619,0
								c3.418,0,6.836,0,10.255,0c0.542,0,1.138-0.5,1.083-1.086c-0.222-2.394-0.443-4.789-0.665-7.182
								c-0.974-10.518-1.947-21.032-2.92-31.547c-0.612-6.607-1.224-13.213-1.836-19.82c-0.055-0.586-0.458-1.08-1.084-1.08
								c-0.052,0-0.106,0-0.159,0c-3.729-0.142-7.492,0-11.222,0c-7.659,0-15.318,0-22.977,0c-8.856,0-17.713,0-26.568,0
								c-7.349,0-14.698,0-22.046,0c-3.061,0-6.123,0-9.183,0c-0.633,0-1.03,0.5-1.085,1.08c-0.222,2.397-0.443,4.793-0.664,7.185
								c-0.975,10.517-1.948,21.031-2.921,31.546c-0.611,6.605-1.224,13.215-1.835,19.818
								C409.177,320.859,409.45,321.186,409.817,321.312z M506.9,262.876c0.19,2.033,0.378,4.065,0.566,6.1
								c0.38,4.11,0.762,8.224,1.141,12.333h-93.602c0.568-6.122,1.136-12.248,1.703-18.375c0.921,0.027,1.879-0.058,2.775-0.058
								c2.544,0,5.085,0,7.628,0c7.658,0,15.316,0,22.976,0c8.856,0,17.711,0,26.568,0c7.349,0,14.696,0,22.047,0
								C501.436,262.876,504.169,262.876,506.9,262.876z M510.387,300.521c0.06,0.644,0.12,1.286,0.178,1.926H413.05
								c0.602-6.502,1.205-13.008,1.806-19.512h93.902C509.301,288.798,509.845,294.659,510.387,300.521z M411.493,319.255
								c0.189-2.032,0.378-4.065,0.565-6.097c0.28-3.029,0.56-6.056,0.841-9.081h97.818c0.466,5.036,0.932,10.073,1.398,15.11
								c-1.001-0.022-2.039,0.067-3.011,0.067c-2.808,0-5.617,0-8.424,0c-8.575,0-17.148,0-25.723,0c-9.924,0-19.85,0-29.775,0
								c-8.207,0-16.414,0-24.62,0C417.54,319.255,414.517,319.255,411.493,319.255z"/>
						</g>
						<g>
							<g>
								<path fill="#D0AD8E" d="M492.432,265.162c-1.025,1.312-2.051,2.629-3.066,3.949c-0.554-0.377-1.108-0.758-1.662-1.138
									c0.502-1.046,1.005-2.087,1.508-3.134c-0.346-0.053-0.694-0.1-1.042-0.152c1.032-1.029,2.083-2.033,3.129-3.049
									c0.632,0.299,1.257,0.621,1.903,0.896C492.941,263.408,492.651,264.279,492.432,265.162z"/>
							</g>
							<g>
								<path fill="#9AAFA2" d="M484.111,224.09c-0.218,0.361-0.317,0.801-0.365,1.24c-0.195,1.826,0.328,3.563,1.338,4.966
									c1.6,2.222,3.824,3.752,5.498,5.827c1.916,2.373,3.458,4.896,5.038,7.485c-1.335,6.437-3.102,12.579-5.727,18.739
									c1.303,0.538,2.597,1.095,3.906,1.623c4.758-7.437,8.07-15.072,11.334-23.109c-2.391-3.592-4.732-7.102-7.414-10.521
									c-2.405-3.067-4.632-6.457-8.382-8.066C487.219,221.365,485.316,222.088,484.111,224.09z"/>
							</g>
						</g>
					</g>
				</g>
			</g>
		</g>
	</g>
</g>
</svg>
