<?xml version="1.0" encoding="utf-8"?>
<!-- Generator: Adobe Illustrator 16.0.0, SVG Export Plug-In . SVG Version: 6.00 Build 0)  -->
<!DOCTYPE svg PUBLIC "-//W3C//DTD SVG 1.1//EN" "http://www.w3.org/Graphics/SVG/1.1/DTD/svg11.dtd">
<svg version="1.1" xmlns="http://www.w3.org/2000/svg" xmlns:xlink="http://www.w3.org/1999/xlink" x="0px" y="0px" width="200px"
	 height="200px" viewBox="0 0 200 200" enable-background="new 0 0 200 200" xml:space="preserve">
<g id="Calque_1" display="none">
</g>
<g id="Calque_2">
</g>
<g id="icons">
</g>
<g id="svg">
	<circle fill="#F7F2EB" cx="99.425" cy="99.101" r="94.654"/>
	<g>
		<g>
			<g>
				<path fill="#EFD4A8" d="M141.936,91.031c-0.984-16.724-14.768-30.091-31.385-30.091c-10.091,0-19.859,4.949-25.914,13.021
					c-0.139-0.072-0.285-0.122-0.428-0.188c-0.367-0.18-0.742-0.35-1.121-0.501c-0.213-0.084-0.424-0.159-0.638-0.233
					c-0.378-0.134-0.761-0.25-1.151-0.355c-0.211-0.058-0.425-0.118-0.641-0.165c-0.417-0.096-0.844-0.168-1.275-0.233
					c-0.188-0.028-0.371-0.063-0.561-0.086c-0.617-0.068-1.242-0.111-1.877-0.111c-9.219,0-16.722,7.501-16.722,16.724
					c0,0.235,0.017,0.468,0.031,0.701v0.007c-7.729,4.214-13.036,13.04-13.036,21.875c0,13.161,10.706,23.869,23.865,23.869h45.539
					c0.193,0,0.384-0.012,0.576-0.026l0.117-0.015l0.249,0.015c0.188,0.015,0.378,0.026,0.571,0.026h18.217
					c12.322,0,22.348-10.026,22.348-22.35C158.701,102.717,151.592,93.57,141.936,91.031z"/>
			</g>
			<g>
				<path fill="#A88267" d="M130.174,88.034c-0.929-15.795-13.949-28.421-29.645-28.421c-9.529,0-18.758,4.674-24.477,12.299
					c-0.13-0.068-0.27-0.115-0.402-0.178c-0.349-0.169-0.701-0.328-1.061-0.473c-0.199-0.078-0.399-0.15-0.602-0.221
					c-0.357-0.125-0.718-0.235-1.087-0.336c-0.2-0.055-0.401-0.109-0.606-0.155c-0.394-0.09-0.797-0.158-1.205-0.22
					c-0.177-0.027-0.35-0.062-0.529-0.081c-0.582-0.063-1.172-0.105-1.77-0.105c-8.712,0-15.796,7.084-15.796,15.796
					c0,0.223,0.013,0.441,0.026,0.662v0.007c-7.298,3.98-12.312,12.316-12.312,20.661c0,12.432,10.111,22.545,22.544,22.545h43.01
					c0.184,0,0.365-0.009,0.547-0.023l0.109-0.015l0.236,0.015c0.178,0.015,0.357,0.023,0.541,0.023h17.205
					c11.639,0,21.109-9.469,21.109-21.108C146.012,99.073,139.295,90.432,130.174,88.034z"/>
			</g>
			<path fill="#F7F2EB" d="M124.902,126.305h-17.205c-0.104,0-0.203-0.008-0.306-0.015l-0.474-0.02l-0.35,0.02
				c-0.1,0.007-0.201,0.015-0.305,0.015h-43.01c-10.496,0-19.035-8.537-19.035-19.035c0-7.29,4.748-14.857,11.291-17.994
				l0.996-0.477v-1.104c0-0.223,0.012-0.449,0.025-0.678l0.016-0.28l-0.021-0.368c-0.011-0.143-0.021-0.284-0.021-0.429
				c0-6.772,5.513-12.285,12.285-12.285c0.541,0,1.076,0.048,1.608,0.117c0.137,0.017,0.274,0.042,0.409,0.062
				c0.469,0.078,0.93,0.18,1.385,0.312c0.061,0.018,0.124,0.03,0.186,0.048c0.5,0.152,0.988,0.346,1.467,0.562
				c0.124,0.057,0.244,0.12,0.367,0.179c0.422,0.209,0.833,0.438,1.231,0.695c3.382,2.189,5.632,5.99,5.632,10.311
				c0,0.97,0.784,1.755,1.754,1.755c0.971,0,1.756-0.785,1.756-1.755c0-4.832-2.188-9.16-5.617-12.059
				c5.032-6.582,13.316-10.758,21.561-10.758c13.594,0,24.881,10.768,26.06,24.374c-1.794-0.124-4.479-0.19-7.167,0.219
				c-0.957,0.146-1.615,1.04-1.469,1.998c0.131,0.868,0.879,1.493,1.73,1.493c0.089,0,0.178-0.009,0.266-0.022
				c3.908-0.591,7.981-0.036,8.221-0.002c8.171,1.553,14.33,9.08,14.33,17.523C142.5,118.409,134.605,126.305,124.902,126.305z"/>
		</g>
		<g>
			<path fill="#A88267" d="M27.11,126.373c-4.35-13.651-4.578-27.647-1.388-40.636c-0.944-0.217-1.796-0.614-2.662-0.987
				c-3.393,13.568-3.188,28.205,1.359,42.481c9.859,30.944,37.334,51.474,67.846,54.06c0.116-0.905,0.435-1.861,0.383-2.801
				C63.186,176.051,36.629,156.249,27.11,126.373z"/>
			<path fill="#A88267" d="M170.512,138.064c3.076-5.732,5.48-11.942,7.082-18.551c8.678-35.861-9.055-72.041-40.656-87.998
				c-0.236,0.977-0.316,1.979-0.506,2.917c29.975,15.575,46.711,50.146,38.418,84.416c-1.605,6.629-4.053,12.836-7.191,18.543
				C168.631,137.594,169.59,137.796,170.512,138.064z"/>
			<circle fill="none" cx="102.223" cy="100.362" r="73.283"/>
			<text transform="matrix(0.357 -0.9341 0.9341 0.357 31.252 80.7441)"><tspan x="0" y="0" fill="#A88267" font-family="'Nunito-Bold'" font-size="23.5197">E</tspan><tspan x="13.085" y="-0.395" fill="#A88267" font-family="'Nunito-Bold'" font-size="23.5197" rotate="12.348">M</tspan><tspan x="31.643" y="4.179" fill="#A88267" font-family="'Nunito-Bold'" font-size="23.5197" rotate="22.139">I</tspan><tspan x="37.381" y="6.157" fill="#A88267" font-family="'Nunito-Bold'" font-size="23.5197" rotate="30.186">S</tspan><tspan x="49.758" y="13.274" fill="#A88267" font-family="'Nunito-Bold'" font-size="23.5197" rotate="41.357">S</tspan><tspan x="60.432" y="23.01" fill="#A88267" font-family="'Nunito-Bold'" font-size="23.5197" rotate="49.345">I</tspan><tspan x="64.751" y="27.245" fill="#A88267" font-family="'Nunito-Bold'" font-size="23.5197" rotate="58.53">O</tspan><tspan x="73.933" y="42.142" fill="#A88267" font-family="'Nunito-Bold'" font-size="23.5197" rotate="71.822">N</tspan><tspan x="79.116" y="58.081" fill="#A88267" font-family="'Nunito-Bold'" font-size="23.5197" rotate="83.957">S</tspan></text>
			<path fill="none" d="M184.65,115.887c8.576-46.773-22.389-91.642-69.162-100.213C68.717,7.102,23.852,38.064,15.277,84.835
				c-8.576,46.774,22.389,91.64,69.162,100.215C131.213,193.623,176.08,162.658,184.65,115.887z"/>
			<text transform="matrix(0.9821 -0.1886 0.1886 0.9821 108.4775 186.4229)"><tspan x="0" y="0" fill="#A88267" font-family="'Nunito-Bold'" font-size="23.1515">C</tspan><tspan x="17.955" y="-0.169" fill="#A88267" font-family="'Nunito-Bold'" font-size="23.1515" rotate="-12.441">A</tspan><tspan x="36.888" y="-4.664" fill="#A88267" font-family="'Nunito-Bold'" font-size="23.1515" rotate="-24.939">R</tspan><tspan x="53.162" y="-12.577" fill="#A88267" font-family="'Nunito-Bold'" font-size="23.1515" rotate="-36.101">E</tspan></text>
			<path fill="#EFD4A8" d="M20.877,128.538c-4.729-14.85-4.98-30.072-1.51-44.203c-1.025-0.234-1.951-0.668-2.895-1.072
				c-3.689,14.757-3.469,30.68,1.479,46.207c10.723,33.658,40.611,55.987,73.798,58.802c0.126-0.984,0.472-2.025,0.415-3.046
				C60.114,182.571,31.23,161.032,20.877,128.538z"/>
			<path fill="#EFD4A8" d="M176.5,141.465c3.348-6.234,5.963-12.988,7.707-20.179c9.438-39.006-9.852-78.359-44.226-95.716
				c-0.253,1.064-0.343,2.154-0.549,3.174c32.604,16.94,50.808,54.543,41.788,91.82c-1.748,7.21-4.406,13.962-7.822,20.17
				C174.455,140.953,175.502,141.173,176.5,141.465z"/>
		</g>
		<rect x="56.336" y="98.668" fill="none" width="70.859" height="18.478"/>
		<text transform="matrix(1 0 0 1 67.5645 115.3662)" fill="#A88267" font-family="'Nunito-Bold'" font-size="23.5198">CO2</text>
	</g>
</g>
<g id="bg">
</g>
<g id="ui">
</g>
</svg>
