<?xml version="1.0" encoding="utf-8"?>
<!-- Generator: Adobe Illustrator 16.0.0, SVG Export Plug-In . SVG Version: 6.00 Build 0)  -->
<!DOCTYPE svg PUBLIC "-//W3C//DTD SVG 1.1//EN" "http://www.w3.org/Graphics/SVG/1.1/DTD/svg11.dtd">
<svg version="1.1" xmlns="http://www.w3.org/2000/svg" xmlns:xlink="http://www.w3.org/1999/xlink" x="0px" y="0px" width="200px"
	 height="200px" viewBox="0 0 200 200" enable-background="new 0 0 200 200" xml:space="preserve">
<g id="Calque_1" display="none">
</g>
<g id="Calque_2">
</g>
<g id="icons">
</g>
<g id="svg">
	<circle fill="#F7F2EB" cx="99.425" cy="99.101" r="94.654"/>
	<g>
		<g>
			<g>
				<path fill="#A88267" d="M24.383,115.447c-2.655-14.365-1.102-28.55,3.786-41.281c-0.929-0.34-1.739-0.853-2.567-1.339
					c-5.163,13.291-6.827,28.122-4.05,43.143c6.021,32.56,31.191,56.833,61.722,63.347c0.236-0.901,0.68-1.829,0.746-2.786
					C54.527,170.301,30.195,146.881,24.383,115.447z"/>
				<path fill="#A88267" d="M171.909,139.401c3.138-5.841,5.588-12.172,7.221-18.912c8.848-36.562-9.231-73.447-41.45-89.717
					c-0.24,0.998-0.323,2.019-0.516,2.976c30.561,15.879,47.624,51.125,39.167,86.064c-1.635,6.759-4.13,13.087-7.331,18.905
					C169.992,138.924,170.971,139.13,171.909,139.401z"/>
				<circle fill="none" cx="102.287" cy="100.965" r="74.714"/>
				<text transform="matrix(0.5731 -0.8195 0.8195 0.5731 36.6699 64.416)"><tspan x="0" y="0" fill="#A88267" font-family="'Nunito-Bold'" font-size="24.1462">E</tspan><tspan x="13.466" y="-0.149" fill="#A88267" font-family="'Nunito-Bold'" font-size="24.1462" rotate="10.031">T</tspan><tspan x="27.321" y="2.019" fill="#A88267" font-family="'Nunito-Bold'" font-size="24.1462" rotate="22.219">H</tspan><tspan x="43.623" y="9.124" fill="#A88267" font-family="'Nunito-Bold'" font-size="24.1462" rotate="31.393">I</tspan><tspan x="49.146" y="12.038" fill="#A88267" font-family="'Nunito-Bold'" font-size="24.1462" rotate="39.78">C</tspan><tspan x="61.196" y="21.842" fill="#A88267" font-family="'Nunito-Bold'" font-size="24.1462" rotate="52.152">A</tspan><tspan x="71.583" y="35.439" fill="#A88267" font-family="'Nunito-Bold'" font-size="24.1462" rotate="63.52">L</tspan></text>
				<circle fill="none" cx="99.984" cy="100.965" r="87.781"/>
				<text transform="matrix(0.9939 -0.1102 0.1102 0.9939 96.3398 189.7129)"><tspan x="0" y="0" fill="#A88267" font-family="'Nunito-Bold'" font-size="24.1462">W</tspan><tspan x="29.996" y="-1.082" fill="#A88267" font-family="'Nunito-Bold'" font-size="24.1462" rotate="-16.991">O</tspan><tspan x="50.252" y="-7.696" fill="#A88267" font-family="'Nunito-Bold'" font-size="24.1462" rotate="-30.133">R</tspan><tspan x="66.648" y="-17.55" fill="#A88267" font-family="'Nunito-Bold'" font-size="24.1462" rotate="-42.296">K</tspan></text>
				<path fill="#EFD4A8" d="M17.802,116.84c-2.89-15.624-1.197-31.053,4.117-44.903c-1.008-0.37-1.891-0.926-2.791-1.455
					c-5.617,14.457-7.427,30.589-4.405,46.927c6.549,35.415,33.929,61.817,67.137,68.902c0.254-0.981,0.737-1.988,0.812-3.029
					C50.59,176.504,24.124,151.03,17.802,116.84z"/>
				<path fill="#EFD4A8" d="M178.015,142.87c3.412-6.356,6.08-13.241,7.856-20.572c9.622-39.769-10.043-79.889-45.088-97.584
					c-0.259,1.083-0.349,2.195-0.56,3.235c33.241,17.271,51.8,55.607,42.604,93.613c-1.779,7.351-4.492,14.234-7.976,20.563
					C175.931,142.35,176.996,142.573,178.015,142.87z"/>
			</g>
		</g>
	</g>
	<g>
		<g>
			<g>
				<g>
					<g>
						<g>
							<path fill="#EFD4A8" d="M96.842,130.52c-0.369-7.204-4.344-13.738-10.573-17.379l-9.953-11.058
								c-1.337-1.518-3.415-2.155-5.373-1.651V81.529c0-3.182-2.58-5.763-5.764-5.763c-3.183,0-5.763,2.581-5.763,5.763v27.272
								c0,2.204,0.563,4.373,1.631,6.301l12.777,22.992v5.394c0,0.794,0.645,1.439,1.439,1.439h20.172
								c0.797,0,1.442-0.646,1.442-1.439V130.52H96.842z M93.995,142.047h-17.29v-4.323c0-0.245-0.062-0.487-0.182-0.701
								L63.567,113.7c-0.833-1.499-1.269-3.185-1.271-4.898V81.529c0-1.59,1.288-2.879,2.882-2.879c1.591,0,2.883,1.289,2.883,2.879
								v20.682c-1.804,2.095-1.763,5.206,0.096,7.252l11.804,12.987l2.133-1.939L70.29,107.524
								c-0.941-1.034-0.904-2.626,0.084-3.614c1.022-1.022,2.681-1.023,3.704-0.002c0.034,0.033,0.066,0.066,0.096,0.102
								l10.105,11.228c0.128,0.13,0.274,0.241,0.433,0.332c5.735,3.285,9.276,9.386,9.283,15.994V142.047z"/>
						</g>
					</g>
					<g>
						<g>
							<path fill="#EFD4A8" d="M140.103,75.767c-3.183,0-5.763,2.581-5.763,5.763v18.902c-0.468-0.117-0.948-0.176-1.43-0.17
								c-1.512,0.034-2.939,0.693-3.946,1.82l-9.948,11.055c-6.238,3.635-10.217,10.174-10.577,17.383h-0.034v12.969
								c0,0.794,0.646,1.439,1.44,1.439h20.172c0.797,0,1.441-0.646,1.441-1.439v-5.394l12.616-22.87
								c1.173-1.993,1.79-4.264,1.793-6.574V81.529C145.867,78.348,143.285,75.767,140.103,75.767z"/>
						</g>
					</g>
				</g>
			</g>
			<g>
				<g>
					<path fill="#EFD4A8" d="M96.842,130.52c-0.369-7.204-4.344-13.738-10.573-17.379l-9.953-11.058
						c-1.337-1.518-3.415-2.155-5.373-1.651V81.529c0-3.182-2.58-5.763-5.764-5.763c-3.183,0-5.763,2.581-5.763,5.763v27.272
						c0,2.204,0.563,4.373,1.631,6.301l12.777,22.992v5.394c0,0.794,0.645,1.439,1.439,1.439h20.172
						c0.797,0,1.442-0.646,1.442-1.439V130.52H96.842z"/>
				</g>
			</g>
		</g>
		<g>
			<g>
				<g>
					<g>
						<g>
							<path fill="#A88267" d="M91.531,126.271c-0.37-7.206-4.344-13.738-10.573-17.379l-9.953-11.058
								c-1.338-1.517-3.415-2.154-5.375-1.651V77.281c0-3.184-2.579-5.764-5.764-5.764c-3.182,0-5.763,2.58-5.763,5.764v27.271
								c0.001,2.205,0.563,4.372,1.634,6.301l12.774,22.994v5.39c0,0.797,0.646,1.442,1.44,1.442h20.174
								c0.794,0,1.439-0.646,1.439-1.442v-12.967H91.531z M88.685,137.798h-17.29v-4.323c0-0.245-0.063-0.486-0.183-0.701
								l-12.957-23.322c-0.831-1.499-1.268-3.185-1.27-4.898V77.281c0-1.592,1.289-2.881,2.881-2.881
								c1.593,0,2.884,1.289,2.884,2.881v20.681c-1.804,2.095-1.763,5.206,0.095,7.252l11.806,12.987l2.132-1.939l-11.805-12.986
								c-0.941-1.035-0.903-2.626,0.087-3.615c1.021-1.021,2.679-1.023,3.701-0.001c0.034,0.035,0.067,0.068,0.099,0.102
								l10.103,11.228c0.13,0.129,0.275,0.242,0.434,0.332c5.734,3.285,9.275,9.386,9.284,15.994V137.798z"/>
						</g>
					</g>
					<g>
						<g>
							<path fill="#A88267" d="M134.792,71.518c-3.185,0-5.765,2.58-5.765,5.764v18.901c-0.465-0.119-0.947-0.175-1.43-0.17
								c-1.509,0.033-2.938,0.691-3.945,1.819l-9.949,11.056c-6.237,3.634-10.216,10.173-10.577,17.383h-0.034v12.967
								c0,0.797,0.646,1.442,1.442,1.442h20.171c0.796,0,1.44-0.646,1.44-1.442v-5.393l12.617-22.868
								c1.172-1.994,1.791-4.263,1.792-6.575v-27.12C140.555,74.098,137.974,71.518,134.792,71.518z"/>
						</g>
					</g>
				</g>
			</g>
			<path fill="#F7F2EB" d="M88.685,137.798h-17.29v-4.323c0-0.245-0.063-0.486-0.183-0.701l-12.957-23.322
				c-0.831-1.499-1.268-3.185-1.27-4.898V77.281c0-1.592,1.289-2.881,2.881-2.881c1.593,0,2.884,1.289,2.884,2.881v20.681
				c-1.804,2.095-1.763,5.206,0.095,7.252l11.806,12.987l2.132-1.939l-11.805-12.986c-0.941-1.035-0.903-2.626,0.087-3.615
				c1.021-1.021,2.679-1.023,3.701-0.001c0.034,0.035,0.067,0.068,0.099,0.102l10.103,11.228c0.13,0.129,0.275,0.242,0.434,0.332
				c5.734,3.285,9.275,9.386,9.284,15.994V137.798z"/>
			<path fill="#F7F2EB" d="M137.673,104.401c-0.001,1.812-0.49,3.588-1.412,5.148l-12.823,23.229
				c-0.116,0.214-0.176,0.453-0.172,0.695v4.323h-17.29v-10.483c0.017-6.635,3.586-12.751,9.355-16.029
				c0.134-0.075,0.255-0.173,0.359-0.288l10.104-11.237c0.972-1.075,2.629-1.16,3.702-0.188c1.075,0.971,1.158,2.627,0.188,3.702
				l-11.81,12.986l2.132,1.941l11.806-12.984c1.859-2.048,1.9-5.16,0.098-7.255V77.281c0-1.592,1.288-2.881,2.882-2.881
				c1.591,0,2.881,1.289,2.881,2.881V104.401z"/>
		</g>
		<g>
			<g>
				<g>
					<path fill="#EFD4A8" d="M118.683,75.264c-0.021-8.908-11.142-12.83-16.803-6.088c-1.742-2.063-4.367-3.377-7.286-3.37
						c-5.247,0.013-9.504,4.29-9.492,9.536c0.027,11.332,11.52,17.906,15.041,19.652c0.544,0.27,0.874,0.411,0.911,0.427
						c0.566,0.243,1.207,0.241,1.771-0.004C103.475,95.137,118.713,88.367,118.683,75.264z M101.926,90.88
						c-15.217-7.7-14.663-20.579-7.321-20.597c0.787-0.003,1.542,0.172,2.241,0.519c2.212,1.097,1.789,2.42,3.592,3.312
						c1.947,0.966,3.783-0.301,4.343-1.295c2.524-4.478,9.414-2.721,9.427,2.457C114.226,83.861,104.881,89.359,101.926,90.88z"/>
				</g>
			</g>
			<g>
				<g>
					<path fill="#A88267" d="M115.806,72.961c-0.022-8.908-11.145-12.831-16.804-6.088c-1.742-2.062-4.368-3.378-7.286-3.369
						c-5.247,0.012-9.504,4.289-9.492,9.535c0.026,11.332,11.521,17.907,15.041,19.652c0.543,0.27,0.874,0.41,0.911,0.428
						c0.565,0.243,1.208,0.239,1.771-0.006C100.595,92.833,115.835,86.064,115.806,72.961z M99.048,88.578
						c-15.217-7.701-14.663-20.58-7.322-20.599c0.788-0.002,1.542,0.173,2.242,0.521c2.212,1.095,1.79,2.418,3.592,3.311
						c1.946,0.965,3.782-0.301,4.342-1.296c2.523-4.477,9.413-2.72,9.426,2.457C111.348,81.56,102.003,87.056,99.048,88.578z"/>
				</g>
			</g>
			<path fill="#F7F2EB" d="M99.166,90.183c-17.117-8.66-16.494-23.148-8.237-23.167c0.887-0.004,1.736,0.193,2.521,0.582
				c2.49,1.234,2.015,2.723,4.04,3.727c2.191,1.085,4.255-0.34,4.884-1.457c2.84-5.036,10.59-3.061,10.604,2.763
				C113.001,82.289,102.489,88.472,99.166,90.183z"/>
		</g>
	</g>
	<g>
		<g>
			<g>
				<circle fill="none" cx="98.33" cy="317.532" r="73.47"/>
				<text transform="matrix(0.4891 -0.8722 0.8722 0.4891 30.3906 288.4707)"><tspan x="0" y="0" fill="#A88267" font-family="'Nunito-Bold'" font-size="22.4487">R</tspan><tspan x="14.933" y="0.045" fill="#A88267" font-family="'Nunito-Bold'" font-size="22.4487" rotate="10.558">E</tspan><tspan x="27.328" y="2.197" fill="#A88267" font-family="'Nunito-Bold'" font-size="22.4487" rotate="21.148">C</tspan><tspan x="40.905" y="7.446" fill="#A88267" font-family="'Nunito-Bold'" font-size="22.4487" rotate="32.055">Y</tspan><tspan x="52.219" y="14.386" fill="#A88267" font-family="'Nunito-Bold'" font-size="22.4487" rotate="42.834">C</tspan><tspan x="62.866" y="24.347" fill="#A88267" font-family="'Nunito-Bold'" font-size="22.4487" rotate="53.047">L</tspan><tspan x="70.058" y="33.769" fill="#A88267" font-family="'Nunito-Bold'" font-size="22.4487" rotate="62.525">E</tspan><tspan x="76.082" y="44.818" fill="#A88267" font-family="'Nunito-Bold'" font-size="22.4487" rotate="73.767">D</tspan></text>
			</g>
		</g>
	</g>
</g>
<g id="bg">
</g>
<g id="ui">
</g>
</svg>
