<?xml version="1.0" encoding="utf-8"?>
<!-- Generator: Adobe Illustrator 16.0.0, SVG Export Plug-In . SVG Version: 6.00 Build 0)  -->
<!DOCTYPE svg PUBLIC "-//W3C//DTD SVG 1.1//EN" "http://www.w3.org/Graphics/SVG/1.1/DTD/svg11.dtd">
<svg version="1.1" xmlns="http://www.w3.org/2000/svg" xmlns:xlink="http://www.w3.org/1999/xlink" x="0px" y="0px" width="200px"
	 height="200px" viewBox="0 0 200 200" enable-background="new 0 0 200 200" xml:space="preserve">
<g id="Calque_1" display="none">
</g>
<g id="Calque_2">
</g>
<g id="icons">
</g>
<g id="svg">
	<circle fill="#F7F2EB" cx="99.425" cy="99.101" r="94.654"/>
	<g>
		<path fill="#EFD4A8" d="M163.431,98.339c3.036-4.612,1.238-8.562-0.032-9.888c-2.837-3.602-6.52-5.664-10.946-6.131
			c-0.351-0.037-0.702-0.03-1.054-0.044c0.418-0.417,0.82-0.83,1.195-1.246c2.7-3.005,3.863-6.077,3.457-9.13
			c-0.623-4.674-4.763-7.398-4.938-7.515l-0.086-0.049c-7.232-4.102-14.473,2.158-14.779,2.427l-0.269,0.304
			c-0.109,0.155-0.208,0.337-0.316,0.498c-1.064-3.8-3.397-6.7-6.948-8.618c-0.841-0.568-6.188-3.888-11.834-0.419
			c-0.699,0.43-1.319,0.962-1.899,1.538c-1.764-0.346-3.693-0.338-5.539,0.487c-2.51,1.128-4.022,3.462-4.051,6.253
			c-0.024,2.966,1.69,5.696,4.372,6.959c2.454,1.154,5.465,3.418,8.445,7.773c-1.561,0.02-3.049,0.306-4.425,0.932
			c-8.214,3.721-37.694,55.443-42.34,71.838c-0.39,1.383-0.015,2.766,0.978,3.613c0.663,0.561,1.512,0.814,2.391,0.745
			c0.443-0.037,0.896-0.155,1.331-0.36c15.547-7.274,62.058-44.549,64.372-53.111c0.316-1.171,0.412-2.379,0.329-3.606
			c4.745,1.865,7.335,3.847,8.732,5.473c2.04,2.368,5.123,3.683,8.075,3.444l0.094-0.008c2.455-0.227,4.547-1.534,5.738-3.581
			c1.77-3.05,0.807-6.107-0.426-8.061C163.185,98.683,163.316,98.516,163.431,98.339z"/>
		<path fill="#A88267" d="M151.793,86.701c3.035-4.612,1.238-8.562-0.033-9.889c-2.838-3.601-6.52-5.663-10.945-6.13
			c-0.35-0.038-0.701-0.03-1.053-0.047c0.417-0.414,0.818-0.827,1.193-1.243c2.701-3.006,3.862-6.078,3.457-9.131
			c-0.624-4.674-4.764-7.397-4.938-7.514l-0.085-0.049c-7.231-4.102-14.474,2.157-14.779,2.427l-0.269,0.302
			c-0.109,0.158-0.209,0.339-0.316,0.498c-1.064-3.799-3.398-6.699-6.947-8.616c-0.842-0.568-6.189-3.89-11.836-0.42
			c-0.698,0.432-1.318,0.964-1.899,1.54c-1.765-0.348-3.694-0.339-5.538,0.485c-2.51,1.126-4.023,3.462-4.05,6.254
			c-0.026,2.966,1.688,5.696,4.37,6.96c2.454,1.154,5.467,3.417,8.447,7.771c-1.561,0.021-3.049,0.308-4.428,0.933
			c-8.211,3.721-37.693,55.443-42.337,71.838c-0.392,1.384-0.018,2.766,0.976,3.611c0.664,0.562,1.512,0.816,2.391,0.748
			c0.443-0.039,0.896-0.156,1.332-0.361c15.547-7.273,62.058-44.547,64.372-53.11c0.316-1.172,0.413-2.379,0.329-3.606
			c4.745,1.865,7.333,3.846,8.733,5.473c2.04,2.368,5.122,3.682,8.071,3.443l0.097-0.007c2.454-0.229,4.547-1.534,5.738-3.581
			c1.771-3.051,0.806-6.109-0.427-8.061C151.547,87.044,151.679,86.876,151.793,86.701z M149.224,78.98
			c0.209,0.233,1.949,2.328-0.048,5.613c-0.076-0.078-0.155-0.146-0.232-0.223c-0.133-0.13-0.266-0.255-0.4-0.383
			c-0.344-0.326-0.688-0.637-1.035-0.936c-0.107-0.092-0.211-0.183-0.318-0.271c-5.623-4.683-11.693-5.806-17.082-5.369
			c-1.913,0.155-3.738,0.505-5.429,0.957c0.177-0.097,0.362-0.196,0.544-0.291c0.252-0.137,0.504-0.275,0.762-0.408
			c0.279-0.146,0.559-0.287,0.848-0.428c0.237-0.118,0.483-0.233,0.728-0.349c0.45-0.21,0.905-0.416,1.37-0.614
			c0.289-0.125,0.579-0.25,0.873-0.365c0.285-0.112,0.574-0.223,0.861-0.329c0.32-0.118,0.643-0.229,0.969-0.339
			c0.316-0.105,0.639-0.211,0.959-0.308c0.453-0.135,0.907-0.259,1.364-0.37c0.245-0.06,0.492-0.112,0.737-0.164
			c1.936-0.412,3.889-0.597,5.777-0.4C144.014,74.381,146.848,75.975,149.224,78.98z M126.965,57.51
			c0.915-0.738,6.012-4.561,10.728-1.934c0.318,0.219,3.019,2.185,3.41,5.127c0.271,2.039-0.615,4.213-2.632,6.458
			c-1.182,1.315-2.643,2.642-4.344,3.939c-0.221,0.047-0.438,0.109-0.654,0.162c-0.461,0.106-0.92,0.215-1.373,0.341
			c-0.315,0.09-0.621,0.189-0.932,0.288c-0.357,0.111-0.715,0.224-1.066,0.347c-0.328,0.114-0.648,0.232-0.97,0.356
			c-0.325,0.124-0.646,0.249-0.962,0.38c-0.332,0.134-0.656,0.271-0.977,0.411c-0.293,0.128-0.574,0.258-0.855,0.389
			c-0.333,0.155-0.666,0.308-0.988,0.468c-0.221,0.107-0.432,0.219-0.646,0.328c-1.397,0.717-2.693,1.454-3.851,2.166
			c-0.017,0.01-0.036,0.021-0.05,0.031c0.866-1.974,1.757-4.303,2.471-6.796c0.045-0.155,0.095-0.308,0.137-0.464
			c0.121-0.444,0.229-0.896,0.34-1.348c0.057-0.247,0.122-0.492,0.176-0.741c0.093-0.428,0.172-0.858,0.25-1.293
			c0.05-0.273,0.102-0.547,0.145-0.825c0.064-0.426,0.118-0.852,0.168-1.279c0.031-0.286,0.062-0.566,0.085-0.854
			c0.036-0.422,0.062-0.846,0.074-1.266c0.005-0.148,0.022-0.296,0.026-0.442C125.418,59.979,126.169,58.683,126.965,57.51z
			 M107.051,49.699c4.074-2.456,8.017,0.276,8.176,0.39c0.064,0.044,0.127,0.087,0.192,0.122c2.819,1.501,4.591,3.686,5.411,6.674
			c0.352,1.275,0.498,2.629,0.508,4.02v0.152c-0.002,2.638-0.53,5.401-1.277,7.989c-0.061-1.603-0.27-3.239-0.674-4.872
			c-0.012-0.053-0.027-0.101-0.041-0.15c-0.091-0.354-0.189-0.705-0.297-1.059c-0.066-0.215-0.141-0.432-0.216-0.645
			c-0.06-0.176-0.122-0.354-0.189-0.527c-0.109-0.293-0.228-0.582-0.348-0.869c-0.034-0.079-0.069-0.157-0.105-0.234
			c-1.005-2.264-2.479-4.438-4.573-6.415c-0.057-0.052-0.115-0.108-0.174-0.162c-0.299-0.276-0.604-0.547-0.928-0.813
			c-0.157-0.13-0.322-0.257-0.484-0.385c-0.25-0.194-0.492-0.391-0.756-0.578c-0.48-0.35-0.978-0.69-1.505-1.021
			c-0.003-0.004-0.015-0.01-0.022-0.015c-0.143-0.106-0.453-0.323-0.897-0.603c0,0-0.005-0.005-0.009-0.007
			c-0.453-0.282-1.037-0.618-1.729-0.957C107.092,49.72,107.074,49.709,107.051,49.699z M99.549,59.105
			c-1.504-0.708-2.466-2.242-2.453-3.907c0.008-0.695,0.223-2.404,2.074-3.233c0.523-0.233,1.068-0.361,1.623-0.406
			c0.883-0.07,1.781,0.07,2.641,0.312c0,0,0,0,0.004,0.001c0.021,0.007,0.041,0.013,0.064,0.02c0.296,0.085,0.586,0.181,0.867,0.284
			c0.137,0.054,0.266,0.112,0.4,0.166c0.227,0.093,0.451,0.188,0.661,0.287c0.083,0.039,0.163,0.078,0.243,0.117
			c0.936,0.465,1.664,0.941,2.025,1.188c0.068,0.05,0.112,0.084,0.122,0.085c0.04,0.034,0.081,0.061,0.126,0.091
			c0.771,0.479,1.484,0.991,2.15,1.53c0.191,0.153,0.351,0.318,0.529,0.475c0.462,0.397,0.908,0.803,1.318,1.229
			c0.18,0.19,0.336,0.383,0.502,0.574c0.377,0.433,0.736,0.876,1.064,1.338c0.13,0.181,0.252,0.363,0.371,0.543
			c0.359,0.554,0.693,1.124,0.984,1.716c0.044,0.092,0.096,0.183,0.143,0.274c1.42,3.027,1.975,6.552,1.635,10.555
			c-0.235,2.773-0.874,5.326-1.513,7.311c-0.363-0.987-0.741-1.918-1.118-2.82c-0.062-0.152-0.128-0.297-0.191-0.445
			c-0.35-0.82-0.709-1.607-1.07-2.358c-0.062-0.127-0.121-0.258-0.183-0.384C108.25,64.872,103.336,60.885,99.549,59.105z
			 M148.955,93.597c-0.832,1.433-2.176,1.844-3.156,1.933c-0.021,0.002-0.041,0.003-0.062,0.005
			c-1.899,0.154-3.913-0.722-5.269-2.293c-2.559-2.974-6.898-5.449-12.9-7.415c-0.009-0.004-0.016-0.014-0.029-0.019
			c-0.066-0.021-0.139-0.039-0.205-0.062c-0.521-0.17-1.066-0.33-1.614-0.49c-0.473-0.142-0.952-0.279-1.446-0.411
			c-0.498-0.136-1.002-0.27-1.525-0.401c-0.715-0.179-1.455-0.35-2.203-0.517c-0.281-0.063-0.537-0.131-0.823-0.192
			c0.13-0.064,0.28-0.128,0.415-0.193c0.047-0.018,0.101-0.011,0.147-0.03c5.042-2.315,13.776-4.868,21.917-0.146
			c0.419,0.245,0.837,0.533,1.254,0.821c0.201,0.135,0.404,0.25,0.602,0.396c1.266,0.932,2.511,2.06,3.721,3.405l0.235,0.267
			c0.007,0.006,0.019,0.01,0.019,0.018C148.665,88.999,150.309,91.27,148.955,93.597z M125.654,92.684
			c-0.695,2.567-6.51,8.516-14.437,15.504c-0.146-0.047-0.288-0.1-0.452-0.105c-2.741-0.078-6.377-1.197-8.316-3.524
			c-0.59-0.709-1.646-0.802-2.354-0.211c-0.709,0.589-0.803,1.643-0.213,2.352c2.059,2.468,5.195,3.812,8,4.386
			c-4.982,4.266-10.551,8.779-16.109,13.074c-0.266-0.198-0.575-0.341-0.929-0.354c-1.724-0.046-3.997-0.74-5.195-2.175
			c-0.589-0.707-1.644-0.803-2.351-0.209c-0.708,0.589-0.806,1.643-0.213,2.352c1.362,1.634,3.371,2.567,5.242,3.024
			c-10.221,7.74-19.935,14.366-25.236,16.848c-0.034,0.014-0.066,0.028-0.091,0.04c0.003-0.027,0.013-0.063,0.022-0.1
			c1.051-3.711,3.154-8.768,5.862-14.461c0.067,0.056,0.111,0.127,0.184,0.173c1.267,0.779,2.601,1.438,3.956,1.958
			c0.242,0.091,0.492,0.123,0.732,0.104c0.621-0.051,1.188-0.449,1.428-1.068c0.328-0.863-0.104-1.829-0.964-2.155
			c-1.167-0.445-2.309-1.012-3.401-1.681c-0.17-0.105-0.355-0.164-0.541-0.2c3.37-6.83,7.471-14.364,11.654-21.558
			c0.768,1.599,1.95,3.182,3.598,4.155c0.309,0.183,0.65,0.254,0.983,0.227c0.523-0.042,1.017-0.328,1.306-0.812
			c0.468-0.795,0.205-1.819-0.59-2.289c-1.607-0.953-2.656-3.085-2.98-4.775c-0.017-0.096-0.072-0.17-0.104-0.259
			c3.266-5.476,6.504-10.615,9.414-14.926c1.016,2.681,2.85,5.569,5.623,7.206c0.307,0.181,0.649,0.255,0.982,0.229
			c0.523-0.045,1.02-0.331,1.307-0.817c0.465-0.795,0.205-1.817-0.59-2.286c-2.607-1.542-4.297-4.947-4.815-7.639
			c-0.015-0.072-0.056-0.127-0.078-0.194c3.386-4.761,6.111-7.988,7.542-8.638c0.793-0.361,1.627-0.575,2.51-0.647
			c0.836-0.067,1.719-0.007,2.655,0.183c0.866,1.595,1.682,3.34,2.448,5.204c0.049,0.122,0.098,0.241,0.146,0.364
			c0.319,0.788,0.624,1.606,0.924,2.438c0.065,0.188,0.134,0.365,0.204,0.556c0.343,0.989,0.678,2.003,0.996,3.048
			c0.021,0.069,0.059,0.127,0.088,0.193c0.028,0.063,0.051,0.133,0.088,0.191c0.008,0.018,0.018,0.035,0.031,0.052
			c0.029,0.049,0.076,0.086,0.109,0.128c0.011,0.013,0.02,0.024,0.031,0.035c0.041,0.049,0.078,0.102,0.126,0.146
			c0.01,0.008,0.019,0.021,0.028,0.03l0.002-0.002c0.004,0.006,0.011,0.009,0.015,0.011c0.052,0.043,0.11,0.073,0.167,0.11
			c0.014,0.01,0.027,0.016,0.038,0.027c0.046,0.029,0.089,0.064,0.136,0.091c0.018,0.009,0.039,0.015,0.061,0.022
			c0.043,0.02,0.085,0.03,0.126,0.046c0.039,0.013,0.076,0.02,0.116,0.032c0.053,0.014,0.102,0.041,0.154,0.049
			c0.977,0.166,1.928,0.342,2.855,0.524c0.212,0.041,0.408,0.089,0.617,0.128c0.727,0.149,1.447,0.303,2.146,0.463
			c0.179,0.041,0.346,0.081,0.523,0.126c0.726,0.172,1.441,0.349,2.133,0.533c0.119,0.029,0.238,0.062,0.356,0.094
			c0.791,0.214,1.564,0.437,2.304,0.666h0.004C126.003,90.105,125.997,91.412,125.654,92.684z"/>
		<path fill="#F7F2EB" d="M125.654,92.684c-0.695,2.567-6.51,8.516-14.437,15.504c-0.146-0.047-0.288-0.1-0.452-0.105
			c-2.741-0.078-6.377-1.197-8.316-3.524c-0.59-0.709-1.646-0.802-2.354-0.211c-0.709,0.589-0.803,1.643-0.213,2.352
			c2.059,2.468,5.195,3.812,8,4.386c-4.982,4.266-10.551,8.779-16.109,13.074c-0.266-0.198-0.575-0.341-0.929-0.354
			c-1.724-0.046-3.997-0.74-5.195-2.175c-0.589-0.707-1.644-0.803-2.351-0.209c-0.708,0.589-0.806,1.643-0.213,2.352
			c1.362,1.634,3.371,2.567,5.242,3.024c-10.221,7.74-19.935,14.366-25.236,16.848c-0.034,0.014-0.066,0.028-0.091,0.04
			c0.003-0.027,0.013-0.063,0.022-0.1c1.051-3.711,3.154-8.768,5.862-14.461c0.067,0.056,0.111,0.127,0.184,0.173
			c1.267,0.779,2.601,1.438,3.956,1.958c0.242,0.091,0.492,0.123,0.732,0.104c0.621-0.051,1.188-0.449,1.428-1.068
			c0.328-0.863-0.104-1.829-0.964-2.155c-1.167-0.445-2.309-1.012-3.401-1.681c-0.17-0.105-0.355-0.164-0.541-0.2
			c3.37-6.83,7.471-14.364,11.654-21.558c0.768,1.599,1.95,3.182,3.598,4.155c0.309,0.183,0.65,0.254,0.983,0.227
			c0.523-0.042,1.017-0.328,1.306-0.812c0.468-0.795,0.205-1.819-0.59-2.289c-1.607-0.953-2.656-3.085-2.98-4.775
			c-0.017-0.096-0.072-0.17-0.104-0.259c3.266-5.476,6.504-10.615,9.414-14.926c1.016,2.681,2.85,5.569,5.623,7.206
			c0.307,0.181,0.649,0.255,0.982,0.229c0.523-0.045,1.02-0.331,1.307-0.817c0.465-0.795,0.205-1.817-0.59-2.286
			c-2.607-1.542-4.297-4.947-4.815-7.639c-0.015-0.072-0.056-0.127-0.078-0.194c3.386-4.761,6.111-7.988,7.542-8.638
			c0.793-0.361,1.627-0.575,2.51-0.647c0.836-0.067,1.719-0.007,2.655,0.183c0.866,1.595,1.682,3.34,2.448,5.204
			c0.049,0.122,0.098,0.241,0.146,0.364c0.319,0.788,0.624,1.606,0.924,2.438c0.065,0.188,0.134,0.365,0.204,0.556
			c0.343,0.989,0.678,2.003,0.996,3.048c0.021,0.069,0.059,0.127,0.088,0.193c0.028,0.063,0.051,0.133,0.088,0.191
			c0.008,0.018,0.018,0.035,0.031,0.052c0.029,0.049,0.076,0.086,0.109,0.128c0.011,0.013,0.02,0.024,0.031,0.035
			c0.041,0.049,0.078,0.102,0.126,0.146c0.01,0.008,0.019,0.021,0.028,0.03l0.002-0.002c0.004,0.006,0.011,0.009,0.015,0.011
			c0.052,0.043,0.11,0.073,0.167,0.11c0.014,0.01,0.027,0.016,0.038,0.027c0.046,0.029,0.089,0.064,0.136,0.091
			c0.018,0.009,0.039,0.015,0.061,0.022c0.043,0.02,0.085,0.03,0.126,0.046c0.039,0.013,0.076,0.02,0.116,0.032
			c0.053,0.014,0.102,0.041,0.154,0.049c0.977,0.166,1.928,0.342,2.855,0.524c0.212,0.041,0.408,0.089,0.617,0.128
			c0.727,0.149,1.447,0.303,2.146,0.463c0.179,0.041,0.346,0.081,0.523,0.126c0.726,0.172,1.441,0.349,2.133,0.533
			c0.119,0.029,0.238,0.062,0.356,0.094c0.791,0.214,1.564,0.437,2.304,0.666h0.004C126.003,90.105,125.997,91.412,125.654,92.684z"
			/>
		<path fill="#F7F2EB" d="M149.224,78.98c0.209,0.233,1.949,2.328-0.048,5.613c-0.076-0.078-0.155-0.146-0.232-0.223
			c-0.133-0.13-0.266-0.255-0.4-0.383c-0.344-0.326-0.688-0.637-1.035-0.936c-0.107-0.092-0.211-0.183-0.318-0.271
			c-5.623-4.683-11.693-5.806-17.082-5.369c-1.913,0.155-3.738,0.505-5.429,0.957c0.177-0.097,0.362-0.196,0.544-0.291
			c0.252-0.137,0.504-0.275,0.762-0.408c0.279-0.146,0.559-0.287,0.848-0.428c0.237-0.118,0.483-0.233,0.728-0.349
			c0.45-0.21,0.905-0.416,1.37-0.614c0.289-0.125,0.579-0.25,0.873-0.365c0.285-0.112,0.574-0.223,0.861-0.329
			c0.32-0.118,0.643-0.229,0.969-0.339c0.316-0.105,0.639-0.211,0.959-0.308c0.453-0.135,0.907-0.259,1.364-0.37
			c0.245-0.06,0.492-0.112,0.737-0.164c1.936-0.412,3.889-0.597,5.777-0.4C144.014,74.381,146.848,75.975,149.224,78.98z"/>
		<path fill="#F7F2EB" d="M126.965,57.51c0.915-0.738,6.012-4.561,10.728-1.934c0.318,0.219,3.019,2.185,3.41,5.127
			c0.271,2.039-0.615,4.213-2.632,6.458c-1.182,1.315-2.643,2.642-4.344,3.939c-0.221,0.047-0.438,0.109-0.654,0.162
			c-0.461,0.106-0.92,0.215-1.373,0.341c-0.315,0.09-0.621,0.189-0.932,0.288c-0.357,0.111-0.715,0.224-1.066,0.347
			c-0.328,0.114-0.648,0.232-0.97,0.356c-0.325,0.124-0.646,0.249-0.962,0.38c-0.332,0.134-0.656,0.271-0.977,0.411
			c-0.293,0.128-0.574,0.258-0.855,0.389c-0.333,0.155-0.666,0.308-0.988,0.468c-0.221,0.107-0.432,0.219-0.646,0.328
			c-1.397,0.717-2.693,1.454-3.851,2.166c-0.017,0.01-0.036,0.021-0.05,0.031c0.866-1.974,1.757-4.303,2.471-6.796
			c0.045-0.155,0.095-0.308,0.137-0.464c0.121-0.444,0.229-0.896,0.34-1.348c0.057-0.247,0.122-0.492,0.176-0.741
			c0.093-0.428,0.172-0.858,0.25-1.293c0.05-0.273,0.102-0.547,0.145-0.825c0.064-0.426,0.118-0.852,0.168-1.279
			c0.031-0.286,0.062-0.566,0.085-0.854c0.036-0.422,0.062-0.846,0.074-1.266c0.005-0.148,0.022-0.296,0.026-0.442
			C125.418,59.979,126.169,58.683,126.965,57.51z"/>
		<path fill="#F7F2EB" d="M107.051,49.699c4.074-2.456,8.017,0.276,8.176,0.39c0.064,0.044,0.127,0.087,0.192,0.122
			c2.819,1.501,4.591,3.686,5.411,6.674c0.352,1.275,0.498,2.629,0.508,4.02v0.152c-0.002,2.638-0.53,5.401-1.277,7.989
			c-0.061-1.603-0.27-3.239-0.674-4.872c-0.012-0.053-0.027-0.101-0.041-0.15c-0.091-0.354-0.189-0.705-0.297-1.059
			c-0.066-0.215-0.141-0.432-0.216-0.645c-0.06-0.176-0.122-0.354-0.189-0.527c-0.109-0.293-0.228-0.582-0.348-0.869
			c-0.034-0.079-0.069-0.157-0.105-0.234c-1.005-2.264-2.479-4.438-4.573-6.415c-0.057-0.052-0.115-0.108-0.174-0.162
			c-0.299-0.276-0.604-0.547-0.928-0.813c-0.157-0.13-0.322-0.257-0.484-0.385c-0.25-0.194-0.492-0.391-0.756-0.578
			c-0.48-0.35-0.978-0.69-1.505-1.021c-0.003-0.004-0.015-0.01-0.022-0.015c-0.143-0.106-0.453-0.323-0.897-0.603
			c0,0-0.005-0.005-0.009-0.007c-0.453-0.282-1.037-0.618-1.729-0.957C107.092,49.72,107.074,49.709,107.051,49.699z"/>
		<path fill="#F7F2EB" d="M99.549,59.105c-1.504-0.708-2.466-2.242-2.453-3.907c0.008-0.695,0.223-2.404,2.074-3.233
			c0.523-0.233,1.068-0.361,1.623-0.406c0.883-0.07,1.781,0.07,2.641,0.312c0,0,0,0,0.004,0.001c0.021,0.007,0.041,0.013,0.064,0.02
			c0.296,0.085,0.586,0.181,0.867,0.284c0.137,0.054,0.266,0.112,0.4,0.166c0.227,0.093,0.451,0.188,0.661,0.287
			c0.083,0.039,0.163,0.078,0.243,0.117c0.936,0.465,1.664,0.941,2.025,1.188c0.068,0.05,0.112,0.084,0.122,0.085
			c0.04,0.034,0.081,0.061,0.126,0.091c0.771,0.479,1.484,0.991,2.15,1.53c0.191,0.153,0.351,0.318,0.529,0.475
			c0.462,0.397,0.908,0.803,1.318,1.229c0.18,0.19,0.336,0.383,0.502,0.574c0.377,0.433,0.736,0.876,1.064,1.338
			c0.13,0.181,0.252,0.363,0.371,0.543c0.359,0.554,0.693,1.124,0.984,1.716c0.044,0.092,0.096,0.183,0.143,0.274
			c1.42,3.027,1.975,6.552,1.635,10.555c-0.235,2.773-0.874,5.326-1.513,7.311c-0.363-0.987-0.741-1.918-1.118-2.82
			c-0.062-0.152-0.128-0.297-0.191-0.445c-0.35-0.82-0.709-1.607-1.07-2.358c-0.062-0.127-0.121-0.258-0.183-0.384
			C108.25,64.872,103.336,60.885,99.549,59.105z"/>
		<path fill="#F7F2EB" d="M148.955,93.597c-0.832,1.433-2.176,1.844-3.156,1.933c-0.021,0.002-0.041,0.003-0.062,0.005
			c-1.899,0.154-3.913-0.722-5.269-2.293c-2.559-2.974-6.898-5.449-12.9-7.415c-0.009-0.004-0.016-0.014-0.029-0.019
			c-0.066-0.021-0.139-0.039-0.205-0.062c-0.521-0.17-1.066-0.33-1.614-0.49c-0.473-0.142-0.952-0.279-1.446-0.411
			c-0.498-0.136-1.002-0.27-1.525-0.401c-0.715-0.179-1.455-0.35-2.203-0.517c-0.281-0.063-0.537-0.131-0.823-0.192
			c0.13-0.064,0.28-0.128,0.415-0.193c0.047-0.018,0.101-0.011,0.147-0.03c5.042-2.315,13.776-4.868,21.917-0.146
			c0.419,0.245,0.837,0.533,1.254,0.821c0.201,0.135,0.404,0.25,0.602,0.396c1.266,0.932,2.511,2.06,3.721,3.405l0.235,0.267
			c0.007,0.006,0.019,0.01,0.019,0.018C148.665,88.999,150.309,91.27,148.955,93.597z"/>
		<path fill="#A88267" d="M25.441,102.35c0-4.157,0.342-7.35,0.975-12.35c-0.982,0-1.963,0-2.945,0c-0.61,5-0.938,8.194-0.938,12.35
			c0,33.468,20.557,62.285,49.707,74.371c0.398-0.852,1.008-1.727,1.252-2.664C45.322,162.444,25.441,134.66,25.441,102.35z"/>
		<path fill="#A88267" d="M149.49,36.973c-0.629,0.743-1.234,1.5-1.79,2.297c19.787,14.052,32.722,37.146,32.722,63.209
			c0,7.029-0.945,13.838-2.706,20.318c1.022-0.034,2.034-0.066,3.021-0.02c1.691-6.487,2.596-13.289,2.596-20.299
			C183.332,75.484,169.959,51.559,149.49,36.973z"/>
		<g>
			<circle fill="none" cx="102.934" cy="104.807" r="78.672"/>
			<text transform="matrix(0.3394 -0.9406 0.9406 0.3394 26.0518 86.0371)"><tspan x="0" y="0" fill="#A88267" font-family="'Nunito-Bold'" font-size="23.4619">V</tspan><tspan x="16.042" y="0.072" fill="#A88267" font-family="'Nunito-Bold'" font-size="23.4619" rotate="10.6">E</tspan><tspan x="28.994" y="2.268" fill="#A88267" font-family="'Nunito-Bold'" font-size="23.4619" rotate="21.218">G</tspan><tspan x="44.31" y="8.31" fill="#A88267" font-family="'Nunito-Bold'" font-size="23.4619" rotate="32.01">E</tspan><tspan x="55.528" y="15.229" fill="#A88267" font-family="'Nunito-Bold'" font-size="23.4619" rotate="41.844">T</tspan><tspan x="65.887" y="24.226" fill="#A88267" font-family="'Nunito-Bold'" font-size="23.4619" rotate="52.878">A</tspan><tspan x="75.957" y="37.497" fill="#A88267" font-family="'Nunito-Bold'" font-size="23.4619" rotate="64.498">R</tspan><tspan x="82.465" y="51.827" fill="#A88267" font-family="'Nunito-Bold'" font-size="23.4619" rotate="72.4">I</tspan><tspan x="84.715" y="57.488" fill="#A88267" font-family="'Nunito-Bold'" font-size="23.4619" rotate="80.749">A</tspan><tspan x="87.474" y="73.843" fill="#A88267" font-family="'Nunito-Bold'" font-size="23.4619" rotate="92.906">N</tspan></text>
		</g>
		<g>
			<path fill="none" d="M188.514,117.012c9.955-49.197-21.855-97.146-71.049-107.1C68.27-0.041,20.32,31.771,10.367,80.966
				C0.416,130.16,32.227,178.107,81.42,188.062C130.617,198.016,178.564,166.204,188.514,117.012z"/>
			<text transform="matrix(0.9905 0.1375 -0.1375 0.9905 80.457 188.1064)"><tspan x="0" y="0" fill="#A88267" font-family="'Nunito-Bold'" font-size="23.4619">F</tspan><tspan x="15.192" y="-0.032" fill="#A88267" font-family="'Nunito-Bold'" font-size="23.4619" rotate="-10.512">R</tspan><tspan x="32.561" y="-3.714" fill="#A88267" font-family="'Nunito-Bold'" font-size="23.4619" rotate="-18.709">I</tspan><tspan x="40.108" y="-6.117" fill="#A88267" font-family="'Nunito-Bold'" font-size="23.4619" rotate="-25.994">E</tspan><tspan x="54.364" y="-13.092" fill="#A88267" font-family="'Nunito-Bold'" font-size="23.4619" rotate="-37.106">N</tspan><tspan x="69.99" y="-25.208" fill="#A88267" font-family="'Nunito-Bold'" font-size="23.4619" rotate="-49.522">D</tspan><tspan x="82.436" y="-40.419" fill="#A88267" font-family="'Nunito-Bold'" font-size="23.4619" rotate="-60.431">L</tspan><tspan x="89.657" y="-53.312" fill="#A88267" font-family="'Nunito-Bold'" font-size="23.4619" rotate="-70.299">Y</tspan></text>
		</g>
		<path fill="#EFD4A8" d="M18.645,102.525c0-4.211,0.319-7.525,0.919-12.525c-1.068,0-2.138,0-3.206,0
			c-0.578,5-0.877,8.317-0.877,12.525c0,36.401,22.361,67.742,54.066,80.889c0.432-0.928,1.1-1.875,1.362-2.896
			C40.271,167.885,18.645,137.669,18.645,102.525z"/>
		<path fill="#EFD4A8" d="M153.756,31.531c-0.554,0.908-1.182,1.756-1.844,2.575c21.359,15.302,35.307,40.323,35.307,68.547
			c0,7.646-1.027,15.053-2.943,22.1c1.112-0.036,2.211-0.071,3.283-0.021c1.842-7.056,2.826-14.454,2.826-22.078
			C190.385,73.372,175.916,47.409,153.756,31.531z"/>
	</g>
	<g>
		<path fill="none" d="M142.504,253.237c34.406,23.243,43.457,69.979,20.213,104.389c-23.246,34.408-69.982,43.455-104.389,20.211
			c-34.412-23.244-43.459-69.979-20.213-104.388C61.359,239.04,108.096,229.991,142.504,253.237z"/>
		<text transform="matrix(0.6866 -0.7271 0.7271 0.6866 40.1836 269.7939)"><tspan x="0" y="0" fill="#A88267" font-family="'Nunito-Bold'" font-size="24.1462">C</tspan><tspan x="15.646" y="0.073" fill="#A88267" font-family="'Nunito-Bold'" font-size="24.1462" rotate="10.838">L</tspan><tspan x="28.138" y="2.367" fill="#A88267" font-family="'Nunito-Bold'" font-size="24.1462" rotate="20.842">E</tspan><tspan x="40.788" y="6.902" fill="#A88267" font-family="'Nunito-Bold'" font-size="24.1462" rotate="32.395">A</tspan><tspan x="55.249" y="15.95" fill="#A88267" font-family="'Nunito-Bold'" font-size="24.1462" rotate="45.31">N</tspan></text>
	</g>
</g>
<g id="bg">
</g>
<g id="ui">
</g>
</svg>
